G04 Layer: BottomSolderMaskLayer*
G04 EasyEDA v6.5.50, 2025-06-19 10:13:18*
G04 a84239dc67104c4f9253a13bb71c2901,cfac02f6325b4f3d8a51e7031594ce25,10*
G04 Gerber Generator version 0.2*
G04 Scale: 100 percent, Rotated: No, Reflected: No *
G04 Dimensions in millimeters *
G04 leading zeros omitted , absolute positions ,4 integer and 5 decimal *
%FSLAX45Y45*%
%MOMM*%

%AMMACRO1*4,1,8,-0.1311,-0.2508,-0.1608,-0.221,-0.1608,0.2211,-0.1311,0.2508,0.131,0.2508,0.1608,0.2211,0.1608,-0.221,0.131,-0.2508,-0.1311,-0.2508,0*%
%AMMACRO2*4,1,8,-0.171,-0.4258,-0.2008,-0.3961,-0.2008,0.3961,-0.171,0.4258,0.171,0.4258,0.2008,0.3961,0.2008,-0.3961,0.171,-0.4258,-0.171,-0.4258,0*%
%ADD10MACRO1*%
%ADD11C,0.9096*%
%ADD12MACRO2*%
%ADD13C,0.0131*%

%LPD*%
G36*
X9447530Y5126482D02*
G01*
X9447530Y5122570D01*
X9467189Y5109514D01*
X9511538Y5078628D01*
X9525609Y5068265D01*
X9580778Y5029149D01*
X9610344Y5007457D01*
X9617913Y5007457D01*
X9617913Y5031181D01*
X9558934Y5071872D01*
X9484664Y5126177D01*
G37*
G36*
X4190796Y5126482D02*
G01*
X4257751Y5050129D01*
X4288282Y5016500D01*
X4333748Y4964785D01*
X4462983Y4819853D01*
X4515307Y4760315D01*
X4543755Y4729276D01*
X4582922Y4685284D01*
X4660696Y4597298D01*
X4764379Y4480864D01*
X4821474Y4417060D01*
X4880508Y4417060D01*
X4899355Y4449826D01*
X4907076Y4460138D01*
X4920030Y4483455D01*
X4947513Y4527448D01*
X4963769Y4555896D01*
X4999939Y4615434D01*
X5033670Y4672330D01*
X5061254Y4716322D01*
X5068519Y4729276D01*
X5104587Y4788814D01*
X5117693Y4812080D01*
X5125567Y4822444D01*
X5138572Y4845710D01*
X5161584Y4884521D01*
X5168849Y4894884D01*
X5186680Y4923383D01*
X5222595Y4985461D01*
X5232349Y5001006D01*
X5240680Y5007457D01*
X5246573Y5007457D01*
X5254904Y5003038D01*
X5403443Y4968189D01*
X5460288Y4953558D01*
X5669991Y4903470D01*
X5724144Y4891379D01*
X5783630Y4875936D01*
X6006490Y4823307D01*
X6032703Y4816551D01*
X6063284Y4809896D01*
X6106972Y4798314D01*
X6264300Y4761179D01*
X6307988Y4749495D01*
X6406235Y4726686D01*
X6406286Y4723638D01*
X6312357Y4704892D01*
X6181242Y4678070D01*
X5954014Y4631944D01*
X5827318Y4606594D01*
X5648147Y4569866D01*
X5521452Y4544568D01*
X5316067Y4502658D01*
X5163159Y4472127D01*
X4883759Y4415129D01*
X4880508Y4417060D01*
X4821474Y4417060D01*
X4840122Y4395927D01*
X4854854Y4390390D01*
X5119420Y4443679D01*
X5136896Y4448302D01*
X5254904Y4471517D01*
X5451551Y4510887D01*
X5469026Y4515612D01*
X5639409Y4549241D01*
X5792368Y4580636D01*
X5962751Y4614316D01*
X5980226Y4619142D01*
X6124448Y4647539D01*
X6255512Y4674412D01*
X6453428Y4714036D01*
X6474002Y4722368D01*
X6298488Y4928514D01*
X6128816Y5126482D01*
X6096050Y5126482D01*
X6096050Y5124602D01*
X6129426Y5086400D01*
X6138926Y5076037D01*
X6184392Y5021681D01*
X6363868Y4812080D01*
X6393434Y4779010D01*
X6388455Y4776063D01*
X6102604Y4945024D01*
X5792368Y5126431D01*
X5755233Y5126482D01*
X5755182Y5122621D01*
X6043422Y4954422D01*
X6382969Y4753864D01*
X6379616Y4751882D01*
X6307988Y4769408D01*
X6292799Y4774590D01*
X6283858Y4774590D01*
X6246774Y4784445D01*
X6117285Y4815992D01*
X6106515Y4815992D01*
X6098235Y4820361D01*
X6015228Y4839716D01*
X5984595Y4847539D01*
X5967120Y4851704D01*
X5925718Y4862525D01*
X5917133Y4862525D01*
X5871006Y4875022D01*
X5626303Y4932832D01*
X5569508Y4947513D01*
X5351018Y4999431D01*
X5272379Y5018430D01*
X5250535Y5024120D01*
X5247792Y5025034D01*
X5269636Y5063083D01*
X5297170Y5107076D01*
X5305145Y5122570D01*
X5305145Y5126482D01*
X5276392Y5126482D01*
X5220309Y5033314D01*
X5209692Y5033314D01*
X5088839Y5062321D01*
X5042712Y5074716D01*
X5031638Y5074716D01*
X5023307Y5079136D01*
X4863795Y5116677D01*
X4863795Y5126482D01*
X4754575Y5126482D01*
X4754575Y5124145D01*
X4782972Y5116626D01*
X4824933Y5107584D01*
X4837582Y5096865D01*
X4837582Y5095443D01*
X4879543Y5095443D01*
X4887874Y5091023D01*
X5101945Y5040680D01*
X5132527Y5032806D01*
X5150002Y5028692D01*
X5191455Y5017820D01*
X5204663Y5017820D01*
X5204663Y5006136D01*
X5182006Y4969916D01*
X5157114Y4928514D01*
X5129682Y4884521D01*
X5113578Y4856073D01*
X5085994Y4812080D01*
X5069890Y4783632D01*
X5042458Y4739640D01*
X5016093Y4695647D01*
X4999990Y4667199D01*
X4972507Y4623206D01*
X4921148Y4537811D01*
X4893665Y4493818D01*
X4876088Y4461459D01*
X4869637Y4461459D01*
X4863795Y4904790D01*
X4863795Y5095443D01*
X4837582Y5095443D01*
X4837582Y4443323D01*
X4831029Y4443374D01*
X4777892Y4504131D01*
X4681575Y4612843D01*
X4646625Y4651654D01*
X4593844Y4711141D01*
X4563618Y4744821D01*
X4506417Y4809490D01*
X4432452Y4892294D01*
X4373372Y4959604D01*
X4345076Y4990642D01*
X4285843Y5057902D01*
X4250385Y5096713D01*
X4224375Y5126482D01*
G37*
G36*
X1604111Y5126482D02*
G01*
X1604111Y5118963D01*
X1612036Y5107076D01*
X1630070Y5070856D01*
X1651406Y5024272D01*
X1700530Y4923383D01*
X1709978Y4902657D01*
X1716786Y4889703D01*
X1743862Y4832807D01*
X1792427Y4731867D01*
X1809038Y4695647D01*
X1892807Y4522266D01*
X1901139Y4504131D01*
X1917700Y4470501D01*
X1953768Y4395470D01*
X1963470Y4374743D01*
X1978812Y4343704D01*
X2032812Y4229862D01*
X2041143Y4214317D01*
X2102154Y4084929D01*
X2110435Y4069435D01*
X2137308Y4012488D01*
X2147366Y3993032D01*
X2142947Y3990441D01*
X2082698Y4033164D01*
X2078075Y4035755D01*
X2039010Y4064254D01*
X2034286Y4066844D01*
X1986432Y4100474D01*
X1982063Y4103065D01*
X1948891Y4127500D01*
X1938324Y4134104D01*
X1899157Y4162551D01*
X1894484Y4165142D01*
X1825904Y4214317D01*
X1807057Y4227271D01*
X1672234Y4323029D01*
X1667306Y4325569D01*
X1558442Y4403242D01*
X1505762Y4439716D01*
X1217472Y4643882D01*
X1212900Y4646472D01*
X1173835Y4674920D01*
X1169263Y4677511D01*
X990244Y4804308D01*
X985418Y4806899D01*
X763016Y4964785D01*
X758444Y4967325D01*
X719277Y4995773D01*
X697433Y5011064D01*
X669239Y5029454D01*
X668985Y5001869D01*
X745693Y4949240D01*
X784707Y4920792D01*
X789178Y4918202D01*
X854710Y4871618D01*
X863447Y4866030D01*
X898398Y4841036D01*
X1106424Y4694021D01*
X1126744Y4680102D01*
X1195324Y4630928D01*
X1200048Y4628337D01*
X1239113Y4599889D01*
X1244142Y4597298D01*
X1378712Y4501540D01*
X1383538Y4498949D01*
X1422654Y4470501D01*
X1427276Y4467910D01*
X1466342Y4439462D01*
X1470812Y4436872D01*
X1515059Y4405833D01*
X1606194Y4341114D01*
X1610766Y4338523D01*
X1789785Y4211726D01*
X1794306Y4209135D01*
X1833372Y4180687D01*
X1837994Y4178096D01*
X1877060Y4149648D01*
X1881682Y4147058D01*
X1969312Y4084929D01*
X2174951Y3940048D01*
X2195728Y3940048D01*
X2232355Y4004716D01*
X2277821Y4090111D01*
X2295398Y4123740D01*
X2319782Y4167733D01*
X2338628Y4203954D01*
X2383028Y4286758D01*
X2407310Y4330750D01*
X2443988Y4400651D01*
X2478786Y4465320D01*
X2494635Y4493818D01*
X2539898Y4579213D01*
X2555849Y4607661D01*
X2592527Y4677511D01*
X2608732Y4706010D01*
X2653588Y4791405D01*
X2686405Y4850892D01*
X2706420Y4889703D01*
X2740355Y4951831D01*
X2767380Y5003596D01*
X2775153Y5012537D01*
X2775153Y5020462D01*
X2783128Y5029454D01*
X2802331Y5068265D01*
X2826308Y5112258D01*
X2832100Y5126482D01*
X2802585Y5126482D01*
X2774188Y5073446D01*
X2741523Y5013909D01*
X2677972Y4894884D01*
X2654096Y4850892D01*
X2625242Y4796536D01*
X2592628Y4737049D01*
X2564282Y4682693D01*
X2540203Y4638700D01*
X2476804Y4519676D01*
X2444038Y4460138D01*
X2426462Y4426508D01*
X2380945Y4341114D01*
X2338628Y4263491D01*
X2284933Y4162551D01*
X2259431Y4115968D01*
X2251608Y4100474D01*
X2206193Y4015079D01*
X2197303Y4000855D01*
X2189632Y4000855D01*
X2189683Y4033164D01*
X2180488Y4097883D01*
X2163572Y4227271D01*
X2145690Y4369562D01*
X2137359Y4431690D01*
X2119985Y4566259D01*
X2110740Y4641291D01*
X2102408Y4703419D01*
X2067001Y4977688D01*
X2058974Y5037226D01*
X2048052Y5126482D01*
X2019198Y5126482D01*
X2019503Y5112258D01*
X2036876Y4980279D01*
X2045055Y4915611D01*
X2054606Y4843119D01*
X2062480Y4778451D01*
X2080564Y4641291D01*
X2089251Y4571441D01*
X2098090Y4504131D01*
X2106218Y4439462D01*
X2124202Y4302302D01*
X2133142Y4229862D01*
X2150059Y4100474D01*
X2155698Y4051300D01*
X2147468Y4056481D01*
X2111146Y4132783D01*
X2049475Y4260900D01*
X2040026Y4281627D01*
X2033320Y4294530D01*
X2022551Y4317847D01*
X2015032Y4330750D01*
X2000961Y4361840D01*
X1970989Y4426508D01*
X1963420Y4439462D01*
X1953971Y4460138D01*
X1936597Y4496409D01*
X1918868Y4532630D01*
X1874977Y4625746D01*
X1865020Y4646472D01*
X1853336Y4668316D01*
X1834896Y4708601D01*
X1826971Y4725416D01*
X1818690Y4742230D01*
X1784096Y4814671D01*
X1761286Y4861255D01*
X1753057Y4879390D01*
X1735124Y4915611D01*
X1725422Y4936286D01*
X1718716Y4949240D01*
X1709064Y4969916D01*
X1692402Y5003596D01*
X1634286Y5126482D01*
G37*
G36*
X6846163Y5116118D02*
G01*
X6852005Y5112715D01*
X6857796Y5116118D01*
G37*
G36*
X6863638Y5110988D02*
G01*
X6869480Y5107533D01*
X6875272Y5110988D01*
G37*
G36*
X7471003Y5108397D02*
G01*
X7476845Y5104942D01*
X7482636Y5108397D01*
G37*
G36*
X7503058Y5066995D02*
G01*
X7503058Y5064404D01*
X7507427Y5064404D01*
X7507427Y5066995D01*
G37*
G36*
X8774582Y5035905D02*
G01*
X8774582Y5033314D01*
X8778951Y5033314D01*
X8778951Y5035905D01*
G37*
G36*
X7127290Y5020411D02*
G01*
X7127290Y5017820D01*
X7131659Y5017820D01*
X7131659Y5020411D01*
G37*
G36*
X7114184Y5012639D02*
G01*
X7114184Y5010048D01*
X7118553Y5010048D01*
X7118553Y5012639D01*
G37*
G36*
X8831427Y5007457D02*
G01*
X8831427Y5004866D01*
X8835796Y5004866D01*
X8835796Y5007457D01*
G37*
G36*
X3923029Y4986578D02*
G01*
X3917797Y4984851D01*
X3839159Y4970576D01*
X3712413Y4946091D01*
X3188106Y4846421D01*
X3113786Y4831943D01*
X2895295Y4790389D01*
X2834132Y4779264D01*
X2781706Y4768646D01*
X2776990Y4764430D01*
X2871266Y4764430D01*
X2871266Y4768646D01*
X2987090Y4790694D01*
X3087573Y4810099D01*
X3231794Y4837226D01*
X3332276Y4856632D01*
X3502710Y4888941D01*
X3559505Y4899456D01*
X3576980Y4903317D01*
X3780180Y4941773D01*
X3876294Y4960416D01*
X3876294Y4953050D01*
X3854363Y4935016D01*
X3945991Y4935016D01*
X3960672Y4920792D01*
X3981145Y4901488D01*
X3981145Y4898948D01*
X4017629Y4862525D01*
X4058259Y4862525D01*
X4075125Y4850892D01*
X4118813Y4817770D01*
X4145534Y4799126D01*
X4288739Y4693056D01*
X4293819Y4690465D01*
X4322013Y4669028D01*
X4322013Y4660138D01*
X4308144Y4663287D01*
X4247134Y4666640D01*
X4215790Y4695647D01*
X4183481Y4729276D01*
X4128617Y4783632D01*
X4113479Y4799126D01*
X4084828Y4827625D01*
X4051249Y4862525D01*
X4017629Y4862525D01*
X4073855Y4806899D01*
X4156608Y4724095D01*
X4180687Y4698238D01*
X4204004Y4676343D01*
X4204004Y4670348D01*
X4158132Y4673854D01*
X4018279Y4683861D01*
X3973271Y4687265D01*
X3967734Y4713732D01*
X3958945Y4783632D01*
X3950970Y4843119D01*
X3941927Y4915611D01*
X3936695Y4935016D01*
X3854363Y4935016D01*
X3839159Y4922520D01*
X3769258Y4861661D01*
X3675634Y4781042D01*
X3599281Y4714697D01*
X3593804Y4712716D01*
X3631742Y4712716D01*
X3718763Y4788814D01*
X3847896Y4900066D01*
X3860292Y4914290D01*
X3867556Y4914290D01*
X3867556Y4905603D01*
X3857599Y4887112D01*
X3850894Y4876800D01*
X3796385Y4775860D01*
X3761943Y4711141D01*
X3755085Y4703419D01*
X3785615Y4703419D01*
X3832606Y4788814D01*
X3851401Y4825034D01*
X3858209Y4835398D01*
X3868165Y4856073D01*
X3875176Y4866436D01*
X3902506Y4916424D01*
X3902506Y4924653D01*
X3910279Y4924653D01*
X3915105Y4913020D01*
X3920286Y4866436D01*
X3928618Y4809490D01*
X3942892Y4693920D01*
X3935272Y4689652D01*
X3865372Y4694478D01*
X3792169Y4699152D01*
X3785615Y4703419D01*
X3755085Y4703419D01*
X3721150Y4703826D01*
X3639159Y4710023D01*
X3631742Y4712716D01*
X3593804Y4712716D01*
X3592982Y4712411D01*
X3550767Y4717186D01*
X3450234Y4723130D01*
X3393440Y4727752D01*
X3319170Y4733137D01*
X3166211Y4743551D01*
X3083204Y4748936D01*
X3030778Y4753762D01*
X2899664Y4761839D01*
X2871266Y4764430D01*
X2776990Y4764430D01*
X2775305Y4762906D01*
X2775274Y4740910D01*
X2896971Y4740910D01*
X2902407Y4746091D01*
X2912770Y4745482D01*
X2925927Y4744008D01*
X3013303Y4738116D01*
X3078835Y4733137D01*
X3231794Y4722825D01*
X3371596Y4712614D01*
X3564280Y4699203D01*
X3575507Y4695088D01*
X3473094Y4605070D01*
X3453129Y4592675D01*
X3413201Y4603800D01*
X3409594Y4603800D01*
X3336645Y4623866D01*
X3236163Y4650740D01*
X3182061Y4665878D01*
X3178200Y4665878D01*
X3083204Y4692142D01*
X3056991Y4698949D01*
X2912770Y4737760D01*
X2896971Y4740910D01*
X2775274Y4740910D01*
X2775271Y4738319D01*
X2835706Y4738319D01*
X2851607Y4737912D01*
X2904032Y4722266D01*
X3034030Y4686604D01*
X3037078Y4686604D01*
X3087573Y4672939D01*
X3169208Y4650333D01*
X3171901Y4650333D01*
X3345383Y4603191D01*
X3419537Y4583531D01*
X3487420Y4583531D01*
X3487420Y4589678D01*
X3502406Y4602480D01*
X3509568Y4607661D01*
X3595624Y4682693D01*
X3614775Y4696917D01*
X3625748Y4696917D01*
X3630625Y4694072D01*
X3745179Y4685944D01*
X3745179Y4680102D01*
X3685540Y4571441D01*
X3670706Y4542942D01*
X3663035Y4535728D01*
X3605936Y4552035D01*
X3601872Y4552035D01*
X3524554Y4573117D01*
X3487420Y4583531D01*
X3419537Y4583531D01*
X3432759Y4580026D01*
X3441446Y4575098D01*
X3432251Y4571441D01*
X3249269Y4413097D01*
X3233369Y4400651D01*
X3177184Y4446168D01*
X3115868Y4498949D01*
X3030778Y4571746D01*
X2903524Y4680102D01*
X2835706Y4738319D01*
X2775271Y4738319D01*
X2775254Y4717643D01*
X2825394Y4717491D01*
X2839974Y4705604D01*
X2908096Y4646472D01*
X2915666Y4641291D01*
X2985363Y4581804D01*
X3056991Y4520234D01*
X3070098Y4509465D01*
X3185363Y4411014D01*
X3212134Y4389221D01*
X3212134Y4380839D01*
X3255822Y4380839D01*
X3255822Y4389678D01*
X3299561Y4426508D01*
X3430727Y4540402D01*
X3465931Y4570120D01*
X3472129Y4569815D01*
X3610813Y4531309D01*
X3617366Y4531309D01*
X3619681Y4530547D01*
X3692296Y4530547D01*
X3761282Y4656836D01*
X3773220Y4680102D01*
X3782364Y4683912D01*
X3843528Y4679442D01*
X3939641Y4673092D01*
X3944620Y4671314D01*
X3945521Y4665065D01*
X3972051Y4665065D01*
X3983329Y4669993D01*
X4070756Y4663592D01*
X4188714Y4655515D01*
X4223664Y4653838D01*
X4227560Y4650333D01*
X4269536Y4650333D01*
X4280458Y4649724D01*
X4317593Y4644440D01*
X4317593Y4640986D01*
X4291736Y4629658D01*
X4283659Y4629658D01*
X4269536Y4642408D01*
X4269536Y4650333D01*
X4227560Y4650333D01*
X4252061Y4628337D01*
X4260697Y4622190D01*
X4255414Y4613960D01*
X4236212Y4607661D01*
X4114444Y4556404D01*
X4083862Y4542586D01*
X4027017Y4520082D01*
X4001770Y4507738D01*
X3993489Y4512614D01*
X3985717Y4576622D01*
X3976928Y4651654D01*
X3972051Y4665065D01*
X3945521Y4665065D01*
X3963263Y4540402D01*
X3968800Y4495393D01*
X3948967Y4486757D01*
X3997655Y4486757D01*
X4066387Y4515967D01*
X4140657Y4546600D01*
X4268571Y4601159D01*
X4278579Y4601159D01*
X4283659Y4593285D01*
X4282577Y4592320D01*
X4318101Y4592320D01*
X4328566Y4604664D01*
X4339488Y4606798D01*
X4339132Y4597298D01*
X4327906Y4585309D01*
X4318101Y4592320D01*
X4282577Y4592320D01*
X4092600Y4422749D01*
X4082542Y4422648D01*
X4008018Y4443222D01*
X4002735Y4448251D01*
X3997655Y4486757D01*
X3948967Y4486757D01*
X3913682Y4471365D01*
X3891584Y4474006D01*
X3821684Y4493107D01*
X3740404Y4515815D01*
X3732377Y4515815D01*
X3699306Y4526635D01*
X3692296Y4530547D01*
X3619681Y4530547D01*
X3657803Y4517948D01*
X3657803Y4515713D01*
X3649827Y4506722D01*
X3613302Y4436872D01*
X3588765Y4392879D01*
X3560341Y4339844D01*
X3588715Y4339844D01*
X3604615Y4367022D01*
X3650284Y4452416D01*
X3681984Y4509262D01*
X3695141Y4510786D01*
X3703675Y4506214D01*
X3738626Y4498136D01*
X3821684Y4475175D01*
X3876294Y4460544D01*
X3876294Y4459681D01*
X3946194Y4459681D01*
X3946194Y4466031D01*
X3967073Y4474108D01*
X3972407Y4470958D01*
X3972407Y4453686D01*
X3968445Y4453686D01*
X3946194Y4459681D01*
X3876294Y4459681D01*
X3876294Y4454804D01*
X3851046Y4445965D01*
X3799840Y4423613D01*
X3708044Y4385360D01*
X3655618Y4363161D01*
X3595624Y4337304D01*
X3588715Y4339844D01*
X3560341Y4339844D01*
X3552698Y4325569D01*
X3542741Y4313936D01*
X3533292Y4313936D01*
X3502710Y4298340D01*
X3445865Y4275531D01*
X3402329Y4257090D01*
X3380333Y4273702D01*
X3255822Y4380839D01*
X3212134Y4380788D01*
X3157474Y4334256D01*
X3148736Y4325823D01*
X3139998Y4319676D01*
X3074466Y4261662D01*
X3005988Y4203954D01*
X2991713Y4189679D01*
X2982976Y4191406D01*
X2976422Y4211726D01*
X2967278Y4237634D01*
X2936341Y4338523D01*
X2928061Y4364431D01*
X2919730Y4392879D01*
X2900934Y4452416D01*
X2893974Y4473092D01*
X2874772Y4535220D01*
X2867812Y4558487D01*
X2858160Y4588256D01*
X2840685Y4645202D01*
X2832557Y4672330D01*
X2818841Y4710226D01*
X2818841Y4717643D01*
X2775254Y4717643D01*
X2775254Y4690465D01*
X2766618Y4496409D01*
X2757576Y4255719D01*
X2748911Y4010863D01*
X2775712Y4010863D01*
X2779674Y4077157D01*
X2788666Y4330750D01*
X2796540Y4574032D01*
X2802737Y4660696D01*
X2810103Y4660696D01*
X2810103Y4650435D01*
X2818638Y4628337D01*
X2836672Y4566259D01*
X2844495Y4545533D01*
X2862630Y4483455D01*
X2870606Y4460138D01*
X2888437Y4403242D01*
X2906522Y4343704D01*
X2914497Y4320438D01*
X2931871Y4263491D01*
X2950413Y4201363D01*
X2958693Y4182618D01*
X2959964Y4163517D01*
X2992323Y4163517D01*
X3013303Y4178757D01*
X3078835Y4236974D01*
X3109417Y4261815D01*
X3209950Y4350918D01*
X3230372Y4365701D01*
X3240532Y4365701D01*
X3306064Y4307992D01*
X3314801Y4302099D01*
X3323539Y4293971D01*
X3377641Y4247337D01*
X3360462Y4238498D01*
X3421837Y4238498D01*
X3421837Y4245559D01*
X3447745Y4254601D01*
X3458972Y4261205D01*
X3515817Y4283811D01*
X3518712Y4288078D01*
X3531108Y4288078D01*
X3531108Y4286656D01*
X3481781Y4194911D01*
X3475329Y4194911D01*
X3421837Y4238498D01*
X3360462Y4238498D01*
X3356254Y4236313D01*
X3348939Y4236313D01*
X3333089Y4225950D01*
X3322065Y4225950D01*
X3319170Y4221886D01*
X3275482Y4203954D01*
X3271113Y4201160D01*
X3141421Y4147058D01*
X3096310Y4127804D01*
X3019958Y4096562D01*
X3012287Y4096562D01*
X3002584Y4126331D01*
X2992323Y4163517D01*
X2959964Y4163517D01*
X2960116Y4161231D01*
X2941218Y4149293D01*
X2941218Y4145534D01*
X2907741Y4118559D01*
X2834132Y4054601D01*
X2825394Y4046524D01*
X2814472Y4038346D01*
X2794405Y4020312D01*
X2827324Y4020312D01*
X2852216Y4040936D01*
X2960014Y4134104D01*
X2966059Y4138218D01*
X2974949Y4131513D01*
X2980791Y4108246D01*
X2987954Y4083304D01*
X2969573Y4075379D01*
X3019856Y4075379D01*
X3091078Y4105656D01*
X3126892Y4121302D01*
X3317646Y4201363D01*
X3332276Y4206544D01*
X3336645Y4209542D01*
X3390798Y4231132D01*
X3397961Y4231132D01*
X3445865Y4189069D01*
X3461410Y4178452D01*
X3464117Y4172000D01*
X3499307Y4172000D01*
X3509111Y4191050D01*
X3535172Y4240225D01*
X3572510Y4307789D01*
X3632860Y4333341D01*
X3681831Y4354474D01*
X3721150Y4370984D01*
X3808577Y4407052D01*
X3906265Y4448505D01*
X3922166Y4448403D01*
X3975912Y4432960D01*
X3977611Y4421276D01*
X4005173Y4421276D01*
X4018279Y4422444D01*
X4056136Y4412030D01*
X4120997Y4412030D01*
X4120997Y4419955D01*
X4155897Y4447235D01*
X4155948Y4452874D01*
X4173423Y4462272D01*
X4173423Y4469231D01*
X4180738Y4469231D01*
X4190847Y4482338D01*
X4199890Y4488637D01*
X4296054Y4575302D01*
X4303979Y4575302D01*
X4311040Y4568850D01*
X4313352Y4566259D01*
X4355084Y4566259D01*
X4367377Y4614113D01*
X4373930Y4614113D01*
X4377994Y4610201D01*
X4423105Y4542942D01*
X4435602Y4527956D01*
X4435602Y4523486D01*
X4454093Y4498949D01*
X4465472Y4483455D01*
X4480255Y4460138D01*
X4496765Y4438243D01*
X4496765Y4434636D01*
X4514900Y4411014D01*
X4522978Y4402023D01*
X4522978Y4394149D01*
X4514240Y4394149D01*
X4514240Y4399584D01*
X4505198Y4405833D01*
X4425645Y4486046D01*
X4392980Y4519676D01*
X4355947Y4555490D01*
X4355084Y4566259D01*
X4313352Y4566259D01*
X4322013Y4556607D01*
X4321810Y4542942D01*
X4308246Y4498949D01*
X4300575Y4467910D01*
X4282338Y4403242D01*
X4277004Y4375607D01*
X4266844Y4373270D01*
X4166870Y4400600D01*
X4120997Y4412030D01*
X4056136Y4412030D01*
X4072940Y4407408D01*
X4072940Y4405122D01*
X4024579Y4361840D01*
X4013911Y4361840D01*
X4008475Y4403242D01*
X4005173Y4421276D01*
X3977611Y4421276D01*
X3991152Y4331665D01*
X3981205Y4323334D01*
X4015841Y4323334D01*
X4085285Y4387697D01*
X4103217Y4399330D01*
X4110075Y4398670D01*
X4154424Y4385106D01*
X4193082Y4375556D01*
X4214198Y4369663D01*
X4301236Y4369663D01*
X4308500Y4395470D01*
X4334713Y4491228D01*
X4343806Y4522266D01*
X4343857Y4526127D01*
X4356963Y4526127D01*
X4356963Y4522165D01*
X4426864Y4452823D01*
X4426864Y4451654D01*
X4488260Y4391558D01*
X4527346Y4391558D01*
X4527346Y4389018D01*
X4522978Y4389018D01*
X4522978Y4391558D01*
X4488260Y4391558D01*
X4496765Y4383227D01*
X4496765Y4381144D01*
X4540453Y4339437D01*
X4540453Y4337608D01*
X4587900Y4291939D01*
X4581855Y4288282D01*
X4538268Y4300778D01*
X4305554Y4362958D01*
X4301236Y4369663D01*
X4214198Y4369663D01*
X4267352Y4354830D01*
X4269587Y4353610D01*
X4238091Y4245356D01*
X4234270Y4222648D01*
X4260545Y4222648D01*
X4274464Y4268673D01*
X4278934Y4286758D01*
X4291838Y4335932D01*
X4296359Y4345025D01*
X4311040Y4344466D01*
X4350410Y4332376D01*
X4411573Y4316882D01*
X4542637Y4280763D01*
X4575454Y4272788D01*
X4575454Y4267758D01*
X4547006Y4262323D01*
X4490212Y4254042D01*
X4459630Y4249928D01*
X4389729Y4238498D01*
X4265269Y4219854D01*
X4260545Y4222648D01*
X4234270Y4222648D01*
X4233570Y4218432D01*
X4219295Y4211269D01*
X4158132Y4203039D01*
X4092600Y4192727D01*
X4044543Y4184853D01*
X4033570Y4193336D01*
X4033570Y4227626D01*
X4025544Y4255719D01*
X4020667Y4315815D01*
X4015841Y4323334D01*
X3981205Y4323334D01*
X3954932Y4301286D01*
X3954932Y4298594D01*
X3896410Y4247946D01*
X3859022Y4214317D01*
X3841089Y4198823D01*
X3790139Y4152849D01*
X3828237Y4152849D01*
X3828237Y4157319D01*
X3986885Y4298442D01*
X3993896Y4298442D01*
X3998214Y4281627D01*
X4003192Y4229862D01*
X4008526Y4180433D01*
X3974592Y4174134D01*
X3901196Y4162806D01*
X4038549Y4162806D01*
X4044543Y4168343D01*
X4218381Y4194911D01*
X4226966Y4194911D01*
X4220768Y4178096D01*
X4216450Y4159961D01*
X4203446Y4115968D01*
X4197114Y4090873D01*
X4225848Y4090873D01*
X4225848Y4095242D01*
X4253484Y4196232D01*
X4261358Y4202328D01*
X4302302Y4207814D01*
X4367885Y4218432D01*
X4481474Y4235958D01*
X4533900Y4244594D01*
X4554524Y4247388D01*
X4544517Y4236313D01*
X4537760Y4236313D01*
X4520793Y4227017D01*
X4407204Y4173626D01*
X4377436Y4159961D01*
X4237431Y4093514D01*
X4225848Y4090873D01*
X4197114Y4090873D01*
X4195114Y4082948D01*
X4190187Y4071264D01*
X4074007Y4016451D01*
X4061002Y4013504D01*
X4051401Y4061663D01*
X4041901Y4149648D01*
X4038549Y4162806D01*
X3901196Y4162806D01*
X3856634Y4155897D01*
X3828237Y4152849D01*
X3790139Y4152849D01*
X3780332Y4144010D01*
X3721150Y4135374D01*
X3571189Y4111650D01*
X3525316Y4152239D01*
X3499307Y4172000D01*
X3464117Y4172000D01*
X3466744Y4165904D01*
X3447186Y4128922D01*
X3439312Y4119930D01*
X3439312Y4112056D01*
X3426700Y4096562D01*
X3456076Y4096562D01*
X3460394Y4103065D01*
X3485235Y4148328D01*
X3494532Y4148328D01*
X3540709Y4109161D01*
X3535934Y4106367D01*
X3476447Y4096715D01*
X3426700Y4096562D01*
X3425128Y4094632D01*
X3592271Y4094632D01*
X3592271Y4098696D01*
X3703675Y4115104D01*
X3729888Y4119524D01*
X3747617Y4122775D01*
X3753358Y4119321D01*
X3664356Y4039819D01*
X3655618Y4041292D01*
X3592271Y4094632D01*
X3425128Y4094632D01*
X3419500Y4087723D01*
X3393440Y4084218D01*
X3275482Y4065981D01*
X3122523Y4041952D01*
X3039922Y4029354D01*
X3032048Y4033977D01*
X3020161Y4066844D01*
X3019856Y4075379D01*
X2969573Y4075379D01*
X2905252Y4047388D01*
X2880004Y4038549D01*
X2880004Y4034485D01*
X2870758Y4034485D01*
X2836976Y4018381D01*
X2827324Y4020312D01*
X2794405Y4020312D01*
X2786075Y4012844D01*
X2775712Y4010863D01*
X2748911Y4010863D01*
X2748530Y4000093D01*
X2849219Y4000093D01*
X2853994Y4007459D01*
X2888742Y4020159D01*
X2888742Y4024122D01*
X2900222Y4024122D01*
X2917190Y4033265D01*
X2988970Y4062933D01*
X2993491Y4062933D01*
X2998114Y4051300D01*
X3005683Y4026509D01*
X2982722Y4019651D01*
X2934665Y4013250D01*
X2925892Y4011879D01*
X3039516Y4011879D01*
X3065729Y4016603D01*
X3196844Y4036669D01*
X3397808Y4068013D01*
X3413099Y4068114D01*
X3413099Y4065930D01*
X3361791Y3973677D01*
X3316274Y3888282D01*
X3308248Y3874058D01*
X3298444Y3858514D01*
X3286302Y3858514D01*
X3271113Y3863238D01*
X3240532Y3871010D01*
X3126892Y3897731D01*
X3100679Y3904589D01*
X3072434Y3911498D01*
X3067202Y3919321D01*
X3050082Y3976268D01*
X3041345Y4006646D01*
X3039516Y4011879D01*
X2925892Y4011879D01*
X2869082Y4002938D01*
X2852978Y3997909D01*
X2849219Y4000093D01*
X2748530Y4000093D01*
X2747721Y3977233D01*
X2751886Y3972356D01*
X2814472Y3972356D01*
X2814472Y3977335D01*
X2934665Y3996080D01*
X3000197Y4005935D01*
X3010763Y4006037D01*
X3019044Y3986580D01*
X3038348Y3922928D01*
X3034538Y3920693D01*
X2934665Y3944365D01*
X2908452Y3951122D01*
X2822956Y3972356D01*
X2751886Y3972356D01*
X2759557Y3963314D01*
X2766725Y3956812D01*
X2799892Y3956812D01*
X2804261Y3959453D01*
X2808986Y3956659D01*
X2851607Y3947160D01*
X2995828Y3912412D01*
X3045104Y3899458D01*
X3048662Y3889552D01*
X3081020Y3889552D01*
X3091942Y3889095D01*
X3218688Y3858564D01*
X3238927Y3853230D01*
X3324148Y3853230D01*
X3333445Y3864965D01*
X3344214Y3888282D01*
X3359556Y3914140D01*
X3387293Y3965905D01*
X3434079Y4051300D01*
X3444138Y4073499D01*
X3467709Y4078884D01*
X3550564Y4091432D01*
X3560927Y4091432D01*
X3638143Y4026662D01*
X3640604Y4020007D01*
X3679647Y4020007D01*
X3679647Y4024223D01*
X3722115Y4061663D01*
X3789883Y4122775D01*
X3806596Y4132021D01*
X3856634Y4138523D01*
X3878478Y4142892D01*
X3952748Y4153712D01*
X3978960Y4158386D01*
X4011015Y4161790D01*
X4015841Y4134104D01*
X4025087Y4056481D01*
X4034485Y3999992D01*
X4010005Y3986580D01*
X4060901Y3986580D01*
X4078782Y3998214D01*
X4144213Y4028033D01*
X4176674Y4044848D01*
X4182160Y4044848D01*
X4182160Y4037990D01*
X4174286Y4009898D01*
X4164431Y3971086D01*
X4155897Y3942638D01*
X4129633Y3844290D01*
X4124858Y3828745D01*
X4107434Y3764076D01*
X4102354Y3741928D01*
X4096359Y3739743D01*
X4086199Y3800297D01*
X4077563Y3864965D01*
X4067860Y3947769D01*
X4060901Y3986580D01*
X4010005Y3986580D01*
X4005173Y3983939D01*
X3978351Y3971086D01*
X3948734Y3958132D01*
X3917797Y3942283D01*
X3827983Y3899560D01*
X3820464Y3901186D01*
X3788918Y3925824D01*
X3788918Y3930548D01*
X3781958Y3932275D01*
X3679647Y4020007D01*
X3640604Y4020007D01*
X3640886Y4019245D01*
X3450234Y3849115D01*
X3439261Y3839108D01*
X3429203Y3827475D01*
X3418941Y3827475D01*
X3332530Y3848303D01*
X3324148Y3853230D01*
X3238927Y3853230D01*
X3284220Y3842461D01*
X3289909Y3839108D01*
X3256940Y3779570D01*
X3210864Y3694176D01*
X3181579Y3640836D01*
X3212134Y3640836D01*
X3212134Y3645611D01*
X3299155Y3802887D01*
X3313226Y3832656D01*
X3332987Y3832656D01*
X3339490Y3828796D01*
X3384110Y3818331D01*
X3456787Y3818331D01*
X3456787Y3824935D01*
X3620668Y3971442D01*
X3655618Y4003192D01*
X3665728Y4003446D01*
X3729329Y3947769D01*
X3734460Y3945178D01*
X3790645Y3896055D01*
X3797655Y3894328D01*
X3797300Y3885692D01*
X3789818Y3882237D01*
X3840835Y3882237D01*
X3843528Y3886454D01*
X4029811Y3974947D01*
X4033062Y3974947D01*
X4037126Y3971036D01*
X4050995Y3854653D01*
X4059580Y3797706D01*
X4068419Y3730396D01*
X4069922Y3716172D01*
X4120032Y3716172D01*
X4126179Y3730396D01*
X4133748Y3758895D01*
X4151629Y3823563D01*
X4159758Y3854653D01*
X4173677Y3903776D01*
X4182516Y3937457D01*
X4203852Y4013149D01*
X4218178Y4063136D01*
X4271721Y4088790D01*
X4411573Y4154525D01*
X4564481Y4227017D01*
X4567428Y4231132D01*
X4575454Y4231132D01*
X4575454Y4225798D01*
X4491177Y4128922D01*
X4316679Y3929684D01*
X4270451Y3877919D01*
X4218736Y3818382D01*
X4208830Y3808069D01*
X4187951Y3782161D01*
X4141774Y3730396D01*
X4127855Y3716172D01*
X4069922Y3716172D01*
X4072432Y3692906D01*
X4062018Y3693058D01*
X4002328Y3745941D01*
X3970223Y3772712D01*
X3869740Y3859326D01*
X3840835Y3882237D01*
X3789818Y3882237D01*
X3756101Y3866743D01*
X3591051Y3788664D01*
X3579317Y3788664D01*
X3493973Y3808780D01*
X3456787Y3818331D01*
X3384110Y3818331D01*
X3397554Y3815181D01*
X3405682Y3807510D01*
X3376472Y3782161D01*
X3369411Y3780434D01*
X3369411Y3775964D01*
X3221380Y3644239D01*
X3212134Y3640836D01*
X3181579Y3640836D01*
X3173040Y3625240D01*
X3233115Y3625240D01*
X3266541Y3655364D01*
X3275482Y3661562D01*
X3432759Y3804107D01*
X3441496Y3803904D01*
X3553256Y3777335D01*
X3552743Y3775710D01*
X3622852Y3775710D01*
X3622852Y3786073D01*
X3632250Y3786073D01*
X3730650Y3833926D01*
X3760012Y3846880D01*
X3810355Y3871468D01*
X3821684Y3871366D01*
X3862832Y3833926D01*
X3876801Y3823563D01*
X3946651Y3764076D01*
X3991356Y3725265D01*
X3996436Y3722674D01*
X4042359Y3682949D01*
X4042359Y3677361D01*
X4033824Y3677361D01*
X3976573Y3692906D01*
X3967937Y3692906D01*
X3952748Y3698138D01*
X3834790Y3726738D01*
X3681831Y3763213D01*
X3651250Y3770985D01*
X3636060Y3775710D01*
X3552743Y3775710D01*
X3550767Y3769664D01*
X3480866Y3736898D01*
X3427577Y3712311D01*
X3345383Y3672992D01*
X3237941Y3622395D01*
X3233115Y3625240D01*
X3173040Y3625240D01*
X3169869Y3619449D01*
X3161588Y3617823D01*
X3150412Y3655364D01*
X3106623Y3795115D01*
X3099054Y3818382D01*
X3089097Y3854653D01*
X3081020Y3873347D01*
X3081020Y3889552D01*
X3048662Y3889552D01*
X3050946Y3883101D01*
X3058718Y3857193D01*
X3077210Y3800297D01*
X3084220Y3774389D01*
X3097784Y3735578D01*
X3116427Y3670909D01*
X3124250Y3650183D01*
X3129483Y3630879D01*
X3118154Y3633470D01*
X3085338Y3668318D01*
X3058972Y3694176D01*
X3053334Y3701948D01*
X3028594Y3723589D01*
X3028594Y3726027D01*
X2992831Y3760876D01*
X2977286Y3776979D01*
X2843936Y3911549D01*
X2816656Y3940048D01*
X2812288Y3942638D01*
X2799892Y3956812D01*
X2766725Y3956812D01*
X2773832Y3950360D01*
X2800197Y3921912D01*
X2837129Y3886301D01*
X2870047Y3852062D01*
X2942437Y3779570D01*
X3027172Y3694176D01*
X3099612Y3621735D01*
X3109468Y3611372D01*
X3132388Y3588715D01*
X3220872Y3588715D01*
X3220872Y3594201D01*
X3249269Y3605936D01*
X3314801Y3637279D01*
X3319170Y3639870D01*
X3351174Y3653993D01*
X3362858Y3660648D01*
X3445357Y3698951D01*
X3458972Y3705606D01*
X3585718Y3765346D01*
X3607562Y3765143D01*
X3629660Y3758031D01*
X3782364Y3721658D01*
X3922166Y3687673D01*
X3939641Y3683050D01*
X3978960Y3674364D01*
X4029710Y3661816D01*
X4025036Y3657346D01*
X3983329Y3654653D01*
X3826052Y3641293D01*
X3712413Y3630929D01*
X3646881Y3625596D01*
X3406546Y3604971D01*
X3220872Y3588715D01*
X3132388Y3588715D01*
X3153105Y3568192D01*
X3209950Y3571087D01*
X3244900Y3574034D01*
X3292957Y3578758D01*
X3454603Y3592474D01*
X3507079Y3596741D01*
X3533292Y3599535D01*
X3607562Y3605276D01*
X3651250Y3609797D01*
X3686200Y3612387D01*
X3843528Y3625494D01*
X3965854Y3636314D01*
X4013911Y3640988D01*
X4092600Y3647135D01*
X4106926Y3654399D01*
X4157014Y3712311D01*
X4198416Y3758895D01*
X4279544Y3852062D01*
X4327550Y3906367D01*
X4492701Y4095292D01*
X4588814Y4203954D01*
X4642561Y4267047D01*
X4617821Y4304893D01*
X4602632Y4325569D01*
X4587798Y4348886D01*
X4574540Y4367022D01*
X4567834Y4377334D01*
X4557928Y4391558D01*
X4550105Y4403242D01*
X4536846Y4421327D01*
X4513326Y4457547D01*
X4500981Y4474057D01*
X4465421Y4527448D01*
X4440682Y4561078D01*
X4377994Y4654245D01*
X4224121Y4768088D01*
X4212640Y4774996D01*
X4188764Y4793996D01*
X4183938Y4796536D01*
X4075125Y4876749D01*
X4065015Y4884521D01*
X4018026Y4918202D01*
X3944823Y4972507D01*
G37*
G36*
X7603540Y4981600D02*
G01*
X7603540Y4979009D01*
X7607909Y4979009D01*
X7607909Y4981600D01*
G37*
G36*
X7039864Y4976418D02*
G01*
X7039864Y4971237D01*
X7049109Y4971237D01*
X7043724Y4976418D01*
G37*
G36*
X8870746Y4971237D02*
G01*
X8870746Y4968646D01*
X8875115Y4968646D01*
X8875115Y4971237D01*
G37*
G36*
X7048601Y4968646D02*
G01*
X7048601Y4966055D01*
X7052970Y4966055D01*
X7052970Y4968646D01*
G37*
G36*
X7660335Y4953101D02*
G01*
X7660335Y4950510D01*
X7664754Y4950510D01*
X7664754Y4953101D01*
G37*
G36*
X7083552Y4947920D02*
G01*
X7083552Y4945380D01*
X7087920Y4945380D01*
X7087920Y4947920D01*
G37*
G36*
X7695336Y4929835D02*
G01*
X7695336Y4927244D01*
X7699705Y4927244D01*
X7699705Y4929835D01*
G37*
G36*
X8101685Y4854803D02*
G01*
X8101685Y4852212D01*
X8106054Y4852212D01*
X8106054Y4854803D01*
G37*
G36*
X7533640Y4852212D02*
G01*
X7533640Y4849622D01*
X7538008Y4849622D01*
X7538008Y4852212D01*
G37*
G36*
X7590434Y4831486D02*
G01*
X7590434Y4828895D01*
X7594803Y4828895D01*
X7594803Y4831486D01*
G37*
G36*
X7637068Y4810810D02*
G01*
X7642859Y4807356D01*
X7648702Y4810810D01*
G37*
G36*
X7870088Y4805629D02*
G01*
X7870088Y4803038D01*
X7874457Y4803038D01*
X7874457Y4805629D01*
G37*
G36*
X7345730Y4790084D02*
G01*
X7345730Y4787493D01*
X7350099Y4787493D01*
X7350099Y4790084D01*
G37*
G36*
X7826400Y4738319D02*
G01*
X7826400Y4735728D01*
X7830769Y4735728D01*
X7830769Y4738319D01*
G37*
G36*
X7953146Y4733137D02*
G01*
X7953146Y4730546D01*
X7957515Y4730546D01*
X7957515Y4733137D01*
G37*
G36*
X7789976Y4704689D02*
G01*
X7795818Y4701235D01*
X7801660Y4704689D01*
G37*
G36*
X8062366Y4700371D02*
G01*
X8056524Y4696917D01*
X8062366Y4693462D01*
G37*
G36*
X8123529Y4645202D02*
G01*
X8123529Y4642612D01*
X8127898Y4642612D01*
X8127898Y4645202D01*
G37*
G36*
X6731304Y4637430D02*
G01*
X6714337Y4627829D01*
X6679390Y4606340D01*
X6842150Y4606340D01*
X6858558Y4605883D01*
X6963409Y4593691D01*
X7007098Y4588256D01*
X7238695Y4561941D01*
X7273645Y4557471D01*
X7369759Y4546650D01*
X7404760Y4541977D01*
X7505242Y4530953D01*
X7548930Y4525873D01*
X7583881Y4521200D01*
X7728102Y4505299D01*
X7763052Y4500524D01*
X7863535Y4489704D01*
X7907223Y4484268D01*
X7937804Y4480204D01*
X8049259Y4467961D01*
X8049259Y4464405D01*
X8003387Y4459274D01*
X7898485Y4448251D01*
X7859166Y4443730D01*
X7802372Y4437786D01*
X7763052Y4433316D01*
X7701889Y4427321D01*
X7666888Y4423003D01*
X7513980Y4406849D01*
X7477353Y4401921D01*
X7447991Y4401921D01*
X7439710Y4406392D01*
X7391653Y4421886D01*
X7269276Y4462170D01*
X7212482Y4481474D01*
X7151319Y4501083D01*
X7128103Y4510633D01*
X7124192Y4510633D01*
X6990130Y4555083D01*
X6932828Y4573727D01*
X6860031Y4598619D01*
X6853072Y4598619D01*
X6842150Y4606340D01*
X6679390Y4606340D01*
X6529984Y4514494D01*
X6506108Y4498949D01*
X6316726Y4382516D01*
X6251143Y4341418D01*
X6131509Y4268673D01*
X6125783Y4264863D01*
X6168694Y4264863D01*
X6203086Y4286453D01*
X6530797Y4488637D01*
X6640068Y4556506D01*
X6717792Y4603800D01*
X6723786Y4603800D01*
X6724129Y4601616D01*
X6781393Y4601616D01*
X6784238Y4602937D01*
X6876034Y4572355D01*
X6932828Y4553966D01*
X6989622Y4534611D01*
X7072630Y4507280D01*
X7154164Y4479544D01*
X7157161Y4479544D01*
X7232802Y4453686D01*
X7237323Y4453686D01*
X7260539Y4444034D01*
X7326071Y4423410D01*
X7369759Y4408068D01*
X7398207Y4400651D01*
X7398207Y4394250D01*
X7378496Y4392066D01*
X7347396Y4389018D01*
X7513980Y4389120D01*
X7618831Y4399889D01*
X7662570Y4404055D01*
X7732471Y4412335D01*
X7780528Y4417212D01*
X7876641Y4427728D01*
X7977174Y4438294D01*
X8064550Y4448200D01*
X8098231Y4451451D01*
X8095132Y4446219D01*
X7885379Y4315358D01*
X7821980Y4276445D01*
X7815478Y4281627D01*
X7789265Y4290110D01*
X7527086Y4377080D01*
X7507478Y4382516D01*
X7507427Y4389018D01*
X7347396Y4389018D01*
X7317333Y4386072D01*
X7278014Y4381296D01*
X7151319Y4368088D01*
X7103211Y4362856D01*
X7037628Y4354830D01*
X7017410Y4356658D01*
X6988657Y4387697D01*
X6942632Y4434281D01*
X6925005Y4452416D01*
X6898487Y4480864D01*
X6849160Y4530039D01*
X6815937Y4566259D01*
X6809435Y4571441D01*
X6781393Y4601616D01*
X6724129Y4601616D01*
X6728003Y4576927D01*
X6758940Y4576927D01*
X6762800Y4583785D01*
X6777685Y4570323D01*
X6777685Y4567936D01*
X6822744Y4522266D01*
X6987438Y4352188D01*
X6987438Y4350867D01*
X6893509Y4340199D01*
X6836714Y4334306D01*
X6798513Y4329226D01*
X6795566Y4330954D01*
X6786930Y4377334D01*
X6777278Y4452416D01*
X6769303Y4501540D01*
X6758940Y4576927D01*
X6728003Y4576927D01*
X6734200Y4537811D01*
X6743039Y4475683D01*
X6751218Y4421327D01*
X6760464Y4354068D01*
X6764121Y4329887D01*
X6753656Y4325213D01*
X6692493Y4318812D01*
X6653174Y4314342D01*
X6543903Y4303268D01*
X6508953Y4298746D01*
X6456527Y4293311D01*
X6211824Y4266996D01*
X6173622Y4261967D01*
X6168694Y4264863D01*
X6125783Y4264863D01*
X6104788Y4250893D01*
X6104802Y4247388D01*
X6231483Y4247388D01*
X6231483Y4250994D01*
X6548272Y4285234D01*
X6653174Y4296054D01*
X6692493Y4300575D01*
X6749288Y4306366D01*
X6764629Y4309110D01*
X6765503Y4307484D01*
X6796633Y4307484D01*
X6803491Y4312869D01*
X6871665Y4319574D01*
X6919722Y4324705D01*
X6954672Y4329226D01*
X6989622Y4332325D01*
X7003897Y4334814D01*
X7009259Y4329480D01*
X7039254Y4329480D01*
X7042200Y4338523D01*
X7076998Y4341672D01*
X7181900Y4353102D01*
X7229957Y4357928D01*
X7422235Y4379010D01*
X7457186Y4381144D01*
X7496505Y4366666D01*
X7662265Y4311599D01*
X7736840Y4287164D01*
X7771790Y4275023D01*
X7799815Y4266539D01*
X7859166Y4266539D01*
X7859166Y4272076D01*
X7897875Y4297121D01*
X8107070Y4427829D01*
X8115706Y4427829D01*
X8109356Y4418736D01*
X8102650Y4400651D01*
X8067548Y4320438D01*
X8028635Y4229862D01*
X8022844Y4215638D01*
X8012988Y4215638D01*
X7946542Y4238193D01*
X7859166Y4266539D01*
X7799815Y4266539D01*
X7800492Y4266336D01*
X7798003Y4260189D01*
X7666888Y4178249D01*
X7591958Y4132072D01*
X7518349Y4138371D01*
X7470292Y4142892D01*
X7204456Y4165142D01*
X7189520Y4180687D01*
X7108291Y4263491D01*
X7076287Y4297121D01*
X7048601Y4324553D01*
X7048601Y4329480D01*
X7009259Y4329480D01*
X7023608Y4315256D01*
X7158431Y4176318D01*
X7163714Y4168241D01*
X7129475Y4171594D01*
X6972147Y4184853D01*
X6919722Y4189476D01*
X6845452Y4195368D01*
X6814820Y4198975D01*
X6804304Y4258310D01*
X6796633Y4307484D01*
X6765503Y4307484D01*
X6768236Y4302302D01*
X6774434Y4255719D01*
X6780479Y4206544D01*
X6773824Y4201972D01*
X6696862Y4208170D01*
X6640068Y4213250D01*
X6522059Y4223410D01*
X6399733Y4233265D01*
X6334201Y4239310D01*
X6277356Y4244187D01*
X6231483Y4247388D01*
X6104802Y4247388D01*
X6104839Y4245356D01*
X6123874Y4231132D01*
X6190437Y4231132D01*
X6233668Y4230522D01*
X6273038Y4226255D01*
X6587642Y4199788D01*
X6696862Y4189984D01*
X6771131Y4184091D01*
X6785152Y4181856D01*
X6785494Y4179366D01*
X6816140Y4179366D01*
X6841083Y4178960D01*
X6849821Y4176979D01*
X6915353Y4172051D01*
X7168134Y4150461D01*
X7187285Y4146143D01*
X7192594Y4140758D01*
X7227163Y4140758D01*
X7229957Y4144467D01*
X7282383Y4140860D01*
X7339177Y4135729D01*
X7406672Y4130090D01*
X7632903Y4130090D01*
X7666075Y4152239D01*
X7806181Y4239056D01*
X7827670Y4254449D01*
X7833106Y4254449D01*
X7867903Y4243476D01*
X7976933Y4207459D01*
X8049768Y4207459D01*
X8076031Y4268673D01*
X8102396Y4328160D01*
X8109712Y4346295D01*
X8128558Y4387697D01*
X8136483Y4408424D01*
X8148015Y4433925D01*
X8158480Y4436008D01*
X8158480Y4430776D01*
X8292896Y4267352D01*
X8445652Y4082237D01*
X8452104Y4070248D01*
X8435898Y4075379D01*
X8358784Y4101744D01*
X8355584Y4101744D01*
X8304885Y4119168D01*
X8265566Y4132072D01*
X8230565Y4143959D01*
X8053984Y4201363D01*
X8049768Y4207459D01*
X7976933Y4207459D01*
X8009890Y4196232D01*
X8009940Y4187393D01*
X7996072Y4157370D01*
X7972806Y4101185D01*
X7920329Y4104487D01*
X7867903Y4108653D01*
X7636306Y4128312D01*
X7632903Y4130090D01*
X7406672Y4130090D01*
X7527086Y4119879D01*
X7544562Y4117695D01*
X7564932Y4117289D01*
X7562037Y4112412D01*
X7483398Y4064000D01*
X7374788Y3995674D01*
X7368438Y3995674D01*
X7329627Y4035755D01*
X7305243Y4061663D01*
X7298842Y4066844D01*
X7277049Y4090111D01*
X7259574Y4108246D01*
X7227163Y4140758D01*
X7192594Y4140758D01*
X7229703Y4103065D01*
X7257135Y4074566D01*
X7284567Y4047185D01*
X7284567Y4044340D01*
X7300722Y4030573D01*
X7327036Y4002125D01*
X7346442Y3982872D01*
X7343546Y3975455D01*
X7342810Y3974998D01*
X7388758Y3974998D01*
X7391653Y3979773D01*
X7434986Y4007307D01*
X7571333Y4092701D01*
X7600594Y4112107D01*
X7637068Y4112107D01*
X7641742Y4109364D01*
X7706258Y4104843D01*
X7785166Y4098086D01*
X8003387Y4098086D01*
X8004962Y4105656D01*
X8032496Y4167733D01*
X8038693Y4183227D01*
X8051444Y4184497D01*
X8073288Y4174998D01*
X8181441Y4139641D01*
X8234984Y4121708D01*
X8274303Y4108805D01*
X8331098Y4089501D01*
X8392261Y4070045D01*
X8405368Y4062577D01*
X8383524Y4065473D01*
X8108238Y4088384D01*
X8003387Y4098086D01*
X7785166Y4098086D01*
X7867903Y4091127D01*
X7915960Y4086402D01*
X7957312Y4083354D01*
X7962036Y4078782D01*
X7896412Y3928364D01*
X7927797Y3928364D01*
X7934909Y3945178D01*
X7974279Y4035755D01*
X7987639Y4064254D01*
X7995107Y4079443D01*
X8003387Y4080408D01*
X8047075Y4075785D01*
X8379155Y4047236D01*
X8420658Y4044086D01*
X8420658Y4040276D01*
X8370417Y4028694D01*
X8344204Y4021988D01*
X8261197Y4003090D01*
X8243722Y3998722D01*
X7994650Y3940911D01*
X7950962Y3930396D01*
X7935264Y3925620D01*
X7927797Y3928364D01*
X7896412Y3928364D01*
X7891373Y3916832D01*
X7889748Y3916578D01*
X7867903Y3910736D01*
X7640675Y3857955D01*
X7603642Y3848150D01*
X7596987Y3848150D01*
X7532725Y3832656D01*
X7526731Y3832656D01*
X7495082Y3864965D01*
X7477861Y3883101D01*
X7388758Y3974998D01*
X7342810Y3974998D01*
X7132523Y3844442D01*
X7059523Y3873652D01*
X6932828Y3926078D01*
X6848652Y3959809D01*
X6838899Y4005072D01*
X6838899Y4027017D01*
X6830517Y4074566D01*
X6821627Y4136694D01*
X6816140Y4179366D01*
X6785494Y4179366D01*
X6790639Y4141876D01*
X6813905Y3980027D01*
X6809028Y3977132D01*
X6506311Y4100474D01*
X6491478Y4107230D01*
X6395364Y4146702D01*
X6198717Y4226814D01*
X6190437Y4231132D01*
X6123874Y4231132D01*
X6150660Y4211066D01*
X6161410Y4202684D01*
X6209030Y4202684D01*
X6220561Y4195876D01*
X6303619Y4163009D01*
X6307988Y4159961D01*
X6322060Y4154779D01*
X6417208Y4116425D01*
X6421577Y4113072D01*
X6543903Y4063847D01*
X6635699Y4025696D01*
X6743852Y3981450D01*
X6763410Y3973677D01*
X6816648Y3951630D01*
X6821002Y3934206D01*
X6849821Y3934206D01*
X6858558Y3935831D01*
X6902246Y3916426D01*
X7084568Y3841699D01*
X7101789Y3835806D01*
X7109951Y3830980D01*
X7162241Y3830980D01*
X7162241Y3836060D01*
X7208113Y3865016D01*
X7343546Y3949547D01*
X7350506Y3956761D01*
X7366863Y3961993D01*
X7390485Y3937457D01*
X7416901Y3908958D01*
X7423454Y3903776D01*
X7443165Y3883101D01*
X7469428Y3854653D01*
X7484414Y3841699D01*
X7498689Y3825138D01*
X7470292Y3817620D01*
X7448078Y3812438D01*
X7546746Y3812438D01*
X7546746Y3815892D01*
X7583017Y3825189D01*
X7684414Y3848709D01*
X7721447Y3858514D01*
X7728559Y3858514D01*
X7859166Y3889451D01*
X7874355Y3894734D01*
X7878825Y3894734D01*
X7878825Y3887571D01*
X7844586Y3808069D01*
X7822641Y3758895D01*
X7781899Y3665728D01*
X7760416Y3617366D01*
X7790840Y3617366D01*
X7809128Y3655364D01*
X7832090Y3707129D01*
X7838795Y3725265D01*
X7901838Y3867556D01*
X7908950Y3885692D01*
X7916062Y3903065D01*
X8060181Y3936644D01*
X8116976Y3949496D01*
X8143189Y3956456D01*
X8283041Y3988308D01*
X8300516Y3992524D01*
X8331098Y4000398D01*
X8392261Y4014266D01*
X8409736Y4018635D01*
X8431580Y4021886D01*
X8422843Y4017670D01*
X8348827Y3968496D01*
X8290966Y3932275D01*
X8252459Y3906418D01*
X8230565Y3893413D01*
X8196529Y3870147D01*
X8134451Y3831183D01*
X8091322Y3802887D01*
X8033969Y3766464D01*
X7950962Y3712768D01*
X7893558Y3676091D01*
X7850428Y3647948D01*
X7796275Y3614115D01*
X7790840Y3617366D01*
X7760416Y3617366D01*
X7753807Y3601059D01*
X7729778Y3623360D01*
X7694371Y3660546D01*
X7687818Y3665728D01*
X7661351Y3694176D01*
X7626705Y3730396D01*
X7546746Y3812438D01*
X7448078Y3812438D01*
X7297420Y3777284D01*
X7269276Y3786936D01*
X7264908Y3790187D01*
X7162241Y3830980D01*
X7109951Y3830980D01*
X7111492Y3830065D01*
X7028942Y3779570D01*
X6902246Y3700221D01*
X6899033Y3696868D01*
X6938822Y3696868D01*
X6975754Y3720084D01*
X7126376Y3813657D01*
X7136384Y3819702D01*
X7142581Y3819296D01*
X7251801Y3772712D01*
X7254189Y3766667D01*
X7229144Y3761486D01*
X7332624Y3761486D01*
X7332624Y3767582D01*
X7352284Y3770782D01*
X7391653Y3780485D01*
X7505242Y3806799D01*
X7518349Y3806596D01*
X7658150Y3661410D01*
X7693609Y3624326D01*
X7709408Y3610101D01*
X7696047Y3610101D01*
X7693152Y3614369D01*
X7611516Y3646728D01*
X7596987Y3653942D01*
X7516672Y3686454D01*
X7391653Y3737660D01*
X7332624Y3761486D01*
X7229144Y3761486D01*
X7195261Y3754475D01*
X7160056Y3745229D01*
X6947103Y3695242D01*
X6938822Y3696868D01*
X6899033Y3696868D01*
X6895236Y3692906D01*
X6883908Y3692906D01*
X6878167Y3740759D01*
X6869226Y3802887D01*
X6861352Y3859784D01*
X6851294Y3929583D01*
X6849821Y3934206D01*
X6821002Y3934206D01*
X6825945Y3896055D01*
X6834327Y3836517D01*
X6843014Y3771798D01*
X6847281Y3743350D01*
X6852361Y3703320D01*
X6841083Y3706114D01*
X6785914Y3751122D01*
X6751066Y3776979D01*
X6677914Y3833926D01*
X6593992Y3898646D01*
X6514134Y3960723D01*
X6487109Y3981450D01*
X6482283Y3984040D01*
X6409029Y4040936D01*
X6324803Y4105656D01*
X6255004Y4159961D01*
X6211824Y4192828D01*
X6199835Y4202684D01*
X6161410Y4202684D01*
X6224930Y4153103D01*
X6284315Y4108246D01*
X6294983Y4100474D01*
X6316573Y4082338D01*
X6395364Y4022344D01*
X6417208Y4005072D01*
X6435394Y3991762D01*
X6482537Y3955542D01*
X6552082Y3901186D01*
X6596125Y3867556D01*
X6686042Y3797706D01*
X6696862Y3789883D01*
X6760159Y3740759D01*
X6817868Y3696766D01*
X6850980Y3670757D01*
X6939280Y3670757D01*
X6941921Y3675430D01*
X7015835Y3692194D01*
X7037679Y3697579D01*
X7079132Y3708450D01*
X7088073Y3708450D01*
X7103211Y3713226D01*
X7282383Y3755034D01*
X7295489Y3754932D01*
X7614462Y3624579D01*
X7617409Y3620414D01*
X7626350Y3620414D01*
X7682687Y3595928D01*
X7673594Y3594150D01*
X7592618Y3602634D01*
X7544562Y3607257D01*
X7492136Y3612946D01*
X7395972Y3622751D01*
X7269276Y3636060D01*
X7146950Y3649167D01*
X7050786Y3659073D01*
X7033310Y3661460D01*
X6939280Y3670757D01*
X6850980Y3670757D01*
X6862216Y3661918D01*
X6877812Y3658971D01*
X7076998Y3638346D01*
X7120686Y3633622D01*
X7225588Y3622801D01*
X7273645Y3617620D01*
X7321702Y3612946D01*
X7422235Y3602024D01*
X7465923Y3597656D01*
X7568590Y3586784D01*
X7671308Y3576218D01*
X7714996Y3571189D01*
X7767421Y3568090D01*
X7832953Y3610914D01*
X7859166Y3627120D01*
X7897977Y3652774D01*
X7987436Y3709720D01*
X8005318Y3721963D01*
X8100314Y3782161D01*
X8147558Y3812997D01*
X8496300Y4037076D01*
X8508034Y4046982D01*
X8218982Y4398060D01*
X8156295Y4472940D01*
X8108238Y4479137D01*
X7994650Y4492548D01*
X7920329Y4500321D01*
X7881010Y4505604D01*
X7701889Y4525975D01*
X7658150Y4531360D01*
X7522718Y4546803D01*
X7479030Y4552188D01*
X7343546Y4567478D01*
X7299858Y4572863D01*
X7125106Y4593082D01*
X6937197Y4614316D01*
X6897878Y4619447D01*
X6749288Y4637024D01*
G37*
G36*
X1144930Y4471822D02*
G01*
X723646Y4349800D01*
X669036Y4333341D01*
X668985Y4313936D01*
X674014Y4313936D01*
X1016406Y4412742D01*
X1118006Y4443120D01*
X1122121Y4440682D01*
X1054658Y4320438D01*
X982624Y4188460D01*
X940968Y4113377D01*
X901446Y4040936D01*
X892606Y4027525D01*
X845972Y4031538D01*
X688695Y4047642D01*
X668985Y4050588D01*
X668985Y4030116D01*
X710590Y4025900D01*
X926337Y4025900D01*
X939190Y4046118D01*
X1080922Y4304893D01*
X1132179Y4397146D01*
X1132179Y4404512D01*
X1139596Y4404512D01*
X1142117Y4380433D01*
X1174699Y4380433D01*
X1179220Y4387697D01*
X1179992Y4386427D01*
X1219200Y4386427D01*
X1303210Y4313936D01*
X1350670Y4313936D01*
X1350670Y4311345D01*
X1346301Y4311345D01*
X1346301Y4313936D01*
X1303210Y4313936D01*
X1309235Y4308754D01*
X1357223Y4308602D01*
X1365961Y4302252D01*
X1413967Y4268673D01*
X1418386Y4266082D01*
X1475181Y4227271D01*
X1479600Y4224680D01*
X1658721Y4103065D01*
X1663090Y4100474D01*
X1719884Y4061663D01*
X1724253Y4059072D01*
X1781048Y4020261D01*
X1785416Y4017670D01*
X1833270Y3984040D01*
X1837893Y3981450D01*
X1894687Y3942638D01*
X1922983Y3924503D01*
X1923084Y3920032D01*
X1899056Y3923639D01*
X1855368Y3928059D01*
X1782368Y3935831D01*
X1780692Y3937457D01*
X1757019Y3956507D01*
X1653692Y4046118D01*
X1466443Y4207510D01*
X1375257Y4286758D01*
X1369923Y4289348D01*
X1350670Y4305706D01*
X1350670Y4308754D01*
X1309235Y4308754D01*
X1388973Y4240225D01*
X1484630Y4157370D01*
X1592681Y4064254D01*
X1665376Y4002125D01*
X1726844Y3948937D01*
X1732280Y3940505D01*
X1549501Y3959707D01*
X1497025Y3964533D01*
X1470812Y3968851D01*
X1437792Y4020261D01*
X1416964Y4056532D01*
X1402283Y4079748D01*
X1394815Y4090111D01*
X1381810Y4113377D01*
X1354277Y4157370D01*
X1347317Y4170324D01*
X1333754Y4191050D01*
X1223264Y4372152D01*
X1215796Y4386427D01*
X1179992Y4386427D01*
X1185468Y4377334D01*
X1198676Y4356658D01*
X1214526Y4328160D01*
X1241958Y4284167D01*
X1266850Y4242765D01*
X1312011Y4170324D01*
X1319276Y4157370D01*
X1346860Y4113377D01*
X1359865Y4090111D01*
X1367282Y4079748D01*
X1377746Y4061663D01*
X1385163Y4051300D01*
X1398422Y4028033D01*
X1424178Y3984904D01*
X1429308Y3981856D01*
X1429308Y3971798D01*
X1396542Y3975506D01*
X1344117Y3980535D01*
X1216101Y3993692D01*
X1210818Y4009237D01*
X1210868Y4046118D01*
X1202385Y4113377D01*
X1192936Y4206544D01*
X1174699Y4380433D01*
X1142117Y4380433D01*
X1171549Y4095292D01*
X1180541Y4000144D01*
X1175766Y3997299D01*
X1077569Y4008170D01*
X1012037Y4014165D01*
X977087Y4018686D01*
X937717Y4021683D01*
X926337Y4025900D01*
X710590Y4025900D01*
X771702Y4019245D01*
X832866Y4013047D01*
X880922Y4006951D01*
X879957Y4002125D01*
X799439Y3855923D01*
X795832Y3855923D01*
X741121Y3873144D01*
X674827Y3894734D01*
X668528Y3894734D01*
X671169Y3873601D01*
X753904Y3847388D01*
X829310Y3847388D01*
X843889Y3872737D01*
X894994Y3965905D01*
X914908Y4003446D01*
X942086Y4003040D01*
X950823Y4000957D01*
X1108151Y3985006D01*
X1183081Y3977030D01*
X1183797Y3970172D01*
X1217320Y3970172D01*
X1221028Y3972356D01*
X1243634Y3971848D01*
X1274216Y3967987D01*
X1335379Y3961688D01*
X1374698Y3957218D01*
X1442872Y3950614D01*
X1448168Y3946499D01*
X1497787Y3946499D01*
X1501952Y3944010D01*
X1558239Y3938981D01*
X1658721Y3928567D01*
X1750466Y3920083D01*
X1767941Y3915156D01*
X1770505Y3912870D01*
X1813864Y3912870D01*
X1881581Y3905300D01*
X1916531Y3902405D01*
X1932889Y3899357D01*
X1868474Y3864101D01*
X1854352Y3872737D01*
X1813864Y3907637D01*
X1813864Y3912870D01*
X1770505Y3912870D01*
X1841042Y3849878D01*
X1830747Y3844188D01*
X1888134Y3844188D01*
X1888134Y3849014D01*
X1929638Y3871264D01*
X1937207Y3871468D01*
X1931162Y3859784D01*
X1927521Y3852062D01*
X1993900Y3852062D01*
X1996490Y3853687D01*
X2003704Y3846880D01*
X2115362Y3718763D01*
X2278227Y3531158D01*
X2321712Y3481984D01*
X2339746Y3462629D01*
X2333802Y3459124D01*
X2330805Y3461308D01*
X2224532Y3554476D01*
X2128012Y3637279D01*
X2040889Y3713632D01*
X2007412Y3739845D01*
X2001316Y3792524D01*
X1993900Y3852062D01*
X1927521Y3852062D01*
X1916074Y3827627D01*
X1910740Y3824478D01*
X1888134Y3844188D01*
X1830747Y3844188D01*
X1737156Y3792524D01*
X1640433Y3739540D01*
X1618030Y3729126D01*
X1613865Y3729126D01*
X1609344Y3740759D01*
X1547825Y3841699D01*
X1520291Y3885692D01*
X1513128Y3898646D01*
X1486103Y3942130D01*
X1486103Y3946499D01*
X1448168Y3946499D01*
X1449832Y3945178D01*
X1503070Y3857193D01*
X1530350Y3813200D01*
X1556816Y3769258D01*
X1563979Y3756304D01*
X1590395Y3713835D01*
X1578531Y3707129D01*
X1630222Y3707129D01*
X1680870Y3735578D01*
X1742439Y3769258D01*
X1842820Y3823563D01*
X1861261Y3833114D01*
X1888896Y3810660D01*
X1896654Y3801821D01*
X1937105Y3801821D01*
X1953615Y3833926D01*
X1953666Y3842969D01*
X1961083Y3842969D01*
X1970328Y3776979D01*
X1968093Y3775608D01*
X1937105Y3801821D01*
X1896654Y3801821D01*
X1901901Y3795877D01*
X1893722Y3782161D01*
X1884934Y3764076D01*
X1822450Y3632098D01*
X1805381Y3597097D01*
X1787601Y3562096D01*
X1787601Y3554171D01*
X1776222Y3544925D01*
X1718614Y3563670D01*
X1701088Y3590696D01*
X1686306Y3613962D01*
X1673555Y3637279D01*
X1666138Y3647592D01*
X1655673Y3665728D01*
X1648409Y3676091D01*
X1630222Y3707129D01*
X1578531Y3707129D01*
X1532026Y3680815D01*
X1483969Y3655364D01*
X1469796Y3646322D01*
X1452930Y3646322D01*
X1444599Y3650945D01*
X1352854Y3679494D01*
X1261770Y3708450D01*
X1254760Y3708450D01*
X1242009Y3720084D01*
X1232611Y3820972D01*
X1223365Y3908958D01*
X1217320Y3970172D01*
X1183797Y3970172D01*
X1193444Y3877919D01*
X1209395Y3730396D01*
X1204061Y3726687D01*
X1181658Y3733546D01*
X1068832Y3769918D01*
X990193Y3794455D01*
X946454Y3808526D01*
X845972Y3840124D01*
X829310Y3847388D01*
X753904Y3847388D01*
X783945Y3837889D01*
X788111Y3835450D01*
X715924Y3703269D01*
X710488Y3703269D01*
X673354Y3723944D01*
X668985Y3723944D01*
X668985Y3699865D01*
X697783Y3683152D01*
X742492Y3683152D01*
X747776Y3699764D01*
X816254Y3823309D01*
X824230Y3824884D01*
X859078Y3814013D01*
X920242Y3794506D01*
X1007668Y3767175D01*
X1051356Y3753053D01*
X1121257Y3731107D01*
X1164945Y3716832D01*
X1209751Y3702608D01*
X1211839Y3690315D01*
X1252575Y3690315D01*
X1269847Y3683304D01*
X1414072Y3638194D01*
X1499209Y3638194D01*
X1520748Y3648201D01*
X1596542Y3690315D01*
X1604314Y3690315D01*
X1620977Y3665728D01*
X1643938Y3626916D01*
X1666493Y3588105D01*
X1673961Y3582466D01*
X1668373Y3579164D01*
X1612341Y3597401D01*
X1518920Y3626662D01*
X1499311Y3632098D01*
X1499209Y3638194D01*
X1414072Y3638194D01*
X1433626Y3632098D01*
X1433677Y3627983D01*
X1365961Y3590696D01*
X1268679Y3537661D01*
X1264361Y3537661D01*
X1258671Y3554476D01*
X1250340Y3655364D01*
X1244650Y3690315D01*
X1211839Y3690315D01*
X1215085Y3670909D01*
X1224432Y3577742D01*
X1230833Y3518204D01*
X1213646Y3508298D01*
X1262888Y3508298D01*
X1405280Y3585921D01*
X1453337Y3611372D01*
X1467510Y3620414D01*
X1470812Y3620363D01*
X1518920Y3604564D01*
X1619402Y3573018D01*
X1667459Y3557625D01*
X1689963Y3550665D01*
X1701304Y3532581D01*
X1736394Y3532581D01*
X1742135Y3534714D01*
X1811680Y3534664D01*
X1814525Y3544112D01*
X1923694Y3773119D01*
X1931111Y3773119D01*
X1949145Y3755796D01*
X1974799Y3736695D01*
X1979952Y3695496D01*
X2013407Y3695496D01*
X2017877Y3698138D01*
X2162759Y3572560D01*
X2170328Y3567379D01*
X2297270Y3457397D01*
X2342540Y3457397D01*
X2342540Y3454806D01*
X2338171Y3454806D01*
X2338171Y3457397D01*
X2297270Y3457397D01*
X2430322Y3342741D01*
X2435402Y3337814D01*
X2415540Y3341573D01*
X2375357Y3355543D01*
X2270455Y3388258D01*
X2213660Y3406343D01*
X2178710Y3417925D01*
X2093518Y3444544D01*
X2051964Y3458108D01*
X2042566Y3462477D01*
X2031898Y3551885D01*
X2023973Y3603599D01*
X2013407Y3695496D01*
X1979952Y3695496D01*
X1989074Y3621735D01*
X2007107Y3484575D01*
X2003907Y3472942D01*
X1982063Y3479749D01*
X1916531Y3500780D01*
X1850999Y3521303D01*
X1811680Y3534664D01*
X1742270Y3534664D01*
X1770837Y3523945D01*
X1765096Y3513074D01*
X1760372Y3501390D01*
X1754835Y3501390D01*
X1736394Y3532581D01*
X1701304Y3532581D01*
X1716836Y3507892D01*
X1744195Y3463086D01*
X1778863Y3463086D01*
X1778863Y3470808D01*
X1797812Y3510483D01*
X1803298Y3514344D01*
X1864106Y3495700D01*
X2008276Y3449116D01*
X2011527Y3447287D01*
X2013382Y3432810D01*
X2046630Y3432810D01*
X2051964Y3436315D01*
X2086965Y3424580D01*
X2226767Y3380384D01*
X2362555Y3337102D01*
X2438704Y3313937D01*
X2438704Y3310585D01*
X2379726Y3302711D01*
X2287930Y3291230D01*
X2091334Y3265322D01*
X2068474Y3262833D01*
X2062632Y3298291D01*
X2053742Y3370732D01*
X2046630Y3432810D01*
X2013382Y3432810D01*
X2019300Y3386277D01*
X2027885Y3313785D01*
X2033574Y3258565D01*
X1999538Y3253638D01*
X1947113Y3247237D01*
X1917903Y3242056D01*
X1911604Y3246526D01*
X1883156Y3293110D01*
X1867052Y3318967D01*
X1778863Y3463086D01*
X1744195Y3463086D01*
X1744319Y3462883D01*
X1735937Y3453536D01*
X1699006Y3373323D01*
X1682343Y3339693D01*
X1672742Y3318967D01*
X1661058Y3297123D01*
X1621931Y3211576D01*
X1655114Y3211576D01*
X1665224Y3230981D01*
X1718970Y3344824D01*
X1730654Y3366719D01*
X1749094Y3406952D01*
X1756359Y3424428D01*
X1765503Y3429812D01*
X1782673Y3399180D01*
X1810054Y3355187D01*
X1823008Y3331921D01*
X1830527Y3321558D01*
X1845462Y3298291D01*
X1852371Y3285337D01*
X1879396Y3241852D01*
X1879396Y3239770D01*
X2067052Y3239770D01*
X2084222Y3245256D01*
X2169972Y3255619D01*
X2248611Y3266033D01*
X2434336Y3289858D01*
X2434336Y3285744D01*
X2222398Y3153664D01*
X2142540Y3104184D01*
X2094077Y3073146D01*
X2089556Y3080918D01*
X2080006Y3161131D01*
X2071573Y3235452D01*
X2067052Y3239770D01*
X1879396Y3239770D01*
X1879396Y3238296D01*
X1758482Y3222650D01*
X1926691Y3222650D01*
X1938375Y3227019D01*
X1952548Y3227120D01*
X2021382Y3237382D01*
X2036978Y3237433D01*
X2040331Y3230981D01*
X2045462Y3174085D01*
X2053894Y3104184D01*
X2059787Y3051708D01*
X2046984Y3043580D01*
X2093010Y3043580D01*
X2116328Y3060192D01*
X2209292Y3117189D01*
X2386279Y3227527D01*
X2386126Y3223209D01*
X2366619Y3204006D01*
X2295652Y3135223D01*
X2250795Y3092145D01*
X2250795Y3089605D01*
X2224582Y3067050D01*
X2224582Y3063697D01*
X2199589Y3042107D01*
X2136190Y2979978D01*
X2118766Y2961843D01*
X2109927Y2955391D01*
X2103780Y2955391D01*
X2102256Y2992932D01*
X2093010Y3043580D01*
X2046984Y3043580D01*
X2041702Y3040227D01*
X2033371Y3043326D01*
X2028850Y3055010D01*
X1976120Y3140405D01*
X1940102Y3199942D01*
X1926691Y3222650D01*
X1758482Y3222650D01*
X1659280Y3209086D01*
X1655114Y3211576D01*
X1621931Y3211576D01*
X1618996Y3205124D01*
X1605178Y3205124D01*
X1540764Y3240735D01*
X1344625Y3350006D01*
X1276451Y3388817D01*
X1267510Y3481984D01*
X1262888Y3508298D01*
X1213646Y3508298D01*
X1140409Y3467760D01*
X1132890Y3467760D01*
X1098499Y3487165D01*
X912012Y3590696D01*
X888441Y3603599D01*
X759815Y3675989D01*
X742492Y3683152D01*
X697783Y3683152D01*
X703122Y3680053D01*
X668985Y3620211D01*
X668985Y3565042D01*
X676859Y3569970D01*
X705104Y3621735D01*
X722630Y3652774D01*
X730402Y3665067D01*
X780440Y3637584D01*
X863955Y3590696D01*
X916076Y3562197D01*
X1111859Y3452926D01*
X1110938Y3452418D01*
X1160576Y3452418D01*
X1226108Y3488436D01*
X1234897Y3488486D01*
X1237081Y3445764D01*
X1242314Y3410813D01*
X1234897Y3411067D01*
X1160576Y3452418D01*
X1110938Y3452418D01*
X1042720Y3414725D01*
X928979Y3352596D01*
X837234Y3303473D01*
X789178Y3276904D01*
X754227Y3258210D01*
X749300Y3258159D01*
X734771Y3274974D01*
X684326Y3329940D01*
X669442Y3342284D01*
X668985Y3300018D01*
X676198Y3298291D01*
X725830Y3243072D01*
X717331Y3238246D01*
X768248Y3238246D01*
X828802Y3272383D01*
X920242Y3321456D01*
X977087Y3353003D01*
X1025093Y3378504D01*
X1038250Y3386328D01*
X1129995Y3435400D01*
X1132890Y3439312D01*
X1138732Y3439210D01*
X1151839Y3430066D01*
X1245819Y3378809D01*
X1245819Y3356508D01*
X1288745Y3356508D01*
X1291742Y3352596D01*
X1497025Y3238804D01*
X1564792Y3200349D01*
X1564792Y3196945D01*
X1488287Y3187750D01*
X1461062Y3184093D01*
X1643329Y3184093D01*
X1651507Y3188970D01*
X1807260Y3208985D01*
X1889506Y3219348D01*
X1891995Y3219348D01*
X1896008Y3215487D01*
X1914956Y3184398D01*
X1931111Y3155950D01*
X1958797Y3111957D01*
X1983739Y3070555D01*
X2010968Y3026562D01*
X2012645Y3023158D01*
X2004496Y3018028D01*
X2049881Y3018028D01*
X2054707Y3022701D01*
X2067255Y3022701D01*
X2067255Y2999384D01*
X2063038Y2999384D01*
X2049881Y3018028D01*
X2004496Y3018028D01*
X1974189Y2999028D01*
X1926183Y3026562D01*
X1911553Y3034334D01*
X1781048Y3106724D01*
X1643329Y3184093D01*
X1461062Y3184093D01*
X1414018Y3178200D01*
X1331010Y3167329D01*
X1299616Y3164433D01*
X1293418Y3223209D01*
X1285697Y3303422D01*
X1279448Y3356508D01*
X1245819Y3356508D01*
X1245819Y3350920D01*
X1253998Y3290519D01*
X1263650Y3192170D01*
X1267460Y3160014D01*
X1234897Y3154934D01*
X1195527Y3149650D01*
X1148571Y3143656D01*
X1302156Y3143656D01*
X1326642Y3146399D01*
X1405280Y3157118D01*
X1488287Y3167837D01*
X1532026Y3173272D01*
X1566976Y3178098D01*
X1604111Y3181197D01*
X1604111Y3175609D01*
X1591564Y3148177D01*
X1542897Y3047238D01*
X1533194Y3026562D01*
X1526489Y3013608D01*
X1515465Y2990342D01*
X1504391Y2969615D01*
X1470812Y2969920D01*
X1374698Y2976422D01*
X1322273Y2979470D01*
X1315821Y2985160D01*
X1315618Y3021380D01*
X1307592Y3080918D01*
X1302156Y3143656D01*
X1148571Y3143656D01*
X990193Y3123438D01*
X955192Y3118612D01*
X892302Y3110687D01*
X883513Y3110687D01*
X868222Y3130092D01*
X845362Y3153359D01*
X768248Y3238246D01*
X717331Y3238246D01*
X677113Y3215487D01*
X668985Y3213760D01*
X668985Y3188309D01*
X675589Y3188512D01*
X736752Y3221939D01*
X746048Y3221939D01*
X805535Y3155950D01*
X836421Y3122320D01*
X848156Y3112109D01*
X848156Y3102914D01*
X823264Y3102914D01*
X797915Y3098393D01*
X754227Y3092907D01*
X668985Y3081375D01*
X668985Y3060903D01*
X688695Y3064205D01*
X811022Y3080105D01*
X868222Y3087827D01*
X868500Y3087522D01*
X904951Y3087522D01*
X904951Y3091891D01*
X942086Y3097225D01*
X990193Y3103168D01*
X1090676Y3116478D01*
X1243634Y3135833D01*
X1265732Y3139389D01*
X1272032Y3135680D01*
X1272032Y3100578D01*
X1280363Y3036925D01*
X1284224Y2983839D01*
X1249680Y2983839D01*
X1191158Y2988665D01*
X1095044Y2994304D01*
X1012037Y2999638D01*
X982878Y3003296D01*
X920953Y3070555D01*
X904951Y3087522D01*
X868500Y3087522D01*
X924052Y3026562D01*
X939901Y3009595D01*
X939901Y3004362D01*
X907135Y3006852D01*
X859078Y3009900D01*
X789178Y3014675D01*
X701802Y3020263D01*
X668985Y3022752D01*
X668985Y3002381D01*
X728014Y2999181D01*
X964437Y2983026D01*
X968348Y2978708D01*
X1004874Y2978708D01*
X1060094Y2978099D01*
X1103782Y2974136D01*
X1215412Y2967126D01*
X1540764Y2967126D01*
X1543608Y2977388D01*
X1596390Y3088690D01*
X1603095Y3101594D01*
X1613865Y3124911D01*
X1631696Y3159810D01*
X1638909Y3159810D01*
X1933041Y2995523D01*
X1949297Y2988716D01*
X1949297Y2985922D01*
X2000707Y2985922D01*
X2017014Y2999232D01*
X2028240Y2999384D01*
X2033168Y2990342D01*
X2050643Y2963367D01*
X2047544Y2957830D01*
X2000707Y2985922D01*
X1949297Y2985922D01*
X1949297Y2982468D01*
X1881581Y2942945D01*
X1824786Y2947212D01*
X1728622Y2953054D01*
X1663090Y2957677D01*
X1571345Y2963367D01*
X1540764Y2967126D01*
X1215412Y2967126D01*
X1287322Y2961741D01*
X1287667Y2958846D01*
X1322273Y2958846D01*
X1331010Y2959811D01*
X1387805Y2956001D01*
X1488287Y2949803D01*
X1494790Y2946095D01*
X1437030Y2824734D01*
X1429613Y2811780D01*
X1407160Y2762605D01*
X1371752Y2690164D01*
X1358392Y2659126D01*
X1350670Y2654198D01*
X1350670Y2677210D01*
X1342136Y2744520D01*
X1332788Y2842818D01*
X1324660Y2915310D01*
X1322273Y2958846D01*
X1287667Y2958846D01*
X1288897Y2948940D01*
X1298498Y2848000D01*
X1306830Y2772968D01*
X1315770Y2682392D01*
X1320596Y2639212D01*
X1311910Y2642362D01*
X1299921Y2656535D01*
X1262176Y2697937D01*
X1238199Y2723794D01*
X1087424Y2889402D01*
X1067816Y2910128D01*
X1004874Y2978708D01*
X968348Y2978708D01*
X1014120Y2928213D01*
X1104290Y2829915D01*
X1146606Y2783332D01*
X1166977Y2761284D01*
X1212189Y2710840D01*
X1218336Y2705709D01*
X1255674Y2664256D01*
X1285748Y2631440D01*
X1285489Y2631287D01*
X1376578Y2631287D01*
X1384706Y2643581D01*
X1395374Y2666847D01*
X1402080Y2679801D01*
X1446733Y2775559D01*
X1455013Y2791104D01*
X1499158Y2884220D01*
X1511706Y2910128D01*
X1528521Y2946349D01*
X1540764Y2946958D01*
X1588820Y2942742D01*
X1621499Y2940507D01*
X1931822Y2940507D01*
X1932025Y2943758D01*
X1973732Y2970936D01*
X1977694Y2970733D01*
X2043074Y2935020D01*
X2037283Y2931617D01*
X1992579Y2937306D01*
X1959152Y2937306D01*
X1931822Y2940507D01*
X1621499Y2940507D01*
X1663090Y2937611D01*
X1853184Y2925724D01*
X1853133Y2923032D01*
X1720189Y2840228D01*
X1623771Y2780436D01*
X1558137Y2739339D01*
X1454477Y2674823D01*
X1499666Y2674823D01*
X1552905Y2708249D01*
X1632559Y2757424D01*
X1859737Y2899410D01*
X1896618Y2921762D01*
X1934006Y2921152D01*
X1982063Y2916936D01*
X2041042Y2913583D01*
X2040686Y2907538D01*
X1978609Y2881630D01*
X1846630Y2823667D01*
X1837893Y2819450D01*
X1536395Y2687675D01*
X1532026Y2684729D01*
X1503121Y2672791D01*
X1499666Y2674823D01*
X1454477Y2674823D01*
X1404264Y2643581D01*
X1382014Y2628036D01*
X1376578Y2631287D01*
X1285489Y2631287D01*
X1281785Y2629103D01*
X1269847Y2635961D01*
X1239266Y2648508D01*
X1234897Y2651607D01*
X1204264Y2664053D01*
X1199896Y2666847D01*
X977087Y2767380D01*
X920242Y2793542D01*
X758596Y2866085D01*
X754227Y2868879D01*
X668985Y2906522D01*
X669137Y2881630D01*
X697433Y2870250D01*
X776071Y2833827D01*
X1102360Y2686507D01*
X1261110Y2615133D01*
X1265478Y2612288D01*
X1338884Y2580182D01*
X1346403Y2580182D01*
X2036673Y2882493D01*
X2107133Y2913583D01*
X2164384Y2969615D01*
X2179828Y2985160D01*
X2251862Y3055010D01*
X2269286Y3073146D01*
X2284730Y3086100D01*
X2302154Y3104184D01*
X2400757Y3199942D01*
X2450642Y3249117D01*
X2496159Y3292856D01*
X2509215Y3307740D01*
X2450592Y3375914D01*
X2380437Y3456127D01*
X2310942Y3536340D01*
X2249779Y3606190D01*
X2157882Y3712311D01*
X2092299Y3787343D01*
X1987499Y3908958D01*
X1942947Y3940048D01*
X1938375Y3942638D01*
X1881581Y3981399D01*
X1854454Y3999534D01*
X1782318Y4048709D01*
X1763572Y4061764D01*
X1706778Y4100474D01*
X1695602Y4107434D01*
X1584604Y4183278D01*
X1580032Y4185869D01*
X1523288Y4224680D01*
X1518869Y4227271D01*
X1462074Y4266031D01*
X1434947Y4284167D01*
X1362964Y4333341D01*
X1335379Y4351680D01*
X1226413Y4426508D01*
X1221740Y4429099D01*
X1164945Y4467910D01*
X1156208Y4471720D01*
G37*
G36*
X9611664Y4332071D02*
G01*
X8995257Y4153103D01*
X8887764Y4121658D01*
X8880500Y4113377D01*
X8892235Y4084929D01*
X8901734Y4059072D01*
X8911054Y4034840D01*
X8944203Y4034840D01*
X8948216Y4037228D01*
X8962491Y4024325D01*
X8962491Y4022191D01*
X9000286Y3981450D01*
X9068562Y3906367D01*
X9083852Y3890873D01*
X9129572Y3839514D01*
X9144558Y3823563D01*
X9217406Y3743350D01*
X9232747Y3727094D01*
X9278467Y3676091D01*
X9284766Y3670909D01*
X9326219Y3624326D01*
X9390075Y3555085D01*
X9442500Y3497529D01*
X9473742Y3463899D01*
X9510166Y3421938D01*
X9450781Y3313785D01*
X9387738Y3199942D01*
X9318904Y3074416D01*
X9313062Y3074416D01*
X9308896Y3088690D01*
X9280448Y3161131D01*
X9250984Y3237433D01*
X9221317Y3316376D01*
X9201962Y3365550D01*
X9186468Y3406952D01*
X9166809Y3456127D01*
X9142679Y3520795D01*
X9115044Y3593287D01*
X9093555Y3647592D01*
X9014307Y3854653D01*
X8998000Y3896055D01*
X8975801Y3953459D01*
X8962390Y3991101D01*
X8944203Y4034840D01*
X8911054Y4034840D01*
X8935821Y3970426D01*
X8963101Y3898646D01*
X8980474Y3854653D01*
X9001810Y3798976D01*
X9015476Y3764076D01*
X9023959Y3740759D01*
X9045143Y3686454D01*
X9063380Y3637279D01*
X9084868Y3582924D01*
X9102344Y3537661D01*
X9120428Y3489756D01*
X9136684Y3448354D01*
X9163913Y3375914D01*
X9181439Y3331921D01*
X9189313Y3311194D01*
X9202521Y3277565D01*
X9229445Y3205124D01*
X9250934Y3150768D01*
X9268358Y3105505D01*
X9286494Y3057601D01*
X9298635Y3027273D01*
X9311284Y3021380D01*
X9397288Y2982671D01*
X9401657Y2979877D01*
X9611360Y2885541D01*
X9617913Y2885541D01*
X9617862Y2907538D01*
X9545828Y2939237D01*
X9440976Y2986887D01*
X9377629Y3015386D01*
X9377629Y3020415D01*
X9384182Y3017977D01*
X9515246Y3009646D01*
X9617913Y3002280D01*
X9617913Y3022346D01*
X9502140Y3030220D01*
X9440316Y3033471D01*
X9428327Y3037840D01*
X9497771Y3046222D01*
X9572040Y3056077D01*
X9617913Y3062478D01*
X9617913Y3082544D01*
X9602622Y3079699D01*
X9519615Y3069285D01*
X9377629Y3050489D01*
X9377629Y3056026D01*
X9395663Y3063494D01*
X9445548Y3091230D01*
X9601454Y3176574D01*
X9617913Y3183432D01*
X9617913Y3209442D01*
X9610191Y3207715D01*
X9515348Y3155950D01*
X9454235Y3122320D01*
X9440926Y3114548D01*
X9350908Y3065932D01*
X9356750Y3080918D01*
X9389821Y3140405D01*
X9487763Y3318967D01*
X9531451Y3396589D01*
X9533788Y3398113D01*
X9557867Y3370732D01*
X9615779Y3308604D01*
X9618319Y3349244D01*
X9610140Y3355187D01*
X9593224Y3373323D01*
X9555632Y3414725D01*
X9548012Y3419652D01*
X9548012Y3429254D01*
X9592818Y3510483D01*
X9615525Y3546703D01*
X9618421Y3611372D01*
X9610750Y3606190D01*
X9568789Y3528568D01*
X9530537Y3460242D01*
X9530537Y3452215D01*
X9522866Y3452215D01*
X9514332Y3458718D01*
X9459366Y3520795D01*
X9453118Y3525977D01*
X9385198Y3601059D01*
X9361373Y3626916D01*
X9310776Y3683863D01*
X9304578Y3688994D01*
X9271609Y3725265D01*
X9247581Y3751122D01*
X9210548Y3792524D01*
X9190786Y3813200D01*
X9112656Y3899255D01*
X9057538Y3959453D01*
X8966454Y4058412D01*
X8970111Y4060545D01*
X9000185Y4043527D01*
X9126372Y3973728D01*
X9218218Y3921912D01*
X9414560Y3813200D01*
X9493402Y3768801D01*
X9611360Y3703421D01*
X9617913Y3703269D01*
X9617913Y3727246D01*
X9598660Y3737101D01*
X9126372Y3999534D01*
X9056420Y4038854D01*
X9008364Y4065473D01*
X9021927Y4065524D01*
X9030208Y4060850D01*
X9060891Y4050792D01*
X9232341Y3996639D01*
X9617913Y3874160D01*
X9617913Y3896817D01*
X9563303Y3913581D01*
X9419132Y3959402D01*
X9368891Y3975608D01*
X9261805Y4009237D01*
X9010548Y4089247D01*
X9010548Y4092092D01*
X9043314Y4089146D01*
X9095790Y4083405D01*
X9143847Y4078732D01*
X9502140Y4041952D01*
X9550196Y4036872D01*
X9602622Y4031691D01*
X9617913Y4028948D01*
X9617913Y4049369D01*
X9589516Y4052874D01*
X9489033Y4063237D01*
X9440976Y4067860D01*
X9388551Y4073550D01*
X9340443Y4078224D01*
X9288018Y4083913D01*
X9235592Y4089044D01*
X9137294Y4099153D01*
X9087053Y4104081D01*
X8958122Y4117848D01*
X8958580Y4121150D01*
X9034576Y4142790D01*
X9288018Y4216247D01*
X9589516Y4304182D01*
X9617913Y4311446D01*
X9617913Y4332071D01*
G37*
G36*
X5503976Y4173982D02*
G01*
X5469026Y4171594D01*
X5165344Y4161282D01*
X4735830Y4146092D01*
X4723638Y4138879D01*
X4717677Y4128312D01*
X4855057Y4128312D01*
X4855057Y4131818D01*
X5005832Y4137964D01*
X5163159Y4143248D01*
X5298592Y4148226D01*
X5390337Y4151020D01*
X5427472Y4154119D01*
X5427472Y4149344D01*
X5329174Y4118051D01*
X5208879Y4078274D01*
X5167528Y4083304D01*
X5062626Y4098899D01*
X5023307Y4104284D01*
X4988356Y4109872D01*
X4883505Y4125112D01*
X4855057Y4128312D01*
X4717677Y4128312D01*
X4708535Y4112107D01*
X4780788Y4112107D01*
X4791710Y4111751D01*
X4805699Y4106926D01*
X4881321Y4106926D01*
X4892243Y4106316D01*
X5097576Y4075734D01*
X5124725Y4071315D01*
X5257088Y4071315D01*
X5257139Y4074566D01*
X5276748Y4080052D01*
X5425287Y4128515D01*
X5480050Y4145737D01*
X5484317Y4145737D01*
X5484317Y4139285D01*
X5466435Y4064254D01*
X5459984Y4040936D01*
X5447182Y4042054D01*
X5412181Y4046982D01*
X5281117Y4066133D01*
X5257088Y4071315D01*
X5124725Y4071315D01*
X5160924Y4065117D01*
X5160365Y4061663D01*
X5086553Y4039463D01*
X4966512Y4076903D01*
X4881321Y4102557D01*
X4881321Y4106926D01*
X4805699Y4106926D01*
X4817922Y4102709D01*
X4940300Y4064812D01*
X5023307Y4038752D01*
X5047335Y4031487D01*
X5125466Y4031487D01*
X5206847Y4057700D01*
X5219954Y4057396D01*
X5355386Y4036923D01*
X5364124Y4035755D01*
X5491988Y4035755D01*
X5497474Y4069435D01*
X5511444Y4127652D01*
X5517692Y4127652D01*
X5538368Y4100474D01*
X5563899Y4068013D01*
X5597144Y4068013D01*
X5600395Y4073804D01*
X5617565Y4059834D01*
X5676544Y4013758D01*
X5676544Y4008577D01*
X5669127Y4008577D01*
X5641136Y4014368D01*
X5597144Y4068013D01*
X5563899Y4068013D01*
X5589320Y4035755D01*
X5597906Y4026763D01*
X5597906Y4018381D01*
X5582615Y4022039D01*
X5530189Y4029608D01*
X5491988Y4035755D01*
X5364124Y4035755D01*
X5390337Y4032300D01*
X5451551Y4023106D01*
X5457901Y4017670D01*
X5453126Y4008628D01*
X5450128Y3996944D01*
X5445348Y3976319D01*
X5476138Y3976319D01*
X5485638Y4016349D01*
X5499608Y4016044D01*
X5617210Y3998214D01*
X5625134Y3993540D01*
X5619953Y3988562D01*
X5578246Y3985768D01*
X5499367Y3976878D01*
X5671718Y3976878D01*
X5689650Y3979672D01*
X5694426Y3975049D01*
X5684977Y3964635D01*
X5676544Y3964635D01*
X5676544Y3969359D01*
X5671718Y3976878D01*
X5499367Y3976878D01*
X5479084Y3974592D01*
X5476138Y3976319D01*
X5445348Y3976319D01*
X5444439Y3972407D01*
X5429656Y3967886D01*
X5394706Y3964940D01*
X5343448Y3959606D01*
X5233060Y3994048D01*
X5128514Y4026154D01*
X5125466Y4031487D01*
X5047335Y4031487D01*
X5047335Y4024731D01*
X5032044Y4021836D01*
X4975250Y4002938D01*
X4902708Y3979672D01*
X4892090Y3982110D01*
X4856886Y4022851D01*
X4780788Y4108856D01*
X4780788Y4112107D01*
X4708535Y4112107D01*
X4601260Y3921912D01*
X4593996Y3911549D01*
X4581729Y3889552D01*
X4613808Y3889552D01*
X4618786Y3897274D01*
X4738776Y4109516D01*
X4748022Y4109465D01*
X4762754Y4090111D01*
X4833823Y4009898D01*
X4869180Y3969512D01*
X4865979Y3967734D01*
X4842545Y3960114D01*
X4911293Y3960114D01*
X4918456Y3964330D01*
X4957775Y3976827D01*
X4997094Y3989781D01*
X5086959Y4018940D01*
X5088839Y4018889D01*
X5176266Y3991152D01*
X5283962Y3957574D01*
X5283657Y3952951D01*
X5187701Y3942079D01*
X5396890Y3942079D01*
X5396890Y3946194D01*
X5403443Y3948480D01*
X5441492Y3952240D01*
X5439356Y3946347D01*
X5466384Y3946347D01*
X5474766Y3955643D01*
X5538927Y3962247D01*
X5619242Y3972356D01*
X5639714Y3972356D01*
X5667451Y3939082D01*
X5666340Y3937457D01*
X5702604Y3937457D01*
X5702808Y3943654D01*
X5712917Y3956862D01*
X5719114Y3956862D01*
X5724448Y3937457D01*
X5733440Y3914140D01*
X5738876Y3897325D01*
X5731205Y3897376D01*
X5702604Y3937457D01*
X5666340Y3937457D01*
X5645099Y3906367D01*
X5624118Y3879037D01*
X5624118Y3874058D01*
X5617565Y3874211D01*
X5469026Y3920185D01*
X5466384Y3946347D01*
X5439356Y3946347D01*
X5435193Y3934866D01*
X5431942Y3932732D01*
X5396890Y3942079D01*
X5187701Y3942079D01*
X4966512Y3917899D01*
X4950510Y3916730D01*
X4911293Y3960114D01*
X4842545Y3960114D01*
X4638802Y3894277D01*
X4633096Y3891026D01*
X4691227Y3891026D01*
X4717440Y3899103D01*
X4769866Y3916070D01*
X4804816Y3927805D01*
X4865979Y3946855D01*
X4874310Y3951681D01*
X4885944Y3951681D01*
X4891684Y3942638D01*
X4916728Y3917340D01*
X4912918Y3911447D01*
X4835702Y3904437D01*
X4813554Y3900525D01*
X4769720Y3896106D01*
X4968697Y3896106D01*
X4968697Y3899103D01*
X5014569Y3905046D01*
X5110683Y3915410D01*
X5150002Y3920185D01*
X5206847Y3926179D01*
X5246166Y3930650D01*
X5307330Y3936746D01*
X5332679Y3941318D01*
X5337911Y3941114D01*
X5420918Y3915105D01*
X5431231Y3908958D01*
X5424017Y3883101D01*
X5413065Y3838295D01*
X5444286Y3838295D01*
X5449773Y3864965D01*
X5459272Y3902506D01*
X5464657Y3902201D01*
X5543296Y3876801D01*
X5579659Y3865676D01*
X5648909Y3865676D01*
X5669178Y3896055D01*
X5676544Y3900932D01*
X5676544Y3910279D01*
X5689498Y3910279D01*
X5747613Y3837635D01*
X5743092Y3834942D01*
X5665317Y3859784D01*
X5648909Y3865676D01*
X5579659Y3865676D01*
X5606643Y3857447D01*
X5606643Y3851706D01*
X5590459Y3831844D01*
X5623712Y3831844D01*
X5634278Y3845560D01*
X5648147Y3845204D01*
X5696204Y3830015D01*
X5696204Y3826205D01*
X5630672Y3827881D01*
X5623712Y3831844D01*
X5590459Y3831844D01*
X5588762Y3829761D01*
X5552033Y3832453D01*
X5460288Y3835501D01*
X5444286Y3838295D01*
X5413065Y3838295D01*
X5412790Y3837178D01*
X5359755Y3840581D01*
X5141264Y3850487D01*
X5006136Y3856329D01*
X4999990Y3858564D01*
X4968697Y3896106D01*
X4769720Y3896106D01*
X4752390Y3894378D01*
X4708296Y3888994D01*
X4691227Y3891026D01*
X4633096Y3891026D01*
X4630470Y3889552D01*
X4581729Y3889552D01*
X4570933Y3870147D01*
X4570953Y3868877D01*
X4717897Y3868877D01*
X4726178Y3873550D01*
X4809185Y3882339D01*
X4900980Y3892448D01*
X4931918Y3895293D01*
X4940706Y3888282D01*
X4965192Y3860749D01*
X4960416Y3857904D01*
X4839766Y3863949D01*
X4754270Y3868877D01*
X4570953Y3868877D01*
X4571034Y3863644D01*
X4584168Y3855923D01*
X4636617Y3855923D01*
X4643170Y3855161D01*
X4969713Y3840530D01*
X4984332Y3837787D01*
X5059019Y3837787D01*
X5062626Y3835704D01*
X5198110Y3829964D01*
X5316067Y3824478D01*
X5403443Y3820972D01*
X5403240Y3789934D01*
X5391962Y3743350D01*
X5384139Y3709720D01*
X5375656Y3676091D01*
X5357012Y3593287D01*
X5348782Y3559657D01*
X5342993Y3534410D01*
X5370322Y3534410D01*
X5378856Y3557066D01*
X5388152Y3597148D01*
X5396534Y3634689D01*
X5423662Y3751122D01*
X5431891Y3783482D01*
X5441594Y3817112D01*
X5508345Y3816400D01*
X5572302Y3812438D01*
X5576671Y3809847D01*
X5557774Y3784752D01*
X5545480Y3769715D01*
X5545480Y3765499D01*
X5519267Y3731564D01*
X5519267Y3729482D01*
X5466638Y3655364D01*
X5440629Y3620515D01*
X5440629Y3617823D01*
X5422087Y3593287D01*
X5410758Y3577742D01*
X5395620Y3554476D01*
X5388152Y3549548D01*
X5387898Y3541522D01*
X5376314Y3532479D01*
X5414365Y3532479D01*
X5414365Y3537508D01*
X5435447Y3564788D01*
X5463133Y3606190D01*
X5487873Y3639870D01*
X5528259Y3696766D01*
X5554218Y3731666D01*
X5554218Y3733647D01*
X5569102Y3753713D01*
X5608828Y3810558D01*
X5621934Y3811117D01*
X5747969Y3805478D01*
X5750915Y3800195D01*
X5671718Y3736898D01*
X5621985Y3696766D01*
X5508345Y3605631D01*
X5442102Y3551885D01*
X5420918Y3532530D01*
X5376314Y3532479D01*
X5375148Y3531565D01*
X5370322Y3534410D01*
X5342993Y3534410D01*
X5339892Y3520795D01*
X5334508Y3488283D01*
X5324906Y3490163D01*
X5300014Y3518204D01*
X5120538Y3722674D01*
X5078933Y3769258D01*
X5021122Y3835196D01*
X5021122Y3837787D01*
X4984597Y3837736D01*
X5004765Y3815791D01*
X5138521Y3662476D01*
X5172811Y3624326D01*
X5279288Y3503371D01*
X5274360Y3500424D01*
X5202326Y3541522D01*
X5154422Y3567023D01*
X5088686Y3603599D01*
X4988356Y3657904D01*
X4931562Y3689350D01*
X4875225Y3720084D01*
X4847793Y3735578D01*
X4790998Y3766667D01*
X4704689Y3813200D01*
X4644491Y3846880D01*
X4636617Y3848608D01*
X4636617Y3855923D01*
X4584168Y3855923D01*
X4595215Y3849471D01*
X4665167Y3810660D01*
X4726381Y3776979D01*
X4808626Y3732987D01*
X4839868Y3714902D01*
X4949037Y3655364D01*
X4953406Y3652774D01*
X5053888Y3598418D01*
X5067147Y3590696D01*
X5232958Y3500120D01*
X5333542Y3444544D01*
X5344210Y3444494D01*
X5383682Y3474212D01*
X5522061Y3585514D01*
X5643118Y3683863D01*
X5791454Y3802887D01*
X5799886Y3809288D01*
X5778195Y3875328D01*
X5755132Y3942638D01*
X5747207Y3963314D01*
X5736386Y3994353D01*
X5683554Y4038346D01*
X5678322Y4040936D01*
X5657342Y4059072D01*
X5652262Y4061663D01*
X5594197Y4108246D01*
X5515152Y4171137D01*
G37*
G36*
X4497019Y3535070D02*
G01*
X4062018Y3410254D01*
X3764889Y3325469D01*
X3419652Y3226511D01*
X3310432Y3195523D01*
X3013303Y3110026D01*
X2921508Y3084271D01*
X2606903Y2994050D01*
X2591358Y2987040D01*
X2591823Y2983839D01*
X2657195Y2983839D01*
X2657195Y2988513D01*
X3030778Y3095752D01*
X3113786Y3119069D01*
X3410915Y3204413D01*
X3520186Y3235401D01*
X3769258Y3306724D01*
X3935272Y3354527D01*
X4053281Y3388258D01*
X4175607Y3422954D01*
X4302302Y3459429D01*
X4449114Y3501390D01*
X4453737Y3501390D01*
X4450892Y3494938D01*
X4449527Y3493668D01*
X4522673Y3493668D01*
X4559655Y3461308D01*
X4568850Y3455517D01*
X4616958Y3415233D01*
X4655667Y3383686D01*
X4716881Y3334512D01*
X4741926Y3313785D01*
X4846675Y3228390D01*
X4882642Y3197352D01*
X4928108Y3161131D01*
X5004104Y3099003D01*
X5040122Y3067964D01*
X5045405Y3065373D01*
X5110683Y3011017D01*
X5163159Y2968498D01*
X5219954Y2921304D01*
X5233060Y2911754D01*
X5274259Y2876448D01*
X5401818Y2772968D01*
X5420563Y2758338D01*
X5447182Y2735732D01*
X5763971Y2476550D01*
X5763971Y2471470D01*
X5760008Y2471470D01*
X5683097Y2484120D01*
X5621934Y2494432D01*
X5538927Y2507691D01*
X4994910Y2598318D01*
X4966512Y2602788D01*
X4726178Y2642260D01*
X4699965Y2647289D01*
X4557928Y2670759D01*
X4526280Y2675534D01*
X4517136Y2680919D01*
X4513072Y3493668D01*
X4449527Y3493668D01*
X4407204Y3454298D01*
X4311040Y3363671D01*
X4260799Y3317544D01*
X4260799Y3314852D01*
X4217111Y3276498D01*
X4217111Y3273399D01*
X4183481Y3243935D01*
X4148632Y3210306D01*
X4061206Y3127502D01*
X4005986Y3075736D01*
X3962450Y3034334D01*
X3938676Y3011017D01*
X3866387Y2943758D01*
X3850640Y2927400D01*
X3811879Y2891993D01*
X3725519Y2810205D01*
X3694937Y2813304D01*
X3673094Y2817723D01*
X3598824Y2829306D01*
X3542029Y2839161D01*
X3319170Y2875788D01*
X3297326Y2880207D01*
X3209950Y2893974D01*
X3030778Y2923997D01*
X2965246Y2934462D01*
X2899664Y2945536D01*
X2746756Y2970580D01*
X2672486Y2983738D01*
X2591823Y2983839D01*
X2594424Y2965907D01*
X2655976Y2965907D01*
X2659380Y2967431D01*
X2681224Y2963113D01*
X2899664Y2926943D01*
X3083204Y2896209D01*
X3166211Y2882747D01*
X3227425Y2872232D01*
X3258007Y2867812D01*
X3405479Y2843072D01*
X3644750Y2803550D01*
X3758285Y2803550D01*
X3758285Y2808020D01*
X3781399Y2829915D01*
X3809492Y2855772D01*
X3909060Y2950057D01*
X3992067Y3027832D01*
X4000804Y3037230D01*
X4045254Y3078327D01*
X4091787Y3122320D01*
X4120997Y3149396D01*
X4120997Y3152444D01*
X4131919Y3159455D01*
X4175607Y3201924D01*
X4234586Y3255721D01*
X4234586Y3258464D01*
X4269536Y3288944D01*
X4269536Y3291992D01*
X4322013Y3338169D01*
X4322013Y3341319D01*
X4348226Y3363874D01*
X4348226Y3368344D01*
X4374388Y3386277D01*
X4366463Y3373323D01*
X4334306Y3331921D01*
X4296765Y3282746D01*
X4242308Y3212896D01*
X4204766Y3163722D01*
X4168292Y3117138D01*
X4150766Y3093821D01*
X4086047Y3012033D01*
X4086047Y3009341D01*
X4042359Y2954782D01*
X4042359Y2952699D01*
X4006900Y2908300D01*
X3986733Y2881630D01*
X3907332Y2779420D01*
X3899154Y2779420D01*
X3856634Y2787091D01*
X3791102Y2797657D01*
X3758285Y2803550D01*
X3644750Y2803550D01*
X3703675Y2793238D01*
X3701592Y2787345D01*
X3563010Y2656535D01*
X3499205Y2596997D01*
X3402177Y2504846D01*
X3384702Y2487676D01*
X3349751Y2456027D01*
X3340303Y2455976D01*
X3301695Y2486152D01*
X3162350Y2588564D01*
X2927705Y2762605D01*
X2915716Y2771190D01*
X2671927Y2951530D01*
X2655976Y2965907D01*
X2594424Y2965907D01*
X2599944Y2928213D01*
X2600598Y2921762D01*
X2676906Y2921762D01*
X2688691Y2910586D01*
X3160064Y2561894D01*
X3172307Y2553004D01*
X3266490Y2483154D01*
X3277260Y2475382D01*
X3325672Y2439162D01*
X3325723Y2435199D01*
X3369411Y2435199D01*
X3369411Y2440533D01*
X3398621Y2467610D01*
X3445052Y2511602D01*
X3491788Y2554274D01*
X3491788Y2556916D01*
X3538778Y2599588D01*
X3620668Y2677058D01*
X3629406Y2686304D01*
X3736594Y2787192D01*
X3751783Y2786634D01*
X3773627Y2782011D01*
X3806491Y2776626D01*
X3937152Y2776626D01*
X3946194Y2785922D01*
X3989882Y2841955D01*
X3989882Y2844038D01*
X4023969Y2886811D01*
X4059834Y2932633D01*
X4059834Y2934208D01*
X4097934Y2982569D01*
X4117543Y3008426D01*
X4141927Y3039516D01*
X4159554Y3062782D01*
X4196029Y3109366D01*
X4231436Y3155950D01*
X4269536Y3204311D01*
X4269536Y3205886D01*
X4303471Y3249117D01*
X4349140Y3308604D01*
X4373372Y3339693D01*
X4393133Y3365550D01*
X4421581Y3401771D01*
X4467148Y3461308D01*
X4480306Y3478123D01*
X4487875Y3478123D01*
X4488129Y2683713D01*
X4479747Y2683713D01*
X4400651Y2696616D01*
X4341672Y2706522D01*
X4289196Y2715006D01*
X4166870Y2735427D01*
X4022648Y2759100D01*
X3952240Y2771648D01*
X3942334Y2771648D01*
X3937152Y2776626D01*
X3806491Y2776626D01*
X3869740Y2766263D01*
X3893769Y2760675D01*
X3893769Y2759506D01*
X3858818Y2717139D01*
X3858818Y2715361D01*
X3816502Y2661666D01*
X3797655Y2637129D01*
X3779113Y2612542D01*
X3750360Y2576322D01*
X3731209Y2550414D01*
X3706825Y2519375D01*
X3617620Y2402941D01*
X3597198Y2377033D01*
X3563213Y2333040D01*
X3546906Y2311044D01*
X3537153Y2311044D01*
X3369411Y2435199D01*
X3325723Y2435199D01*
X3325723Y2433269D01*
X3272891Y2382215D01*
X3220872Y2333802D01*
X3220872Y2332024D01*
X3166211Y2282545D01*
X3131413Y2248966D01*
X3126841Y2248966D01*
X3107232Y2277414D01*
X3090926Y2302002D01*
X3081934Y2314956D01*
X3068675Y2333040D01*
X2944825Y2516784D01*
X2920085Y2550414D01*
X2861614Y2638399D01*
X2850184Y2653944D01*
X2805074Y2721203D01*
X2792628Y2736240D01*
X2792628Y2740660D01*
X2774289Y2765196D01*
X2767584Y2775559D01*
X2740152Y2814370D01*
X2740202Y2818130D01*
X2713990Y2852013D01*
X2713990Y2858617D01*
X2706573Y2863545D01*
X2677668Y2907538D01*
X2670302Y2912465D01*
X2670302Y2921762D01*
X2600598Y2921762D01*
X2600861Y2919171D01*
X2638247Y2919171D01*
X2644089Y2915716D01*
X2644089Y2906166D01*
X2660599Y2884220D01*
X2706370Y2816961D01*
X2717596Y2801416D01*
X2771444Y2721203D01*
X2783890Y2706166D01*
X2783890Y2701544D01*
X2801366Y2680106D01*
X2801366Y2675890D01*
X2819704Y2651353D01*
X2826359Y2640990D01*
X2839720Y2622651D01*
X2863342Y2586634D01*
X2874924Y2571140D01*
X2937560Y2477973D01*
X2948940Y2462428D01*
X3010255Y2371852D01*
X3107232Y2229713D01*
X3107232Y2226259D01*
X3142589Y2226259D01*
X3177133Y2256434D01*
X3177133Y2259584D01*
X3212134Y2290064D01*
X3212134Y2293010D01*
X3308248Y2380843D01*
X3308248Y2383586D01*
X3344672Y2415844D01*
X3350869Y2420162D01*
X3405124Y2380335D01*
X3526739Y2290165D01*
X3565347Y2290165D01*
X3571392Y2301443D01*
X3604361Y2343404D01*
X3712921Y2483764D01*
X3746042Y2527147D01*
X3798315Y2593594D01*
X3814064Y2615133D01*
X3837940Y2646172D01*
X3868420Y2684627D01*
X3902151Y2730042D01*
X3924503Y2756154D01*
X3939641Y2755798D01*
X3957116Y2751531D01*
X3996436Y2745079D01*
X4022648Y2740558D01*
X4306722Y2693924D01*
X4367885Y2683560D01*
X4394098Y2678785D01*
X4463999Y2668016D01*
X4488027Y2662377D01*
X4488027Y2657805D01*
X4518609Y2657805D01*
X4529531Y2657348D01*
X4586325Y2647391D01*
X4647539Y2637078D01*
X4820107Y2608732D01*
X5018938Y2575306D01*
X5088839Y2564434D01*
X5145633Y2554427D01*
X5246166Y2538171D01*
X5268010Y2534208D01*
X5458104Y2502814D01*
X5486501Y2497937D01*
X5652516Y2470962D01*
X5674360Y2466949D01*
X5744311Y2454960D01*
X5748426Y2453081D01*
X5735574Y2448306D01*
X5661253Y2434691D01*
X5534558Y2410053D01*
X5337911Y2372309D01*
X5185003Y2342692D01*
X4962144Y2300224D01*
X4887874Y2285746D01*
X4638802Y2237892D01*
X4525365Y2215743D01*
X4518609Y2218182D01*
X4518609Y2657805D01*
X4488027Y2657805D01*
X4488027Y2210358D01*
X4459630Y2202840D01*
X4289196Y2170785D01*
X4162501Y2146096D01*
X3939641Y2103424D01*
X3849928Y2085949D01*
X3841750Y2085949D01*
X3773271Y2136394D01*
X3756101Y2149856D01*
X3565347Y2290165D01*
X3526739Y2290165D01*
X3526739Y2285695D01*
X3470757Y2214016D01*
X3407562Y2131212D01*
X3369411Y2082850D01*
X3369411Y2081275D01*
X3304184Y1997964D01*
X3299561Y1997964D01*
X3281172Y2022500D01*
X3265678Y2045817D01*
X3234740Y2089810D01*
X3142589Y2226259D01*
X3107232Y2226259D01*
X3107232Y2225802D01*
X2949956Y2077770D01*
X2949956Y2072995D01*
X2941218Y2072995D01*
X2941218Y2067763D01*
X2862529Y1995424D01*
X2862529Y1992731D01*
X2807055Y1942287D01*
X2759862Y1898650D01*
X2751124Y1888388D01*
X2740202Y1886254D01*
X2740202Y1923389D01*
X2731820Y1983689D01*
X2713786Y2154478D01*
X2687929Y2389987D01*
X2678938Y2477973D01*
X2661615Y2633218D01*
X2652979Y2708249D01*
X2643936Y2804007D01*
X2635453Y2868726D01*
X2630779Y2919171D01*
X2600861Y2919171D01*
X2609392Y2835046D01*
X2644089Y2518054D01*
X2670048Y2278735D01*
X2679242Y2190750D01*
X2687574Y2120849D01*
X2696870Y2030272D01*
X2704896Y1968195D01*
X2713544Y1870100D01*
X2775153Y1870100D01*
X2775153Y1878330D01*
X2888742Y1985568D01*
X2888742Y1987194D01*
X2932480Y2026310D01*
X2932480Y2028850D01*
X2991459Y2082393D01*
X3028950Y2118258D01*
X3076092Y2162251D01*
X3116681Y2202383D01*
X3129076Y2202383D01*
X3129076Y2196693D01*
X3143097Y2177796D01*
X3150057Y2167432D01*
X3163062Y2149348D01*
X3169513Y2136394D01*
X3175762Y2131212D01*
X3204362Y2087219D01*
X3215741Y2071674D01*
X3260953Y2004415D01*
X3274185Y1987245D01*
X3334461Y1987245D01*
X3334461Y1995424D01*
X3342894Y2004415D01*
X3386886Y2060346D01*
X3386886Y2062124D01*
X3456787Y2151126D01*
X3456787Y2152751D01*
X3494938Y2201062D01*
X3546398Y2269490D01*
X3557015Y2269642D01*
X3566007Y2259685D01*
X3577386Y2252827D01*
X3790696Y2094992D01*
X3806393Y2084933D01*
X3806393Y2078075D01*
X3786733Y2073503D01*
X3732095Y2063089D01*
X3871925Y2063089D01*
X3871925Y2066543D01*
X3926535Y2077567D01*
X4483963Y2186025D01*
X4487976Y2182215D01*
X4488041Y1609801D01*
X4518558Y1609801D01*
X4520793Y2192680D01*
X4634433Y2215692D01*
X4660646Y2219858D01*
X4935931Y2274112D01*
X5600090Y2403551D01*
X5726836Y2428036D01*
X5750712Y2432304D01*
X5754624Y2428595D01*
X5713730Y2402636D01*
X5620969Y2340813D01*
X5447182Y2224379D01*
X5442661Y2221788D01*
X5375046Y2176475D01*
X5372862Y2175205D01*
X5316067Y2136394D01*
X5279593Y2113076D01*
X5260848Y2100173D01*
X5176266Y2043226D01*
X5171846Y2040636D01*
X5115153Y2001824D01*
X5101894Y1994052D01*
X5072430Y1973376D01*
X5031994Y1947468D01*
X4975250Y1908657D01*
X4970729Y1906066D01*
X4862423Y1833625D01*
X4799787Y1792224D01*
X4765497Y1768906D01*
X4760976Y1766366D01*
X4735931Y1748231D01*
X4672736Y1706829D01*
X4555744Y1629003D01*
X4527600Y1609801D01*
X4488041Y1609801D01*
X4488027Y1608785D01*
X4472635Y1618843D01*
X4417212Y1660245D01*
X4387392Y1681683D01*
X4297832Y1748231D01*
X4267352Y1771243D01*
X4248454Y1784451D01*
X3913378Y2032863D01*
X3871925Y2063089D01*
X3732095Y2063089D01*
X3354120Y1990699D01*
X3334461Y1987245D01*
X3274185Y1987245D01*
X3277666Y1982724D01*
X3277666Y1975612D01*
X3199961Y1960372D01*
X3360674Y1960372D01*
X3360674Y1969465D01*
X3373831Y1969465D01*
X3581349Y2010359D01*
X3812946Y2055368D01*
X3836212Y2059533D01*
X3853738Y2048408D01*
X4241139Y1761083D01*
X4280458Y1732788D01*
X4436313Y1617116D01*
X4431741Y1614424D01*
X4332935Y1646783D01*
X4280458Y1663446D01*
X4197451Y1690776D01*
X4123182Y1713992D01*
X4066387Y1733296D01*
X3922166Y1779981D01*
X3843528Y1804517D01*
X3834790Y1808327D01*
X3756101Y1833118D01*
X3699306Y1852422D01*
X3629406Y1874367D01*
X3524554Y1908149D01*
X3515817Y1911908D01*
X3441496Y1935276D01*
X3389020Y1952955D01*
X3360674Y1960372D01*
X3199961Y1960372D01*
X3192424Y1958898D01*
X3174949Y1954275D01*
X2982722Y1915414D01*
X2855976Y1888896D01*
X2816656Y1881327D01*
X2801467Y1876298D01*
X2785618Y1876298D01*
X2775153Y1870100D01*
X2713544Y1870100D01*
X2714643Y1857552D01*
X2796641Y1857552D01*
X2921914Y1881479D01*
X3305048Y1956562D01*
X3314801Y1956409D01*
X3371596Y1938070D01*
X3406546Y1926183D01*
X3467709Y1906727D01*
X3502710Y1895144D01*
X3603193Y1862683D01*
X3642512Y1849678D01*
X3699306Y1831746D01*
X3734257Y1820011D01*
X3830421Y1789023D01*
X3900322Y1766976D01*
X3909060Y1763115D01*
X3996436Y1735937D01*
X4005173Y1732178D01*
X4062018Y1713941D01*
X4123182Y1694738D01*
X4131919Y1690624D01*
X4267352Y1647901D01*
X4276090Y1644040D01*
X4370070Y1614576D01*
X4370070Y1611680D01*
X4341672Y1614830D01*
X4276090Y1625854D01*
X4245508Y1629968D01*
X4105706Y1651558D01*
X4040174Y1661972D01*
X4009542Y1666290D01*
X3756101Y1705152D01*
X3703675Y1713738D01*
X3638143Y1723186D01*
X3585718Y1731822D01*
X3218688Y1787956D01*
X3135630Y1801368D01*
X3100679Y1806041D01*
X3030778Y1817217D01*
X3000197Y1821535D01*
X2895295Y1837842D01*
X2799638Y1852168D01*
X2796641Y1857552D01*
X2714643Y1857552D01*
X2714701Y1856892D01*
X2722016Y1845970D01*
X2777337Y1837994D01*
X3015488Y1800860D01*
X3183686Y1774901D01*
X3214319Y1770583D01*
X3249269Y1764690D01*
X3279851Y1760321D01*
X3415284Y1739544D01*
X3620668Y1707642D01*
X3651250Y1703374D01*
X3721150Y1692198D01*
X3751783Y1687830D01*
X3987698Y1651254D01*
X4293565Y1604162D01*
X4359148Y1593850D01*
X4389729Y1589735D01*
X4459630Y1578051D01*
X4510786Y1572463D01*
X4551375Y1598320D01*
X4647539Y1662836D01*
X4651908Y1665427D01*
X4708702Y1704238D01*
X4713173Y1706829D01*
X4778603Y1750822D01*
X4782972Y1753412D01*
X4817110Y1776679D01*
X4875682Y1815490D01*
X5049520Y1931974D01*
X5054346Y1934565D01*
X5157673Y2004415D01*
X5193741Y2027783D01*
X5259171Y2071674D01*
X5263642Y2074265D01*
X5320436Y2113076D01*
X5324906Y2115667D01*
X5390337Y2159660D01*
X5394858Y2162251D01*
X5462473Y2207564D01*
X5464657Y2208834D01*
X5521452Y2247646D01*
X5525820Y2250236D01*
X5593537Y2295550D01*
X5595721Y2296820D01*
X5661253Y2340813D01*
X5665673Y2343404D01*
X5722366Y2382215D01*
X5735777Y2389987D01*
X5792368Y2428697D01*
X5825032Y2449474D01*
X5825134Y2457602D01*
X5809843Y2467914D01*
X5801106Y2476347D01*
X5606694Y2635808D01*
X5499608Y2722981D01*
X5460288Y2755798D01*
X5353151Y2842818D01*
X5316728Y2873908D01*
X5311140Y2876448D01*
X5281625Y2902356D01*
X5220512Y2951530D01*
X5185003Y2980486D01*
X5136896Y3020872D01*
X5098186Y3052419D01*
X5036972Y3101594D01*
X4898694Y3215487D01*
X4787950Y3306013D01*
X4678476Y3396589D01*
X4638243Y3427679D01*
X4601718Y3458718D01*
X4568850Y3485387D01*
X4519422Y3526434D01*
X4504893Y3535070D01*
G37*
G36*
X5770524Y3529787D02*
G01*
X5757418Y3524859D01*
X5758359Y3509162D01*
X5842609Y3509162D01*
X6120079Y3504539D01*
X6740550Y3493566D01*
X8553958Y3462274D01*
X8706866Y3458464D01*
X8682837Y3452368D01*
X8644991Y3442157D01*
X8598357Y3431286D01*
X8562695Y3421634D01*
X8492744Y3405225D01*
X8457793Y3395827D01*
X8348573Y3368801D01*
X8312912Y3359353D01*
X8266277Y3348482D01*
X8229904Y3338626D01*
X8183219Y3327755D01*
X8147558Y3318256D01*
X8016494Y3286099D01*
X7922514Y3262426D01*
X7741208Y3217367D01*
X7699756Y3206394D01*
X7695234Y3206394D01*
X7616748Y3185718D01*
X7612532Y3185718D01*
X7566406Y3173222D01*
X7500569Y3157728D01*
X7413498Y3135884D01*
X7367320Y3123590D01*
X7363155Y3123590D01*
X7321702Y3112719D01*
X7304227Y3108604D01*
X7273645Y3100781D01*
X7164425Y3073806D01*
X7129475Y3064611D01*
X7076998Y3051708D01*
X7045807Y3043682D01*
X6973570Y3071825D01*
X6969912Y3071825D01*
X6845452Y3120237D01*
X6705600Y3174339D01*
X6658102Y3192170D01*
X6314744Y3324148D01*
X5971489Y3455771D01*
X5857900Y3500120D01*
X5842609Y3503828D01*
X5842609Y3509162D01*
X5758359Y3509162D01*
X5760433Y3475532D01*
X5825134Y3475532D01*
X5831687Y3474872D01*
X5874387Y3449574D01*
X5919063Y3449574D01*
X5932170Y3449167D01*
X6078829Y3391408D01*
X6452158Y3248507D01*
X6570878Y3202533D01*
X6585762Y3197352D01*
X6714337Y3147466D01*
X7005370Y3035554D01*
X7000036Y3030423D01*
X6987641Y3030423D01*
X6980303Y3028442D01*
X7083552Y3028442D01*
X7083552Y3033166D01*
X7098842Y3036163D01*
X7125106Y3042970D01*
X7172452Y3053994D01*
X7208824Y3063798D01*
X7255459Y3074720D01*
X7291120Y3084169D01*
X7400391Y3111246D01*
X7457186Y3125622D01*
X7566406Y3152698D01*
X7601356Y3161944D01*
X7671308Y3178403D01*
X7706918Y3188004D01*
X7753603Y3198926D01*
X7789976Y3208731D01*
X7837170Y3219754D01*
X7883448Y3232302D01*
X7887665Y3232302D01*
X7955330Y3249980D01*
X8002676Y3261004D01*
X8039049Y3270808D01*
X8086394Y3281832D01*
X8154009Y3299561D01*
X8158225Y3299561D01*
X8204504Y3312109D01*
X8251748Y3323132D01*
X8287410Y3332632D01*
X8418474Y3364687D01*
X8475268Y3379215D01*
X8584539Y3406292D01*
X8620201Y3415741D01*
X8667546Y3426764D01*
X8693759Y3433775D01*
X8727592Y3441903D01*
X8731910Y3441903D01*
X8716213Y3427679D01*
X8675674Y3396589D01*
X8619490Y3352698D01*
X8608771Y3344824D01*
X8519007Y3275482D01*
X8435949Y3211931D01*
X8230565Y3053181D01*
X8191246Y3023311D01*
X8099501Y2952242D01*
X8090458Y2946349D01*
X8069325Y2928213D01*
X8063992Y2925622D01*
X7981543Y2861056D01*
X7970824Y2853182D01*
X7900416Y2798826D01*
X7885379Y2787650D01*
X7832953Y2746044D01*
X7819542Y2745790D01*
X7642555Y2814370D01*
X7345730Y2928112D01*
X7142581Y3006191D01*
X7083552Y3028442D01*
X6980303Y3028442D01*
X6930440Y3014929D01*
X6926529Y3014929D01*
X6880250Y3002381D01*
X6832295Y2991205D01*
X6775399Y2976422D01*
X6749999Y2970733D01*
X6626961Y3042208D01*
X6309207Y3225800D01*
X6302400Y3228390D01*
X5989015Y3409645D01*
X5919063Y3449574D01*
X5874387Y3449574D01*
X5928918Y3417315D01*
X6373520Y3161131D01*
X6712712Y2965145D01*
X6708902Y2959252D01*
X6691451Y2955544D01*
X6777228Y2955544D01*
X6819188Y2966364D01*
X6865366Y2978708D01*
X6868820Y2978708D01*
X6993991Y3009849D01*
X7015835Y3015538D01*
X7031024Y3020110D01*
X7048144Y3020110D01*
X7216851Y2953816D01*
X7229957Y2950362D01*
X7356652Y2900934D01*
X7798047Y2731465D01*
X7856981Y2731465D01*
X7856981Y2734157D01*
X7915960Y2778709D01*
X7968437Y2820009D01*
X8049056Y2881630D01*
X8160156Y2967024D01*
X8226704Y3018790D01*
X8379155Y3135833D01*
X8400999Y3152902D01*
X8440318Y3182721D01*
X8514638Y3240582D01*
X8667546Y3358387D01*
X8689390Y3375558D01*
X8708796Y3388817D01*
X8709050Y3385972D01*
X8627059Y3277565D01*
X8590127Y3228390D01*
X8525560Y3144164D01*
X8525560Y3142183D01*
X8496046Y3104184D01*
X8460790Y3057601D01*
X8433765Y3021380D01*
X8414105Y2995523D01*
X8376970Y2947517D01*
X8376970Y2945587D01*
X8342020Y2901188D01*
X8342020Y2899003D01*
X8263381Y2797048D01*
X8263381Y2795422D01*
X8233714Y2757424D01*
X8203184Y2716022D01*
X8179460Y2684983D01*
X8151012Y2648559D01*
X8138871Y2628696D01*
X8128355Y2626309D01*
X8116976Y2631948D01*
X7959699Y2692958D01*
X7924698Y2705506D01*
X7914284Y2710840D01*
X7856981Y2731465D01*
X7798047Y2731465D01*
X7804556Y2728976D01*
X7804556Y2725013D01*
X7719415Y2659126D01*
X7640675Y2598928D01*
X7559776Y2536698D01*
X7597902Y2536698D01*
X7606131Y2540050D01*
X7662570Y2583942D01*
X7758684Y2657297D01*
X7832598Y2714752D01*
X7842859Y2714752D01*
X8102884Y2614218D01*
X8163255Y2614218D01*
X8179460Y2638399D01*
X8237118Y2712618D01*
X8237118Y2714904D01*
X8266734Y2752242D01*
X8297316Y2793644D01*
X8319211Y2822143D01*
X8356041Y2871317D01*
X8385708Y2908655D01*
X8385708Y2911297D01*
X8432749Y2972206D01*
X8463330Y3013608D01*
X8485225Y3042107D01*
X8512403Y3078327D01*
X8544001Y3119729D01*
X8594445Y3186988D01*
X8621674Y3222040D01*
X8621674Y3224022D01*
X8657183Y3269792D01*
X8670696Y3287928D01*
X8691118Y3313785D01*
X8763558Y3410813D01*
X8771229Y3410813D01*
X8765794Y3388817D01*
X8757056Y3246526D01*
X8739886Y2998114D01*
X8722055Y2744520D01*
X8713368Y2615133D01*
X8704783Y2496058D01*
X8698941Y2409393D01*
X8695893Y2409393D01*
X8584539Y2452776D01*
X8422843Y2514701D01*
X8248091Y2581910D01*
X8163255Y2614218D01*
X8102884Y2614218D01*
X8119160Y2607919D01*
X8119160Y2605582D01*
X8089595Y2565958D01*
X8056524Y2522626D01*
X8025841Y2481834D01*
X8018170Y2481834D01*
X7981543Y2486609D01*
X7841691Y2503017D01*
X7693152Y2520035D01*
X7627467Y2528366D01*
X7602524Y2529586D01*
X7597902Y2536698D01*
X7559776Y2536698D01*
X7558786Y2535936D01*
X7531455Y2539034D01*
X7487767Y2545232D01*
X7434681Y2576322D01*
X7169200Y2728976D01*
X6777228Y2955544D01*
X6691451Y2955544D01*
X6675018Y2952089D01*
X6631330Y2940354D01*
X6478371Y2903169D01*
X6432245Y2890723D01*
X6428028Y2890723D01*
X6369151Y2875330D01*
X6264910Y2849168D01*
X6258356Y2853182D01*
X6230721Y2894584D01*
X6214872Y2915310D01*
X6143244Y3018790D01*
X6127445Y3039516D01*
X6090869Y3093821D01*
X6074968Y3114548D01*
X6038443Y3168904D01*
X6022594Y3189579D01*
X5933541Y3318967D01*
X5917692Y3339693D01*
X5889904Y3381095D01*
X5874004Y3401771D01*
X5832602Y3463899D01*
X5825134Y3468776D01*
X5825134Y3475532D01*
X5760433Y3475532D01*
X5761623Y3455974D01*
X5795060Y3455974D01*
X5798058Y3457752D01*
X5805474Y3450945D01*
X5824067Y3422497D01*
X5869889Y3357778D01*
X5913424Y3295700D01*
X5985510Y3192170D01*
X6005118Y3163722D01*
X6020968Y3142996D01*
X6048756Y3101594D01*
X6064656Y3080918D01*
X6101181Y3026562D01*
X6117082Y3005836D01*
X6153658Y2951530D01*
X6169507Y2930804D01*
X6214973Y2863545D01*
X6228588Y2845409D01*
X6231788Y2841752D01*
X6194348Y2831795D01*
X6183508Y2829102D01*
X6275222Y2829102D01*
X6280099Y2833776D01*
X6287922Y2833776D01*
X6377889Y2856433D01*
X6487109Y2883560D01*
X6522770Y2893009D01*
X6569456Y2903931D01*
X6605828Y2913735D01*
X6652463Y2924606D01*
X6689852Y2934716D01*
X6694728Y2934716D01*
X6739991Y2947619D01*
X6744106Y2947619D01*
X6841083Y2891282D01*
X6915353Y2848762D01*
X7042048Y2775407D01*
X7356652Y2593898D01*
X7426502Y2554681D01*
X7422083Y2552090D01*
X7356652Y2559202D01*
X7225588Y2575001D01*
X7133844Y2585313D01*
X7046417Y2595880D01*
X6823557Y2621483D01*
X6666280Y2640330D01*
X6421577Y2668574D01*
X6385204Y2673858D01*
X6363208Y2703118D01*
X6344412Y2731566D01*
X6332880Y2747111D01*
X6302197Y2791104D01*
X6275222Y2829102D01*
X6183508Y2829102D01*
X6085128Y2804718D01*
X6050178Y2795422D01*
X5980226Y2778963D01*
X5945276Y2769717D01*
X5847384Y2745130D01*
X5835853Y2747772D01*
X5833770Y2824734D01*
X5825439Y2943758D01*
X5816295Y3099003D01*
X5811672Y3168904D01*
X5803138Y3308604D01*
X5795060Y3455974D01*
X5761623Y3455974D01*
X5794451Y2912719D01*
X5803341Y2754833D01*
X5806590Y2731312D01*
X5886297Y2731312D01*
X5886297Y2734818D01*
X5901588Y2737612D01*
X5997752Y2761488D01*
X6034786Y2771648D01*
X6039358Y2771648D01*
X6106972Y2789377D01*
X6154877Y2800553D01*
X6198717Y2812135D01*
X6229299Y2819095D01*
X6237630Y2823413D01*
X6243421Y2823413D01*
X6263081Y2796235D01*
X6293459Y2752242D01*
X6306667Y2734157D01*
X6313373Y2723794D01*
X6345224Y2680309D01*
X6340805Y2677718D01*
X6198717Y2694330D01*
X6163767Y2698800D01*
X6111341Y2704592D01*
X6076391Y2709265D01*
X5975858Y2720238D01*
X5940907Y2724759D01*
X5886297Y2731312D01*
X5806590Y2731312D01*
X5807557Y2724404D01*
X5814822Y2718612D01*
X5833959Y2704490D01*
X5876340Y2704490D01*
X5879744Y2706217D01*
X5962866Y2688844D01*
X6069330Y2688844D01*
X6093866Y2688437D01*
X6115710Y2684272D01*
X6163767Y2678531D01*
X6251143Y2668574D01*
X6325463Y2659634D01*
X6357874Y2657297D01*
X6365443Y2651353D01*
X6366342Y2650032D01*
X6401917Y2650032D01*
X6417208Y2649626D01*
X6539534Y2634640D01*
X6587642Y2629509D01*
X6675018Y2618994D01*
X6924090Y2590292D01*
X6963409Y2585212D01*
X7413498Y2533192D01*
X7474661Y2525572D01*
X7512303Y2504694D01*
X7510913Y2501087D01*
X7563866Y2501087D01*
X7566406Y2511602D01*
X7596987Y2512415D01*
X7763052Y2492298D01*
X7806740Y2486812D01*
X7894660Y2476652D01*
X8062366Y2476652D01*
X8062366Y2483662D01*
X8074609Y2498648D01*
X8093862Y2524556D01*
X8117789Y2555595D01*
X8142579Y2589225D01*
X8150809Y2595727D01*
X8156295Y2595473D01*
X8165033Y2590495D01*
X8497112Y2462885D01*
X8628227Y2411984D01*
X8621369Y2411984D01*
X8287410Y2450693D01*
X8248091Y2455773D01*
X8066989Y2476652D01*
X7894660Y2476652D01*
X8007248Y2463596D01*
X8011058Y2461361D01*
X7991348Y2436571D01*
X7958480Y2392578D01*
X7912709Y2333040D01*
X7896467Y2310841D01*
X7930997Y2310841D01*
X7939887Y2320086D01*
X7967268Y2356358D01*
X8000085Y2400350D01*
X8018068Y2423617D01*
X8044332Y2458567D01*
X8060181Y2458161D01*
X8169402Y2445410D01*
X8199983Y2440736D01*
X8300516Y2429764D01*
X8335467Y2425090D01*
X8387892Y2419553D01*
X8422843Y2414879D01*
X8523376Y2403957D01*
X8553958Y2399436D01*
X8621674Y2392832D01*
X8621674Y2389530D01*
X8545220Y2380996D01*
X8414105Y2365044D01*
X8331098Y2355392D01*
X8134451Y2331618D01*
X8095132Y2326487D01*
X7943697Y2308504D01*
X7936230Y2305812D01*
X7930997Y2310841D01*
X7896467Y2310841D01*
X7895945Y2310130D01*
X7832953Y2346655D01*
X7640675Y2457348D01*
X7563866Y2501087D01*
X7510913Y2501087D01*
X7509611Y2497531D01*
X7435342Y2439619D01*
X7394041Y2409799D01*
X7334808Y2422753D01*
X7286752Y2432354D01*
X7160056Y2459024D01*
X7120686Y2466746D01*
X7103211Y2471166D01*
X6989622Y2494483D01*
X6889140Y2515971D01*
X6841083Y2525522D01*
X6740550Y2546858D01*
X6692493Y2556560D01*
X6592011Y2578049D01*
X6543903Y2587701D01*
X6443421Y2608986D01*
X6428740Y2611729D01*
X6415836Y2628036D01*
X6401917Y2648102D01*
X6401917Y2650032D01*
X6366342Y2650032D01*
X6384544Y2623362D01*
X6381902Y2621838D01*
X6347307Y2628950D01*
X6246774Y2650388D01*
X6198717Y2659938D01*
X6106972Y2678734D01*
X6091783Y2683713D01*
X6074714Y2683713D01*
X6069330Y2688844D01*
X5962866Y2688844D01*
X6015228Y2678176D01*
X6032703Y2673756D01*
X6098235Y2660650D01*
X6209639Y2637129D01*
X6369151Y2604160D01*
X6401358Y2596134D01*
X6410686Y2585364D01*
X6446215Y2585364D01*
X6460896Y2584958D01*
X6618224Y2551379D01*
X6692493Y2536494D01*
X6792975Y2515057D01*
X6941566Y2484018D01*
X7063892Y2458212D01*
X7111949Y2448610D01*
X7286752Y2411628D01*
X7311813Y2406700D01*
X7432446Y2406700D01*
X7487767Y2449474D01*
X7496505Y2455265D01*
X7535824Y2486812D01*
X7544562Y2486710D01*
X7580630Y2465019D01*
X7826502Y2323185D01*
X7821828Y2320442D01*
X7789265Y2326944D01*
X7771790Y2331516D01*
X7732471Y2339187D01*
X7557668Y2376068D01*
X7435545Y2401214D01*
X7432446Y2406700D01*
X7311813Y2406700D01*
X7334808Y2402179D01*
X7371943Y2393289D01*
X7371943Y2390952D01*
X7343546Y2369261D01*
X7339177Y2366670D01*
X7282738Y2322728D01*
X7277608Y2320086D01*
X7256576Y2302002D01*
X7251750Y2299411D01*
X7182256Y2245055D01*
X7168794Y2234742D01*
X7164425Y2232152D01*
X7067803Y2157069D01*
X6933082Y2053589D01*
X6877915Y2010206D01*
X6917181Y2010206D01*
X6939025Y2025599D01*
X7028942Y2095703D01*
X7118603Y2164842D01*
X7179818Y2211425D01*
X7293356Y2299411D01*
X7351115Y2343404D01*
X7399832Y2382215D01*
X7409129Y2386025D01*
X7413498Y2385872D01*
X7483398Y2370226D01*
X7557668Y2355443D01*
X7631938Y2339136D01*
X7680045Y2329586D01*
X7806740Y2302814D01*
X7852664Y2294331D01*
X7849920Y2289048D01*
X7806740Y2275738D01*
X7527086Y2191359D01*
X7361021Y2140915D01*
X7073953Y2054250D01*
X7151319Y2054250D01*
X7156196Y2057349D01*
X7907223Y2284222D01*
X7959699Y2290521D01*
X7994650Y2295093D01*
X8151926Y2313686D01*
X8326729Y2334971D01*
X8366048Y2339136D01*
X8470900Y2352446D01*
X8487968Y2352446D01*
X8479637Y2348331D01*
X8444687Y2341727D01*
X8283041Y2305354D01*
X8234984Y2295042D01*
X8217509Y2290876D01*
X8165033Y2279497D01*
X8147558Y2275128D01*
X7863535Y2212390D01*
X7793634Y2196693D01*
X7776159Y2192528D01*
X7728102Y2182164D01*
X7636306Y2161286D01*
X7479030Y2126742D01*
X7330440Y2093163D01*
X7286752Y2083816D01*
X7173163Y2057806D01*
X7151319Y2054250D01*
X7073953Y2054250D01*
X6920839Y2008022D01*
X6917181Y2010206D01*
X6877915Y2010206D01*
X6870090Y2004060D01*
X6857441Y1997862D01*
X6837375Y2027682D01*
X6817868Y2053589D01*
X6728764Y2182977D01*
X6713016Y2203653D01*
X6632651Y2320086D01*
X6616801Y2340813D01*
X6572808Y2405481D01*
X6528155Y2467610D01*
X6484162Y2532329D01*
X6468313Y2553004D01*
X6446215Y2585364D01*
X6410686Y2585364D01*
X6414109Y2581452D01*
X6503263Y2452065D01*
X6519113Y2431389D01*
X6546799Y2389987D01*
X6571640Y2356358D01*
X6599326Y2314956D01*
X6615226Y2294229D01*
X6642963Y2252827D01*
X6656222Y2234742D01*
X6663181Y2224379D01*
X6676491Y2206244D01*
X6702602Y2167229D01*
X6742988Y2110486D01*
X6751116Y2100173D01*
X6773722Y2067458D01*
X6790690Y2041956D01*
X6787184Y2041956D01*
X6744919Y2072081D01*
X6645757Y2144166D01*
X6507632Y2245055D01*
X6436309Y2296820D01*
X6407353Y2317546D01*
X6251600Y2431389D01*
X5876340Y2704490D01*
X5833959Y2704490D01*
X5888482Y2664256D01*
X5893155Y2661666D01*
X5967120Y2607360D01*
X5971743Y2604770D01*
X6001867Y2581452D01*
X6006998Y2578862D01*
X6194348Y2442159D01*
X6293408Y2369261D01*
X6312458Y2356358D01*
X6386220Y2302002D01*
X6391198Y2299411D01*
X6499809Y2219198D01*
X6505092Y2216607D01*
X6613347Y2136394D01*
X6618224Y2133803D01*
X6692188Y2079447D01*
X6696913Y2076856D01*
X6720738Y2057907D01*
X6732117Y2050999D01*
X6805675Y1996643D01*
X6810705Y1994052D01*
X6839712Y1971954D01*
X6855968Y1966823D01*
X7033310Y2006193D01*
X7050786Y2010410D01*
X7226655Y2049424D01*
X7317333Y2069846D01*
X7404760Y2088845D01*
X7496505Y2109724D01*
X7540193Y2119071D01*
X7610094Y2134565D01*
X7671308Y2148636D01*
X8077657Y2239111D01*
X8125714Y2249474D01*
X8143189Y2253640D01*
X8588908Y2352954D01*
X8636965Y2363317D01*
X8726220Y2383993D01*
X8731046Y2393035D01*
X8739733Y2521966D01*
X8800541Y3396589D01*
X8806484Y3472332D01*
X8788704Y3477971D01*
X8453424Y3483406D01*
X7566406Y3498748D01*
X7269276Y3504082D01*
X6967778Y3509111D01*
X6382258Y3519525D01*
X5827318Y3528974D01*
G37*
G36*
X1652879Y2580182D02*
G01*
X1414018Y2485745D01*
X1405280Y2481580D01*
X1300276Y2440990D01*
X1296234Y2436368D01*
X1355039Y2436368D01*
X1355242Y2439162D01*
X1526489Y2506421D01*
X1552956Y2516479D01*
X1549501Y2510688D01*
X1419758Y2424531D01*
X1405280Y2428138D01*
X1355039Y2436368D01*
X1296234Y2436368D01*
X1284150Y2422550D01*
X1457807Y2422550D01*
X1466646Y2426208D01*
X1562608Y2490876D01*
X1598726Y2514193D01*
X1632508Y2538425D01*
X1640332Y2538780D01*
X1706778Y2538628D01*
X1754835Y2514142D01*
X1934006Y2429052D01*
X1938375Y2426004D01*
X2117547Y2341067D01*
X2121916Y2338070D01*
X2161235Y2320188D01*
X2172919Y2313584D01*
X2204923Y2299411D01*
X2221839Y2290368D01*
X2215642Y2290368D01*
X1812036Y2359355D01*
X1795475Y2384806D01*
X1788363Y2395169D01*
X1752142Y2454656D01*
X1744421Y2465019D01*
X1705356Y2529738D01*
X1699310Y2538780D01*
X1640332Y2538780D01*
X1634185Y2501239D01*
X1625803Y2441752D01*
X1620215Y2395982D01*
X1609496Y2393543D01*
X1514500Y2409494D01*
X1466443Y2417826D01*
X1457807Y2422550D01*
X1284150Y2422550D01*
X1277174Y2414574D01*
X1368145Y2414574D01*
X1374698Y2414219D01*
X1394358Y2409545D01*
X1394358Y2404770D01*
X1380134Y2401519D01*
X1368399Y2410663D01*
X1368145Y2414574D01*
X1277174Y2414574D01*
X1157110Y2276652D01*
X1193241Y2276652D01*
X1227632Y2314956D01*
X1301648Y2400147D01*
X1310081Y2401824D01*
X1315480Y2388666D01*
X1359408Y2388666D01*
X1359408Y2383586D01*
X1407464Y2383586D01*
X1407464Y2387092D01*
X1430934Y2401620D01*
X1444599Y2401265D01*
X1488287Y2393797D01*
X1523288Y2388108D01*
X1536973Y2385568D01*
X1654352Y2385568D01*
X1656181Y2423617D01*
X1666036Y2488336D01*
X1671828Y2520950D01*
X1682750Y2514447D01*
X1682750Y2507538D01*
X1709674Y2465019D01*
X1725574Y2439162D01*
X1753463Y2395169D01*
X1770227Y2369769D01*
X1766316Y2367432D01*
X1654352Y2385568D01*
X1536973Y2385568D01*
X1584452Y2377643D01*
X1614017Y2371852D01*
X1608734Y2325268D01*
X1599539Y2260600D01*
X1594713Y2252827D01*
X1583182Y2262124D01*
X1476298Y2335631D01*
X1407464Y2383586D01*
X1350670Y2383485D01*
X1350670Y2388666D01*
X1315480Y2388666D01*
X1324457Y2366670D01*
X1324457Y2358085D01*
X1317904Y2356358D01*
X1317368Y2356002D01*
X1363827Y2356002D01*
X1377086Y2367991D01*
X1389532Y2367991D01*
X1396542Y2360777D01*
X1501394Y2288794D01*
X1540764Y2260803D01*
X1562255Y2246477D01*
X1629308Y2246477D01*
X1648815Y2365400D01*
X1658721Y2365044D01*
X1785264Y2343251D01*
X1790956Y2334361D01*
X1827428Y2334361D01*
X1837893Y2334006D01*
X1885950Y2326487D01*
X1942744Y2316175D01*
X1977694Y2310434D01*
X1999538Y2306472D01*
X2038857Y2300122D01*
X2060702Y2296058D01*
X2121916Y2285746D01*
X2183333Y2274824D01*
X2198370Y2274824D01*
X2198370Y2270404D01*
X2091334Y2264359D01*
X1990801Y2259025D01*
X1910689Y2254148D01*
X1876043Y2254148D01*
X1871522Y2263190D01*
X1843684Y2307183D01*
X1827428Y2334361D01*
X1790956Y2334361D01*
X1801723Y2317546D01*
X1827530Y2276144D01*
X1840687Y2253640D01*
X1835810Y2250744D01*
X1642059Y2240991D01*
X1634642Y2238298D01*
X1629308Y2246477D01*
X1562255Y2246477D01*
X1570532Y2240940D01*
X1562049Y2235962D01*
X1444599Y2230831D01*
X1421333Y2227935D01*
X1416354Y2237282D01*
X1385722Y2307183D01*
X1363827Y2356002D01*
X1317368Y2356002D01*
X1278585Y2330246D01*
X1252931Y2312365D01*
X1196492Y2274722D01*
X1193241Y2276652D01*
X1157110Y2276652D01*
X1104950Y2216607D01*
X1102859Y2215286D01*
X1154023Y2215286D01*
X1154023Y2217674D01*
X1173683Y2229612D01*
X1230477Y2268372D01*
X1234897Y2270963D01*
X1300276Y2314956D01*
X1337056Y2338120D01*
X1341882Y2330450D01*
X1371955Y2260600D01*
X1385824Y2230120D01*
X1380540Y2226970D01*
X1296060Y2222855D01*
X1221740Y2218131D01*
X1154023Y2215286D01*
X1102859Y2215286D01*
X1097229Y2211679D01*
X1097229Y2208276D01*
X1429105Y2208276D01*
X1432204Y2210104D01*
X1532026Y2215134D01*
X1591005Y2218639D01*
X1590981Y2217216D01*
X1647799Y2217216D01*
X1647799Y2222347D01*
X1728622Y2225395D01*
X1837232Y2230780D01*
X1853184Y2233777D01*
X1857272Y2227580D01*
X1892503Y2227580D01*
X1892503Y2232863D01*
X1921459Y2236063D01*
X2025751Y2241042D01*
X2225802Y2251608D01*
X2246426Y2254707D01*
X2246426Y2249424D01*
X2218029Y2235403D01*
X2152497Y2200503D01*
X1973732Y2106625D01*
X1967992Y2106625D01*
X1935327Y2159660D01*
X1928164Y2170023D01*
X1892503Y2227580D01*
X1857272Y2227580D01*
X1862836Y2219198D01*
X1888896Y2177796D01*
X1896059Y2164842D01*
X1923999Y2120849D01*
X1942287Y2090267D01*
X1924173Y2080514D01*
X1984248Y2080514D01*
X1984248Y2087880D01*
X2014067Y2101392D01*
X2025751Y2107946D01*
X2100072Y2146757D01*
X2104440Y2149348D01*
X2143760Y2169617D01*
X2254046Y2228240D01*
X2260498Y2228240D01*
X2256129Y2221788D01*
X2234488Y2188159D01*
X2225395Y2175205D01*
X2198928Y2133803D01*
X2166823Y2082038D01*
X2076653Y1942439D01*
X2069388Y1941017D01*
X2058009Y1963013D01*
X2015591Y2030272D01*
X1984248Y2080514D01*
X1924173Y2080514D01*
X1881581Y2057552D01*
X1846630Y2079650D01*
X1776730Y2128621D01*
X1772310Y2131212D01*
X1724355Y2164842D01*
X1708251Y2175205D01*
X1647799Y2217216D01*
X1590981Y2217216D01*
X1590852Y2206244D01*
X1582267Y2146757D01*
X1573225Y2082038D01*
X1568907Y2073605D01*
X1488287Y2098700D01*
X1475181Y2103323D01*
X1443024Y2177796D01*
X1429105Y2208276D01*
X1097229Y2208276D01*
X1097229Y2198065D01*
X1099721Y2196236D01*
X1175867Y2196236D01*
X1296060Y2202586D01*
X1370939Y2207564D01*
X1393444Y2207564D01*
X1399641Y2198471D01*
X1425600Y2138984D01*
X1433982Y2118868D01*
X1429867Y2116429D01*
X1247952Y2172360D01*
X1176172Y2193290D01*
X1175867Y2196236D01*
X1099721Y2196236D01*
X1137182Y2168753D01*
X1180236Y2168753D01*
X1191158Y2168398D01*
X1247952Y2150059D01*
X1441856Y2090724D01*
X1450390Y2084628D01*
X1454189Y2075586D01*
X1490472Y2075586D01*
X1497025Y2075027D01*
X1529043Y2064512D01*
X1602994Y2064512D01*
X1613306Y2136394D01*
X1621586Y2177338D01*
X1621586Y2202383D01*
X1628139Y2202078D01*
X1772310Y2101138D01*
X1841703Y2053589D01*
X1855317Y2043988D01*
X1845587Y2039010D01*
X1905609Y2039010D01*
X1905609Y2044242D01*
X1947113Y2067712D01*
X1958035Y2067814D01*
X1958035Y2066239D01*
X2014829Y1973376D01*
X2024176Y1963775D01*
X2018436Y1960422D01*
X2000859Y1973376D01*
X1964588Y1999030D01*
X1905609Y2039010D01*
X1845587Y2039010D01*
X1820418Y2026157D01*
X1784096Y2008073D01*
X1619351Y2058771D01*
X1602994Y2064512D01*
X1529043Y2064512D01*
X1566011Y2052421D01*
X1569364Y2050440D01*
X1560474Y2001824D01*
X1550568Y1940814D01*
X1545336Y1943912D01*
X1521714Y1999234D01*
X1490472Y2071217D01*
X1490472Y2075586D01*
X1454189Y2075586D01*
X1467764Y2043226D01*
X1508404Y1950059D01*
X1521104Y1924557D01*
X1521104Y1922475D01*
X1513332Y1924202D01*
X1400606Y2007006D01*
X1280261Y2094992D01*
X1265478Y2105355D01*
X1235100Y2128621D01*
X1230376Y2131212D01*
X1191209Y2159660D01*
X1180236Y2166518D01*
X1180236Y2168753D01*
X1137182Y2168753D01*
X1344066Y2017369D01*
X1354175Y2009597D01*
X1401318Y1975967D01*
X1502123Y1901494D01*
X1576628Y1901494D01*
X1582166Y1914601D01*
X1591208Y1983689D01*
X1599285Y2040636D01*
X1599742Y2041956D01*
X1607007Y2041956D01*
X1613509Y2038045D01*
X1744105Y1998421D01*
X1817725Y1998421D01*
X1868474Y2026157D01*
X1881581Y2026208D01*
X1998268Y1945893D01*
X1993696Y1943150D01*
X1955850Y1955901D01*
X1824786Y1995881D01*
X1817725Y1998421D01*
X1744105Y1998421D01*
X1749958Y1996643D01*
X1753006Y1990852D01*
X1586636Y1903475D01*
X1576628Y1901494D01*
X1502123Y1901494D01*
X1518978Y1889048D01*
X1610664Y1889048D01*
X1646326Y1908657D01*
X1749856Y1963013D01*
X1786432Y1982419D01*
X1798523Y1982012D01*
X1885950Y1954936D01*
X2010460Y1916938D01*
X2010460Y1912569D01*
X1976221Y1912569D01*
X1663090Y1892096D01*
X1610664Y1889048D01*
X1518978Y1889048D01*
X1541475Y1872437D01*
X1556410Y1865172D01*
X1645615Y1871370D01*
X1925269Y1889150D01*
X2060702Y1897430D01*
X2086406Y1900986D01*
X2123897Y1960422D01*
X2190496Y2063953D01*
X2241194Y2144166D01*
X2299208Y2233980D01*
X2316988Y2264410D01*
X2311755Y2273554D01*
X2274824Y2290013D01*
X2257348Y2299411D01*
X2225344Y2313584D01*
X2213660Y2320290D01*
X1990801Y2425903D01*
X1986432Y2428900D01*
X1763725Y2534869D01*
X1741728Y2546045D01*
X1671828Y2579878D01*
G37*
G36*
X8913825Y2311044D02*
G01*
X8781389Y2234742D01*
X8588908Y2122728D01*
X8540851Y2095449D01*
X8270536Y1939086D01*
X8320176Y1939086D01*
X8320176Y1945182D01*
X8440318Y2013966D01*
X8633612Y2127351D01*
X8639149Y2127351D01*
X8639149Y2123998D01*
X8597900Y2094992D01*
X8487359Y2019960D01*
X8462365Y2001824D01*
X8448802Y1994052D01*
X8400999Y1960625D01*
X8383524Y1949551D01*
X8358835Y1932838D01*
X8344204Y1936191D01*
X8320176Y1939086D01*
X8270536Y1939086D01*
X8268868Y1938121D01*
X8258183Y1928875D01*
X8398814Y1928875D01*
X8398814Y1933956D01*
X8449056Y1968144D01*
X8467547Y1981098D01*
X8562543Y2045817D01*
X8567115Y2048408D01*
X8615070Y2082038D01*
X8619490Y2084628D01*
X8676284Y2123440D01*
X8680653Y2126030D01*
X8728506Y2159660D01*
X8733434Y2162251D01*
X8838946Y2234742D01*
X8874760Y2258009D01*
X8875115Y2252776D01*
X8831122Y2182977D01*
X8805722Y2144166D01*
X8722664Y2012188D01*
X8669020Y1929384D01*
X8655202Y1903475D01*
X8643924Y1896160D01*
X8593277Y1902866D01*
X8527745Y1911857D01*
X8475268Y1918309D01*
X8449056Y1922322D01*
X8398814Y1928875D01*
X8258183Y1928875D01*
X8247701Y1919782D01*
X8320786Y1919782D01*
X8326018Y1922881D01*
X8333282Y1922881D01*
X8333282Y1912569D01*
X8325459Y1912569D01*
X8320786Y1919782D01*
X8247701Y1919782D01*
X8234984Y1908708D01*
X8224621Y1900885D01*
X8195411Y1877618D01*
X8139226Y1831035D01*
X8133791Y1828444D01*
X8097520Y1797405D01*
X8058150Y1766366D01*
X8052053Y1758594D01*
X8046110Y1756003D01*
X7979841Y1701647D01*
X8017967Y1701647D01*
X8029600Y1714601D01*
X8034528Y1717192D01*
X8063992Y1743049D01*
X8087461Y1761185D01*
X8178139Y1834591D01*
X8234984Y1882038D01*
X8244281Y1887982D01*
X8259978Y1902206D01*
X8267750Y1902206D01*
X8267725Y1899970D01*
X8292795Y1899970D01*
X8302396Y1905660D01*
X8308104Y1896872D01*
X8344408Y1896872D01*
X8374329Y1915109D01*
X8383524Y1914804D01*
X8431580Y1907590D01*
X8475268Y1902002D01*
X8505901Y1897125D01*
X8541894Y1892452D01*
X8678214Y1892452D01*
X8683447Y1903475D01*
X8708491Y1942287D01*
X8810498Y2105355D01*
X8862822Y2185568D01*
X8869984Y2198471D01*
X8897518Y2242464D01*
X8910878Y2265781D01*
X8922867Y2273147D01*
X8926830Y2265781D01*
X8930944Y2252827D01*
X8995003Y2113076D01*
X9017304Y2063953D01*
X9063634Y1963013D01*
X9072321Y1944878D01*
X9080347Y1924202D01*
X9088628Y1906066D01*
X9112046Y1851710D01*
X9119819Y1842770D01*
X9119819Y1834337D01*
X9091422Y1836674D01*
X8986520Y1850643D01*
X8934094Y1858010D01*
X8811768Y1874215D01*
X8733078Y1884324D01*
X8693759Y1888896D01*
X8678214Y1892452D01*
X8541894Y1892452D01*
X8610752Y1883511D01*
X8634780Y1880920D01*
X8634780Y1873859D01*
X8614105Y1841398D01*
X8604910Y1828444D01*
X8568436Y1768906D01*
X8541512Y1726234D01*
X8536482Y1726387D01*
X8344408Y1896872D01*
X8308104Y1896872D01*
X8308238Y1896668D01*
X8298586Y1890979D01*
X8292795Y1899970D01*
X8267725Y1899970D01*
X8267649Y1893112D01*
X8262112Y1865731D01*
X8142224Y1784451D01*
X8086394Y1746097D01*
X8060181Y1727555D01*
X8017967Y1701647D01*
X7979841Y1701647D01*
X7957769Y1683512D01*
X7950962Y1678381D01*
X7924698Y1657654D01*
X7885379Y1623618D01*
X7865262Y1608480D01*
X7795666Y1551584D01*
X7782712Y1542440D01*
X7782712Y1539443D01*
X7775587Y1534058D01*
X7817662Y1534058D01*
X7817662Y1537411D01*
X7924342Y1611071D01*
X7929270Y1613662D01*
X7985912Y1652473D01*
X7990586Y1655064D01*
X8099399Y1730095D01*
X8243722Y1827885D01*
X8250681Y1834896D01*
X8264499Y1834896D01*
X8258200Y1802587D01*
X8250885Y1701647D01*
X8240459Y1564995D01*
X8267293Y1564995D01*
X8276945Y1678381D01*
X8285327Y1781860D01*
X8290610Y1859483D01*
X8317992Y1881327D01*
X8327999Y1881479D01*
X8524888Y1706473D01*
X8559342Y1706473D01*
X8569858Y1724914D01*
X8666429Y1876298D01*
X8676284Y1875891D01*
X8698128Y1871725D01*
X8746185Y1865833D01*
X9017101Y1830019D01*
X9065158Y1824177D01*
X9091422Y1819808D01*
X9127744Y1816404D01*
X9137192Y1802587D01*
X9158528Y1753412D01*
X9175394Y1717192D01*
X9219641Y1620215D01*
X9212783Y1617675D01*
X8960307Y1602130D01*
X8785555Y1591919D01*
X8695893Y1585671D01*
X8692794Y1587804D01*
X8559342Y1706473D01*
X8524888Y1706473D01*
X8526830Y1704746D01*
X8516213Y1686102D01*
X8508898Y1675790D01*
X8491474Y1647291D01*
X8458606Y1595577D01*
X8447209Y1576476D01*
X8477453Y1576476D01*
X8483041Y1590395D01*
X8489645Y1595577D01*
X8503107Y1618843D01*
X8529066Y1660245D01*
X8544915Y1684832D01*
X8549589Y1684782D01*
X8571331Y1665427D01*
X8576310Y1662836D01*
X8608822Y1631797D01*
X8639149Y1605889D01*
X8647938Y1599641D01*
X8658047Y1586484D01*
X8652408Y1583131D01*
X8575802Y1579067D01*
X8485936Y1573326D01*
X8477453Y1576476D01*
X8447209Y1576476D01*
X8444687Y1572260D01*
X8344204Y1565656D01*
X8275878Y1559966D01*
X8267293Y1564995D01*
X8240459Y1564995D01*
X8240420Y1564487D01*
X8230565Y1558239D01*
X8003387Y1545183D01*
X7929067Y1540002D01*
X7881010Y1537208D01*
X7817662Y1534058D01*
X7775587Y1534058D01*
X7765237Y1526286D01*
X7765288Y1517904D01*
X7774314Y1512163D01*
X7826400Y1512163D01*
X7826400Y1518462D01*
X7902854Y1522120D01*
X8064550Y1531924D01*
X8199983Y1539900D01*
X8232800Y1542034D01*
X8238032Y1536954D01*
X8227720Y1409242D01*
X8220456Y1350619D01*
X8215528Y1347673D01*
X8169402Y1368298D01*
X8125714Y1385925D01*
X8121345Y1388872D01*
X8077657Y1406347D01*
X8047075Y1420063D01*
X7885175Y1488135D01*
X7826400Y1512163D01*
X7774314Y1512163D01*
X7789621Y1502410D01*
X7830144Y1472641D01*
X7876844Y1472641D01*
X7907223Y1458214D01*
X7975752Y1429918D01*
X7999018Y1419199D01*
X8055813Y1395780D01*
X8130082Y1363726D01*
X8173923Y1346657D01*
X8186877Y1339342D01*
X8189968Y1338122D01*
X8245195Y1338122D01*
X8250326Y1352296D01*
X8259064Y1461008D01*
X8264702Y1539951D01*
X8274303Y1544218D01*
X8366048Y1550212D01*
X8429396Y1553514D01*
X8429396Y1548384D01*
X8404047Y1510182D01*
X8386572Y1481683D01*
X8332470Y1396288D01*
X8325408Y1385925D01*
X8307882Y1357477D01*
X8286140Y1323848D01*
X8274303Y1322425D01*
X8245195Y1338122D01*
X8189968Y1338122D01*
X8219592Y1326438D01*
X8219643Y1303426D01*
X8214667Y1265529D01*
X8240471Y1265529D01*
X8245754Y1277264D01*
X8245906Y1312214D01*
X8253679Y1312214D01*
X8254837Y1311656D01*
X8307120Y1311656D01*
X8321294Y1331620D01*
X8345474Y1370431D01*
X8386318Y1435100D01*
X8406638Y1466189D01*
X8438794Y1517904D01*
X8461552Y1553108D01*
X8466988Y1555089D01*
X8540851Y1560372D01*
X8623858Y1565605D01*
X8681974Y1568450D01*
X8684935Y1565656D01*
X8717788Y1565656D01*
X8717788Y1570431D01*
X8789924Y1575968D01*
X9095790Y1594104D01*
X9191904Y1599387D01*
X9224010Y1602384D01*
X9233408Y1592021D01*
X9233408Y1582166D01*
X9239758Y1578457D01*
X9254185Y1543812D01*
X9282379Y1481683D01*
X9289186Y1466189D01*
X9295282Y1457502D01*
X9279280Y1452473D01*
X9161322Y1425854D01*
X9122003Y1416202D01*
X9003995Y1389430D01*
X8988856Y1384655D01*
X8979865Y1384655D01*
X8940546Y1373733D01*
X8927388Y1380185D01*
X8717788Y1565656D01*
X8684935Y1565656D01*
X8698128Y1553210D01*
X8907170Y1368958D01*
X8899144Y1364589D01*
X8863376Y1356614D01*
X8953296Y1356614D01*
X8963558Y1363929D01*
X8975750Y1363929D01*
X8990888Y1368806D01*
X9130741Y1400505D01*
X9148216Y1404874D01*
X9244330Y1426616D01*
X9279280Y1435658D01*
X9302343Y1438960D01*
X9307068Y1427327D01*
X9315704Y1409242D01*
X9337649Y1360068D01*
X9360712Y1310894D01*
X9368028Y1292809D01*
X9381388Y1264310D01*
X9421977Y1176324D01*
X9439402Y1137513D01*
X9446768Y1122019D01*
X9468713Y1072845D01*
X9481870Y1044346D01*
X9516922Y966724D01*
X9526524Y948639D01*
X9534296Y927912D01*
X9560814Y871016D01*
X9586925Y814069D01*
X9595459Y797306D01*
X9588703Y794867D01*
X9283649Y1064260D01*
X9274911Y1072845D01*
X9186418Y1150467D01*
X9130741Y1200607D01*
X9087053Y1238148D01*
X9078315Y1247241D01*
X8953296Y1356614D01*
X8863376Y1356614D01*
X8711234Y1322171D01*
X8693759Y1317701D01*
X8532114Y1280769D01*
X8492744Y1271117D01*
X8432495Y1257401D01*
X8311692Y1307236D01*
X8307120Y1311656D01*
X8254837Y1311656D01*
X8274100Y1302410D01*
X8264347Y1290218D01*
X8253374Y1268476D01*
X8240471Y1265529D01*
X8214667Y1265529D01*
X8210092Y1230680D01*
X8206079Y1228242D01*
X8178088Y1246225D01*
X8138871Y1274673D01*
X8127796Y1281582D01*
X8103971Y1300530D01*
X8020812Y1360068D01*
X7947101Y1414424D01*
X7941767Y1417015D01*
X7870088Y1469745D01*
X7870088Y1472641D01*
X7830144Y1472641D01*
X7895285Y1424736D01*
X7911592Y1414424D01*
X7935518Y1395425D01*
X7947152Y1388516D01*
X7980222Y1362862D01*
X8020862Y1334211D01*
X8031886Y1327251D01*
X8055762Y1308303D01*
X8060588Y1305712D01*
X8134197Y1251407D01*
X8143189Y1245717D01*
X8178350Y1220317D01*
X8250834Y1220317D01*
X8290763Y1285036D01*
X8299399Y1291488D01*
X8304885Y1291437D01*
X8341207Y1274318D01*
X8394039Y1253998D01*
X8391753Y1249172D01*
X8379155Y1245108D01*
X8370030Y1243025D01*
X8464346Y1243025D01*
X8464346Y1247648D01*
X8479637Y1250645D01*
X8516721Y1260449D01*
X8523376Y1260449D01*
X8658809Y1291945D01*
X8676284Y1296314D01*
X8837980Y1333347D01*
X8922613Y1353058D01*
X8935008Y1344523D01*
X8971229Y1312468D01*
X8971229Y1308658D01*
X8987536Y1297990D01*
X9532721Y814730D01*
X9541459Y806450D01*
X9569856Y783539D01*
X9569856Y779119D01*
X9561576Y779119D01*
X9440976Y830732D01*
X9432239Y834999D01*
X9375444Y857808D01*
X9366707Y862228D01*
X9210141Y927912D01*
X9161322Y948944D01*
X9069578Y987044D01*
X8982151Y1024737D01*
X8864193Y1073759D01*
X8855456Y1078128D01*
X8798661Y1101598D01*
X8641334Y1168654D01*
X8619490Y1177594D01*
X8464346Y1243025D01*
X8370030Y1243025D01*
X8263432Y1218641D01*
X8250834Y1220317D01*
X8178350Y1220317D01*
X8207534Y1199235D01*
X8263178Y1199235D01*
X8269935Y1202740D01*
X8402167Y1233017D01*
X8420862Y1237132D01*
X8433104Y1237132D01*
X8457793Y1225042D01*
X8523376Y1198524D01*
X8702040Y1122019D01*
X8754922Y1100226D01*
X8803030Y1079500D01*
X8893606Y1041755D01*
X8907526Y1036624D01*
X8917381Y1031443D01*
X8969044Y1009548D01*
X9065158Y969518D01*
X9069578Y966724D01*
X9083903Y961542D01*
X9199118Y912418D01*
X9248698Y891946D01*
X9265666Y882650D01*
X9276384Y882650D01*
X9279280Y878128D01*
X9318599Y861771D01*
X9381388Y836117D01*
X9386874Y830884D01*
X9379813Y830986D01*
X9336074Y845566D01*
X9283649Y862736D01*
X9223908Y882650D01*
X9220708Y882650D01*
X9178798Y897229D01*
X8951569Y971245D01*
X8846718Y1006195D01*
X8794292Y1023112D01*
X8750452Y1036980D01*
X8728710Y1045006D01*
X8603081Y1085392D01*
X8540851Y1105712D01*
X8532114Y1109726D01*
X8466531Y1130300D01*
X8431580Y1142187D01*
X8335467Y1173226D01*
X8278672Y1191310D01*
X8263178Y1199235D01*
X8207534Y1199235D01*
X8213090Y1195222D01*
X8263839Y1177645D01*
X8272119Y1177645D01*
X8272119Y1172464D01*
X8281720Y1172464D01*
X8387892Y1137005D01*
X8457793Y1114806D01*
X8466531Y1110996D01*
X8532114Y1090422D01*
X8674760Y1043076D01*
X8677808Y1043076D01*
X8753449Y1017219D01*
X8756294Y1017219D01*
X8811768Y998575D01*
X8899144Y969822D01*
X8955938Y951839D01*
X8977680Y943813D01*
X9021470Y929944D01*
X9073946Y912926D01*
X9242145Y857554D01*
X9327337Y829970D01*
X9369247Y815340D01*
X9372854Y815340D01*
X9419132Y799033D01*
X9484664Y778510D01*
X9493402Y774649D01*
X9563303Y752551D01*
X9617913Y734669D01*
X9617913Y820216D01*
X9610242Y823061D01*
X9604451Y837336D01*
X9596780Y855471D01*
X9577984Y896874D01*
X9569297Y914958D01*
X9561728Y933094D01*
X9543084Y971905D01*
X9535566Y990041D01*
X9500616Y1065072D01*
X9473082Y1127150D01*
X9465614Y1142695D01*
X9446920Y1184097D01*
X9439503Y1199642D01*
X9417608Y1248816D01*
X9403283Y1279855D01*
X9381439Y1329029D01*
X9364218Y1363776D01*
X9333077Y1435100D01*
X9328759Y1446022D01*
X9615779Y1512925D01*
X9618472Y1529588D01*
X9611817Y1529588D01*
X9458452Y1494028D01*
X9436608Y1488643D01*
X9333890Y1464868D01*
X9318193Y1464868D01*
X9282176Y1546402D01*
X9262516Y1587804D01*
X9261805Y1603298D01*
X9314230Y1606804D01*
X9484664Y1617472D01*
X9580778Y1622856D01*
X9617913Y1625650D01*
X9617913Y1641093D01*
X9384182Y1627886D01*
X9305493Y1622501D01*
X9249308Y1621434D01*
X9237014Y1644700D01*
X9163507Y1806346D01*
X9163507Y1809699D01*
X9191904Y1806752D01*
X9305493Y1791512D01*
X9379813Y1782927D01*
X9410395Y1778304D01*
X9506508Y1765147D01*
X9589516Y1754174D01*
X9617913Y1751533D01*
X9617913Y1766976D01*
X9578594Y1772818D01*
X9161322Y1827784D01*
X9151366Y1832508D01*
X9141663Y1854301D01*
X9123476Y1893112D01*
X9088628Y1970786D01*
X9081109Y1986280D01*
X9054947Y2045817D01*
X9041536Y2071674D01*
X9010040Y2141575D01*
X9002522Y2159660D01*
X8983726Y2201062D01*
X8976156Y2216607D01*
X8961882Y2247646D01*
X8952280Y2274824D01*
X8958224Y2278329D01*
X8982151Y2265172D01*
X9044025Y2237282D01*
X9078315Y2220722D01*
X9175191Y2175205D01*
X9204198Y2162251D01*
X9215323Y2155799D01*
X9221520Y2155799D01*
X9231223Y2148789D01*
X9379813Y2079752D01*
X9551009Y1999234D01*
X9580168Y1986280D01*
X9606991Y1973376D01*
X9609937Y1969465D01*
X9617913Y1969465D01*
X9617913Y1989277D01*
X9316262Y2130450D01*
X9205010Y2182164D01*
X9184284Y2192528D01*
X9148216Y2208885D01*
X8929725Y2311044D01*
G37*
G36*
X668985Y1990191D02*
G01*
X668985Y1964283D01*
X678027Y1964283D01*
X859078Y1878990D01*
X955192Y1834438D01*
X1025144Y1801266D01*
X1116888Y1758492D01*
X1169314Y1734566D01*
X1188313Y1724914D01*
X1254556Y1694484D01*
X1254556Y1689404D01*
X1234897Y1692706D01*
X1173683Y1700377D01*
X1103782Y1710436D01*
X1016406Y1721256D01*
X977087Y1726539D01*
X946454Y1731060D01*
X824128Y1747113D01*
X749858Y1757070D01*
X684326Y1765249D01*
X668985Y1767992D01*
X668985Y1749958D01*
X706170Y1746504D01*
X736752Y1742084D01*
X780440Y1736242D01*
X811022Y1731721D01*
X850341Y1726336D01*
X970534Y1710689D01*
X1055725Y1700022D01*
X1164945Y1684985D01*
X1215186Y1678838D01*
X1215186Y1674875D01*
X1191158Y1672183D01*
X1121257Y1669084D01*
X1055725Y1664258D01*
X859078Y1653641D01*
X789178Y1648714D01*
X688695Y1642973D01*
X668985Y1640738D01*
X668985Y1625142D01*
X841603Y1635760D01*
X928979Y1640890D01*
X1068832Y1648714D01*
X1134364Y1653590D01*
X1204264Y1656740D01*
X1186789Y1649475D01*
X1134364Y1637741D01*
X1116888Y1633575D01*
X668985Y1530908D01*
X668985Y1514043D01*
X675589Y1514043D01*
X832866Y1550771D01*
X963980Y1580794D01*
X1290777Y1656486D01*
X1295349Y1653743D01*
X1253286Y1590395D01*
X1245819Y1585468D01*
X1245819Y1578914D01*
X1210310Y1528267D01*
X1185214Y1492046D01*
X1022197Y1251407D01*
X1008938Y1233271D01*
X1001979Y1222908D01*
X983640Y1198372D01*
X983640Y1193292D01*
X957427Y1159408D01*
X957427Y1152804D01*
X950010Y1147876D01*
X930198Y1116838D01*
X918819Y1101293D01*
X821232Y956360D01*
X809853Y940866D01*
X791362Y916330D01*
X791362Y911250D01*
X766673Y878738D01*
X693064Y768858D01*
X687628Y768756D01*
X672947Y799846D01*
X668985Y799846D01*
X668985Y733094D01*
X691794Y729742D01*
X702767Y738581D01*
X713892Y757123D01*
X729234Y777849D01*
X800963Y883919D01*
X910082Y1044346D01*
X922426Y1059383D01*
X922426Y1063599D01*
X958138Y1114247D01*
X964844Y1124610D01*
X983640Y1149299D01*
X983640Y1154379D01*
X999998Y1176324D01*
X1026566Y1215136D01*
X1057300Y1259128D01*
X1072032Y1282446D01*
X1102664Y1326438D01*
X1113790Y1341932D01*
X1146048Y1391107D01*
X1157681Y1406652D01*
X1175867Y1431899D01*
X1175867Y1436674D01*
X1193342Y1458061D01*
X1193342Y1462328D01*
X1209700Y1484274D01*
X1232001Y1515313D01*
X1320698Y1646986D01*
X1332128Y1660245D01*
X1338072Y1676552D01*
X1288338Y1699056D01*
X1251153Y1717192D01*
X1195527Y1742998D01*
X1191158Y1745640D01*
X1116888Y1779117D01*
X1105204Y1785823D01*
X1073200Y1799945D01*
X1068832Y1802587D01*
X1038250Y1816201D01*
X1019098Y1825853D01*
X890676Y1885391D01*
X758596Y1947773D01*
X697433Y1975713D01*
X671169Y1990140D01*
G37*
G36*
X6602222Y1948789D02*
G01*
X6500215Y1943912D01*
X5936538Y1923084D01*
X5786526Y1916836D01*
X5749934Y1901393D01*
X5877560Y1901393D01*
X5980226Y1904847D01*
X6115710Y1910080D01*
X6395364Y1920189D01*
X6482740Y1923643D01*
X6476288Y1919528D01*
X6356045Y1894941D01*
X6255512Y1873453D01*
X6216192Y1865680D01*
X6198717Y1861108D01*
X6141923Y1850085D01*
X6124448Y1845665D01*
X6111341Y1843379D01*
X6076391Y1850999D01*
X6039358Y1860804D01*
X6032144Y1860804D01*
X5997752Y1870405D01*
X5877661Y1898294D01*
X5877560Y1901393D01*
X5749934Y1901393D01*
X5635396Y1852980D01*
X5612993Y1842770D01*
X5521452Y1803654D01*
X5473293Y1783791D01*
X5200382Y1667103D01*
X5254955Y1667103D01*
X5268417Y1671574D01*
X5355386Y1709623D01*
X5503976Y1772869D01*
X5565140Y1798523D01*
X5674360Y1845411D01*
X5713730Y1861616D01*
X5776417Y1889252D01*
X5780024Y1889252D01*
X5787192Y1858213D01*
X5860084Y1858213D01*
X5866638Y1857756D01*
X5879998Y1849170D01*
X5887453Y1845208D01*
X5945784Y1845259D01*
X5960426Y1839975D01*
X6041440Y1839925D01*
X6056731Y1833067D01*
X6056731Y1829765D01*
X6161582Y1829765D01*
X6161582Y1834337D01*
X6181242Y1836978D01*
X6281775Y1858518D01*
X6329832Y1868220D01*
X6504584Y1905254D01*
X6526428Y1909470D01*
X6587591Y1922881D01*
X6590639Y1922881D01*
X6584696Y1895703D01*
X6578244Y1873707D01*
X6653174Y1873656D01*
X6677152Y1843989D01*
X6701507Y1816811D01*
X6771792Y1816811D01*
X6858558Y1758594D01*
X6862927Y1756003D01*
X6919722Y1717192D01*
X7041540Y1635658D01*
X7111949Y1587804D01*
X7148169Y1564487D01*
X7173163Y1546402D01*
X7190638Y1535531D01*
X7238390Y1502918D01*
X7247483Y1497228D01*
X7303414Y1459636D01*
X7299045Y1457045D01*
X7212431Y1505000D01*
X7120839Y1554124D01*
X7072630Y1580286D01*
X7024827Y1605889D01*
X6965086Y1639417D01*
X6778294Y1806143D01*
X6768642Y1816811D01*
X6701507Y1816811D01*
X6723583Y1792224D01*
X6767370Y1742439D01*
X6803593Y1742439D01*
X6806488Y1747621D01*
X6844842Y1712010D01*
X6901180Y1660245D01*
X6910730Y1656638D01*
X6905752Y1653692D01*
X6876999Y1660855D01*
X6831787Y1712010D01*
X6803593Y1742439D01*
X6767370Y1742439D01*
X6796379Y1709420D01*
X6826402Y1676552D01*
X6821678Y1673758D01*
X6792975Y1680260D01*
X6758025Y1689201D01*
X6693814Y1703984D01*
X6687007Y1714601D01*
X6651345Y1854301D01*
X6645452Y1873707D01*
X6578244Y1873707D01*
X6571742Y1851710D01*
X6546494Y1761185D01*
X6540601Y1741779D01*
X6534810Y1741779D01*
X6229299Y1814220D01*
X6170422Y1829765D01*
X6050178Y1829866D01*
X6028334Y1839975D01*
X5960426Y1839975D01*
X5993384Y1828241D01*
X6001562Y1825498D01*
X6005017Y1819402D01*
X5984595Y1819605D01*
X5936538Y1845208D01*
X5887453Y1845208D01*
X5940360Y1817065D01*
X6094120Y1817065D01*
X6106972Y1821891D01*
X6111341Y1821738D01*
X6474204Y1735277D01*
X6573316Y1735277D01*
X6579768Y1761185D01*
X6594246Y1812899D01*
X6602323Y1838807D01*
X6607809Y1863242D01*
X6615785Y1866188D01*
X6619849Y1854301D01*
X6624574Y1828444D01*
X6650786Y1724406D01*
X6656273Y1715871D01*
X6643420Y1715871D01*
X6578955Y1731619D01*
X6573316Y1735277D01*
X6474204Y1735277D01*
X6517690Y1724914D01*
X6534200Y1719173D01*
X6521297Y1673199D01*
X6513220Y1674063D01*
X6364782Y1724355D01*
X6301587Y1746961D01*
X6296863Y1746961D01*
X6264300Y1759051D01*
X6224930Y1772157D01*
X6146292Y1799386D01*
X6098235Y1814982D01*
X6094120Y1817065D01*
X5940360Y1817065D01*
X5947613Y1813204D01*
X5944819Y1808175D01*
X5912104Y1801469D01*
X5860084Y1853641D01*
X5860084Y1858213D01*
X5787192Y1858213D01*
X5790876Y1841550D01*
X5824118Y1841550D01*
X5827420Y1851609D01*
X5858916Y1815490D01*
X5874236Y1799437D01*
X6021781Y1799437D01*
X6021781Y1803044D01*
X6044031Y1809038D01*
X6054547Y1808937D01*
X6076391Y1798777D01*
X6081674Y1798675D01*
X6159398Y1772259D01*
X6168136Y1768398D01*
X6216192Y1752854D01*
X6482622Y1661972D01*
X6549847Y1661972D01*
X6555079Y1670050D01*
X6563410Y1704238D01*
X6563614Y1710689D01*
X6583273Y1710486D01*
X6613855Y1701546D01*
X6651904Y1694180D01*
X6663029Y1683512D01*
X6663774Y1679651D01*
X6697827Y1679651D01*
X6709968Y1679295D01*
X6731812Y1673758D01*
X6758025Y1667408D01*
X6836714Y1649018D01*
X6852005Y1646174D01*
X6852005Y1640839D01*
X6708698Y1640839D01*
X6703110Y1649475D01*
X6697827Y1679651D01*
X6663774Y1679651D01*
X6668008Y1657654D01*
X6673900Y1640839D01*
X6611010Y1640839D01*
X6549847Y1661972D01*
X6482622Y1661972D01*
X6513322Y1651711D01*
X6513322Y1642110D01*
X6323279Y1640738D01*
X6246774Y1680718D01*
X6242405Y1683613D01*
X6168136Y1722374D01*
X6163767Y1724914D01*
X6080760Y1768906D01*
X6076391Y1771650D01*
X6021781Y1799437D01*
X5874236Y1799437D01*
X5877560Y1795932D01*
X5877560Y1794002D01*
X5850026Y1788363D01*
X5835548Y1788363D01*
X5824118Y1841550D01*
X5790876Y1841550D01*
X5799175Y1799996D01*
X5803371Y1780082D01*
X5929985Y1780082D01*
X5929985Y1784553D01*
X5972708Y1793493D01*
X5984646Y1793493D01*
X6054547Y1756562D01*
X6124448Y1719224D01*
X6268618Y1643481D01*
X6264300Y1640636D01*
X6059830Y1639570D01*
X6052312Y1647291D01*
X5929985Y1780082D01*
X5803371Y1780082D01*
X5803696Y1778558D01*
X5746134Y1766366D01*
X5841746Y1766366D01*
X5889244Y1775409D01*
X5893968Y1775409D01*
X5902858Y1768906D01*
X5950813Y1717192D01*
X5991250Y1672031D01*
X6017412Y1645767D01*
X6017412Y1639468D01*
X5869533Y1638046D01*
X5864707Y1647291D01*
X5855208Y1696466D01*
X5846724Y1735277D01*
X5841746Y1766366D01*
X5746134Y1766366D01*
X5665622Y1749196D01*
X5617565Y1739493D01*
X5517083Y1718157D01*
X5469026Y1708454D01*
X5368493Y1686915D01*
X5281117Y1668983D01*
X5261457Y1663242D01*
X5254955Y1667103D01*
X5200382Y1667103D01*
X5133445Y1638249D01*
X5248351Y1638249D01*
X5248503Y1642110D01*
X5316067Y1654708D01*
X5355386Y1663801D01*
X5582615Y1711096D01*
X5626303Y1720697D01*
X5704941Y1736852D01*
X5720130Y1741779D01*
X5731205Y1741779D01*
X5796737Y1757121D01*
X5806643Y1757273D01*
X5815888Y1724914D01*
X5825642Y1675790D01*
X5834176Y1643227D01*
X5828995Y1638249D01*
X5133445Y1638249D01*
X5123789Y1634083D01*
X5124768Y1621434D01*
X6503263Y1621434D01*
X6507581Y1617319D01*
X6498488Y1592986D01*
X6487922Y1555445D01*
X6483654Y1555445D01*
X6443268Y1577441D01*
X6378651Y1611071D01*
X6366967Y1617929D01*
X6366967Y1621434D01*
X5124768Y1621434D01*
X5124958Y1618843D01*
X5125976Y1617522D01*
X5552033Y1617675D01*
X5833567Y1620774D01*
X5834014Y1620113D01*
X6312357Y1620012D01*
X6471388Y1536039D01*
X6519418Y1536039D01*
X6524244Y1567078D01*
X6542430Y1622856D01*
X6601510Y1621434D01*
X6621318Y1614627D01*
X6710984Y1614627D01*
X6716014Y1622348D01*
X6872224Y1622856D01*
X6872358Y1622704D01*
X6926275Y1622704D01*
X6926275Y1612392D01*
X6918452Y1612392D01*
X6913168Y1620570D01*
X6913168Y1622704D01*
X6872358Y1622704D01*
X6906697Y1583740D01*
X7004100Y1583740D01*
X7007606Y1589938D01*
X7076998Y1551584D01*
X7129475Y1523441D01*
X7234377Y1466189D01*
X7316876Y1422196D01*
X7369759Y1393088D01*
X7409129Y1371854D01*
X7399832Y1371701D01*
X7349083Y1389837D01*
X7346645Y1389837D01*
X7291120Y1409649D01*
X7243064Y1425397D01*
X7087819Y1478280D01*
X7047585Y1530858D01*
X7012889Y1577441D01*
X7004100Y1583740D01*
X6906697Y1583740D01*
X6907682Y1582623D01*
X6891985Y1561896D01*
X6891324Y1552702D01*
X6878675Y1549806D01*
X6753656Y1592376D01*
X6719722Y1603298D01*
X6710984Y1614627D01*
X6621318Y1614627D01*
X6676948Y1595577D01*
X6686397Y1589836D01*
X6689138Y1578711D01*
X6725259Y1578711D01*
X6731812Y1578254D01*
X6801713Y1552702D01*
X6819188Y1547774D01*
X6855789Y1534718D01*
X6917537Y1534718D01*
X6917842Y1546402D01*
X6928916Y1558188D01*
X6933827Y1555292D01*
X6969506Y1555292D01*
X6972503Y1582623D01*
X6983272Y1566875D01*
X7035495Y1500225D01*
X7030720Y1497380D01*
X7017258Y1502460D01*
X6969506Y1555292D01*
X6933827Y1555292D01*
X6935012Y1554581D01*
X6935012Y1531620D01*
X6921195Y1534718D01*
X6855789Y1534718D01*
X6873544Y1528165D01*
X6833768Y1461008D01*
X6826453Y1448054D01*
X6808825Y1419606D01*
X6780682Y1421333D01*
X6761530Y1425651D01*
X6742531Y1499819D01*
X6725259Y1563624D01*
X6725259Y1578711D01*
X6689138Y1578711D01*
X6703415Y1520494D01*
X6720941Y1453235D01*
X6726631Y1430528D01*
X6717080Y1432509D01*
X6519418Y1536039D01*
X6471388Y1536039D01*
X6481622Y1530553D01*
X6462776Y1466697D01*
X6458305Y1462379D01*
X6443421Y1466900D01*
X6233668Y1493570D01*
X6191808Y1499565D01*
X6184392Y1505000D01*
X6164630Y1525676D01*
X6134100Y1559306D01*
X6104788Y1589379D01*
X6104788Y1591462D01*
X6078575Y1617776D01*
X6078575Y1620113D01*
X6038545Y1620113D01*
X6055664Y1603298D01*
X6079845Y1577441D01*
X6141720Y1509166D01*
X6137351Y1506575D01*
X5914694Y1535176D01*
X5888228Y1541881D01*
X5876950Y1595577D01*
X5872073Y1620113D01*
X5834014Y1620113D01*
X5841898Y1608480D01*
X5852769Y1547672D01*
X5847588Y1544574D01*
X5761786Y1555648D01*
X5687466Y1565605D01*
X5407812Y1602435D01*
X5336387Y1612392D01*
X5314391Y1612392D01*
X5309006Y1617522D01*
X5125976Y1617522D01*
X5145877Y1591665D01*
X5335727Y1591665D01*
X5351018Y1591106D01*
X5407812Y1582166D01*
X5573877Y1560423D01*
X5648147Y1550416D01*
X5857900Y1522882D01*
X5858824Y1519224D01*
X5893765Y1519224D01*
X5901588Y1518666D01*
X5923432Y1514094D01*
X6058916Y1496568D01*
X6150254Y1485036D01*
X6169101Y1480820D01*
X6174407Y1474774D01*
X6209233Y1474774D01*
X6217158Y1477670D01*
X6222238Y1474673D01*
X6303619Y1464868D01*
X6351977Y1458518D01*
X6500215Y1458518D01*
X6501079Y1479092D01*
X6508038Y1511604D01*
X6513423Y1513586D01*
X6609994Y1462633D01*
X6646164Y1445463D01*
X6646621Y1439570D01*
X6530797Y1454962D01*
X6500215Y1458518D01*
X6351977Y1458518D01*
X6452158Y1445056D01*
X6451650Y1424736D01*
X6440525Y1385925D01*
X6433566Y1362659D01*
X6423507Y1323949D01*
X6415989Y1319530D01*
X6337757Y1339037D01*
X6297726Y1380794D01*
X6272174Y1409242D01*
X6249974Y1432509D01*
X6217615Y1468729D01*
X6209233Y1474774D01*
X6174407Y1474774D01*
X6188760Y1458417D01*
X6267551Y1373022D01*
X6284925Y1355902D01*
X6279540Y1352753D01*
X6259880Y1358646D01*
X6134760Y1389837D01*
X6131255Y1389837D01*
X6085128Y1402181D01*
X5980226Y1428140D01*
X5912561Y1444650D01*
X5907989Y1449019D01*
X5899404Y1486865D01*
X5893765Y1519224D01*
X5858824Y1519224D01*
X5867603Y1484274D01*
X5872784Y1457096D01*
X5861405Y1457096D01*
X5836056Y1464360D01*
X5726836Y1491335D01*
X5669991Y1505712D01*
X5560771Y1532737D01*
X5525820Y1541983D01*
X5372862Y1579219D01*
X5335727Y1589227D01*
X5335727Y1591665D01*
X5228996Y1591665D01*
X5246166Y1591360D01*
X5259273Y1586941D01*
X5377230Y1557375D01*
X5412181Y1548282D01*
X5552033Y1513535D01*
X5569508Y1509369D01*
X5709361Y1474622D01*
X5744972Y1465122D01*
X5792216Y1454099D01*
X5836056Y1442313D01*
X5869381Y1435252D01*
X5877864Y1429156D01*
X5879726Y1420876D01*
X5911951Y1420876D01*
X5927801Y1420469D01*
X6015228Y1398117D01*
X6124448Y1371092D01*
X6159398Y1361795D01*
X6224930Y1346098D01*
X6306464Y1325829D01*
X6317945Y1318666D01*
X6326222Y1309624D01*
X6366967Y1309624D01*
X6370218Y1309471D01*
X6454343Y1309471D01*
X6454343Y1319580D01*
X6463080Y1344523D01*
X6476746Y1393698D01*
X6485077Y1426768D01*
X6490258Y1439011D01*
X6500215Y1438351D01*
X6535216Y1434439D01*
X6618224Y1423568D01*
X6663572Y1417370D01*
X6843064Y1417370D01*
X6887565Y1492046D01*
X6900925Y1515313D01*
X6906615Y1518666D01*
X6935012Y1507591D01*
X6932828Y1404061D01*
X6915353Y1404620D01*
X6850786Y1412798D01*
X6843064Y1417370D01*
X6663944Y1417320D01*
X6709664Y1411020D01*
X6725457Y1400810D01*
X6965594Y1400810D01*
X6966458Y1453235D01*
X6972147Y1496822D01*
X6995566Y1484274D01*
X7010289Y1467459D01*
X7057491Y1467459D01*
X7074814Y1450644D01*
X7074814Y1446987D01*
X7075019Y1446733D01*
X7113574Y1446733D01*
X7116368Y1446428D01*
X7365492Y1361490D01*
X7430211Y1339646D01*
X7419340Y1337513D01*
X7382865Y1343050D01*
X7203744Y1366672D01*
X7170267Y1369872D01*
X7148220Y1398879D01*
X7119569Y1435506D01*
X7113574Y1446733D01*
X7075019Y1446733D01*
X7102246Y1412951D01*
X7097572Y1410208D01*
X7048601Y1465580D01*
X7048601Y1467459D01*
X7010289Y1467459D01*
X7062559Y1407922D01*
X7105446Y1407922D01*
X7105446Y1405331D01*
X7101078Y1405331D01*
X7101078Y1407922D01*
X7062559Y1407922D01*
X7082790Y1385062D01*
X7078776Y1382674D01*
X7046417Y1387246D01*
X6976516Y1395730D01*
X6965594Y1400810D01*
X6725457Y1400810D01*
X6726403Y1400200D01*
X6795160Y1400200D01*
X6795160Y1395018D01*
X6782053Y1395018D01*
X6782053Y1400200D01*
X6726403Y1400200D01*
X6737045Y1393342D01*
X6740896Y1377543D01*
X6821424Y1377543D01*
X6821678Y1385925D01*
X6833260Y1395018D01*
X6845452Y1394612D01*
X6867296Y1390396D01*
X6919722Y1384198D01*
X6932828Y1380185D01*
X6933641Y1322527D01*
X6924090Y1322578D01*
X6897827Y1336802D01*
X6821424Y1377543D01*
X6740896Y1377543D01*
X6748983Y1344523D01*
X6748856Y1323238D01*
X6786473Y1323238D01*
X6805574Y1356207D01*
X6811721Y1356207D01*
X6837832Y1341932D01*
X6912673Y1302816D01*
X6965340Y1302816D01*
X6967778Y1375156D01*
X6976516Y1376273D01*
X7090156Y1361744D01*
X7105142Y1358290D01*
X7114338Y1348435D01*
X7188453Y1348435D01*
X7199375Y1348028D01*
X7221220Y1343914D01*
X7269276Y1337818D01*
X7347915Y1327353D01*
X7382865Y1322933D01*
X7457186Y1312773D01*
X7511796Y1305966D01*
X7511796Y1299667D01*
X7504734Y1297990D01*
X7395972Y1216964D01*
X7330440Y1167384D01*
X7324140Y1167282D01*
X7300975Y1197051D01*
X7285634Y1217726D01*
X7263688Y1246225D01*
X7205675Y1323848D01*
X7188453Y1343761D01*
X7188453Y1348435D01*
X7114338Y1348435D01*
X7134961Y1326438D01*
X7200493Y1251407D01*
X7250684Y1194460D01*
X7293305Y1146810D01*
X7293305Y1144574D01*
X7341209Y1144574D01*
X7387386Y1178915D01*
X7417866Y1203350D01*
X7424420Y1203502D01*
X7424420Y1199388D01*
X7416190Y1194460D01*
X7378427Y1154328D01*
X7420051Y1154328D01*
X7420051Y1151737D01*
X7415682Y1151737D01*
X7415682Y1154328D01*
X7378427Y1154328D01*
X7364882Y1139952D01*
X7359142Y1131062D01*
X7349896Y1131062D01*
X7341209Y1144574D01*
X7293305Y1144574D01*
X7293305Y1139850D01*
X7283246Y1133906D01*
X7260539Y1144422D01*
X7221016Y1166012D01*
X7146950Y1204722D01*
X7142581Y1207414D01*
X7068261Y1246225D01*
X7063892Y1248816D01*
X6980885Y1292758D01*
X6965340Y1302816D01*
X6912673Y1302816D01*
X6930644Y1293418D01*
X6930644Y1193139D01*
X6923379Y1193139D01*
X6867296Y1206550D01*
X6836714Y1214323D01*
X6814820Y1221282D01*
X6804050Y1259128D01*
X6794652Y1295400D01*
X6786473Y1323238D01*
X6748856Y1323238D01*
X6748830Y1316075D01*
X6711391Y1256538D01*
X6706768Y1247495D01*
X6703314Y1247495D01*
X6618224Y1268831D01*
X6583273Y1277924D01*
X6478371Y1304086D01*
X6454343Y1309471D01*
X6370218Y1309471D01*
X6373520Y1309319D01*
X6415582Y1298143D01*
X6410756Y1287627D01*
X6410655Y1267764D01*
X6399733Y1269898D01*
X6382258Y1290421D01*
X6366967Y1304239D01*
X6366967Y1309624D01*
X6326222Y1309624D01*
X6348730Y1285036D01*
X6380581Y1251407D01*
X6393711Y1234389D01*
X6432702Y1234389D01*
X6441998Y1272082D01*
X6446570Y1288897D01*
X6456527Y1288643D01*
X6557060Y1263192D01*
X6607200Y1250086D01*
X6611416Y1250086D01*
X6649707Y1239875D01*
X6738366Y1239875D01*
X6738366Y1241552D01*
X6760209Y1277213D01*
X6760209Y1278534D01*
X6768947Y1278534D01*
X6768998Y1256538D01*
X6778345Y1236675D01*
X6773824Y1229715D01*
X6738366Y1239875D01*
X6649707Y1239875D01*
X6666280Y1235456D01*
X6694678Y1228750D01*
X6694678Y1227937D01*
X6658965Y1168552D01*
X6642811Y1140104D01*
X6606590Y1080617D01*
X6598158Y1063752D01*
X6587642Y1063955D01*
X6563715Y1093520D01*
X6532219Y1127150D01*
X6477254Y1186688D01*
X6432702Y1234389D01*
X6393711Y1234389D01*
X6396583Y1230680D01*
X6371793Y1140104D01*
X6353403Y1078026D01*
X6335471Y1010716D01*
X6329324Y1004062D01*
X6307988Y1015034D01*
X6268618Y1036624D01*
X6185662Y1080617D01*
X6142228Y1103884D01*
X6093866Y1130147D01*
X6054801Y1150467D01*
X6002274Y1178915D01*
X5959551Y1202639D01*
X5952490Y1241044D01*
X5943092Y1283716D01*
X5925362Y1367840D01*
X5916676Y1411833D01*
X5911951Y1420876D01*
X5879726Y1420876D01*
X5895086Y1352296D01*
X5903518Y1313484D01*
X5913018Y1266901D01*
X5921248Y1238859D01*
X5921248Y1224229D01*
X5915507Y1224229D01*
X5866333Y1251407D01*
X5822899Y1274673D01*
X5739942Y1318666D01*
X5735574Y1321257D01*
X5632856Y1375867D01*
X5425490Y1486865D01*
X5381599Y1510182D01*
X5377230Y1512824D01*
X5241798Y1584655D01*
X5228996Y1591665D01*
X5145877Y1591665D01*
X5149699Y1586484D01*
X5193741Y1586433D01*
X5206847Y1577441D01*
X5281269Y1537309D01*
X5388152Y1480413D01*
X5390337Y1479092D01*
X5473344Y1435100D01*
X5512714Y1413814D01*
X5783630Y1269085D01*
X5822950Y1248816D01*
X5836056Y1240942D01*
X5928512Y1191818D01*
X5934359Y1167282D01*
X5975908Y1167282D01*
X6011164Y1147876D01*
X6093866Y1103884D01*
X6106972Y1096111D01*
X6146292Y1075944D01*
X6194348Y1049528D01*
X6277356Y1005535D01*
X6310071Y987450D01*
X6362242Y987450D01*
X6370828Y1021080D01*
X6410604Y1163421D01*
X6419392Y1188364D01*
X6419392Y1200912D01*
X6426504Y1200912D01*
X6444030Y1181506D01*
X6482029Y1140104D01*
X6499402Y1122019D01*
X6522923Y1096111D01*
X6577584Y1037437D01*
X6576986Y1035456D01*
X6615430Y1035456D01*
X6669024Y1124610D01*
X6685178Y1153058D01*
X6717080Y1207414D01*
X6726732Y1219047D01*
X6736181Y1218641D01*
X6779869Y1207770D01*
X6783324Y1206195D01*
X6786252Y1195730D01*
X6827977Y1195527D01*
X6864675Y1186637D01*
X6960057Y1186637D01*
X6966000Y1271879D01*
X6969048Y1273708D01*
X6989978Y1261719D01*
X7033564Y1238453D01*
X7103211Y1202232D01*
X7151319Y1176324D01*
X7155688Y1173734D01*
X7221220Y1140155D01*
X7256258Y1120698D01*
X7319518Y1120698D01*
X7319518Y1115517D01*
X7310780Y1115517D01*
X7310780Y1120698D01*
X7256258Y1120698D01*
X7259726Y1118768D01*
X7254443Y1110589D01*
X7199375Y1123746D01*
X7173163Y1130655D01*
X6972147Y1180896D01*
X6960057Y1186637D01*
X6864675Y1186637D01*
X6880402Y1182827D01*
X6929526Y1169924D01*
X6925446Y898144D01*
X6961225Y898144D01*
X6961225Y1159205D01*
X6967778Y1161237D01*
X7065518Y1135989D01*
X7120686Y1122781D01*
X7166864Y1110335D01*
X7171080Y1110335D01*
X7189220Y1105611D01*
X7370775Y1105611D01*
X7407757Y1145286D01*
X7415682Y1150213D01*
X7415682Y1145387D01*
X7383576Y1097432D01*
X7376058Y1097432D01*
X7370775Y1105611D01*
X7189220Y1105611D01*
X7212482Y1099566D01*
X7225080Y1095756D01*
X7227620Y1090930D01*
X7203744Y1074420D01*
X6967778Y898398D01*
X6961225Y898144D01*
X6925446Y898144D01*
X6925005Y868375D01*
X6911848Y856487D01*
X6904939Y860653D01*
X6895744Y902055D01*
X6886549Y935685D01*
X6878320Y969314D01*
X6833870Y1142695D01*
X6825691Y1173734D01*
X6820204Y1195730D01*
X6786252Y1195730D01*
X6790893Y1178915D01*
X6816598Y1078026D01*
X6834784Y1008126D01*
X6843877Y971905D01*
X6861403Y904646D01*
X6868769Y873556D01*
X6878675Y833374D01*
X6870236Y827024D01*
X6916674Y827024D01*
X6917537Y833475D01*
X6926275Y833475D01*
X6926275Y815340D01*
X6957161Y815340D01*
X6957161Y839927D01*
X6961835Y863701D01*
X7260031Y1084478D01*
X7278014Y1083919D01*
X7302042Y1078280D01*
X7302042Y1072438D01*
X7273652Y1042263D01*
X7310678Y1042263D01*
X7333335Y1066292D01*
X7340396Y1068882D01*
X7349439Y1062431D01*
X7314285Y1040130D01*
X7310678Y1042263D01*
X7273652Y1042263D01*
X7214209Y979119D01*
X7203744Y968248D01*
X7168337Y946048D01*
X7154370Y936955D01*
X7215428Y936955D01*
X7225385Y952601D01*
X7244943Y966724D01*
X7245248Y961999D01*
X7218121Y936955D01*
X7154370Y936955D01*
X7072833Y883919D01*
X6972147Y820064D01*
X6969252Y815340D01*
X6926275Y815340D01*
X6926275Y801370D01*
X6918248Y806297D01*
X6916674Y827024D01*
X6870236Y827024D01*
X6837578Y802436D01*
X6832041Y802436D01*
X6818172Y816660D01*
X6699554Y945387D01*
X6646621Y1002284D01*
X6646621Y1003960D01*
X6615430Y1035456D01*
X6576986Y1035456D01*
X6573418Y1023670D01*
X6507480Y913231D01*
X6503162Y910691D01*
X6486753Y920140D01*
X6408572Y961542D01*
X6362242Y987450D01*
X6310071Y987450D01*
X6324092Y979678D01*
X6319520Y956360D01*
X6283553Y829614D01*
X6266891Y770077D01*
X6257594Y739038D01*
X6249517Y707948D01*
X6205118Y552704D01*
X6197092Y521665D01*
X6183325Y472490D01*
X6174790Y446582D01*
X6162565Y402590D01*
X6196634Y402590D01*
X6251448Y596036D01*
X6292342Y741629D01*
X6301130Y775258D01*
X6310426Y803706D01*
X6319215Y837336D01*
X6327038Y865835D01*
X6340449Y912418D01*
X6350203Y948639D01*
X6354013Y960272D01*
X6364782Y960170D01*
X6377889Y951179D01*
X6417208Y930910D01*
X6482191Y895959D01*
X6532524Y895959D01*
X6563106Y948639D01*
X6590893Y992632D01*
X6595211Y1006906D01*
X6602323Y1009497D01*
X6609283Y1002944D01*
X6632194Y977087D01*
X6678269Y927912D01*
X6751320Y848969D01*
X6796633Y798525D01*
X6808266Y788314D01*
X6808266Y781913D01*
X6851954Y781913D01*
X6880402Y804824D01*
X6886956Y805027D01*
X6887514Y803706D01*
X6891121Y785622D01*
X6895388Y770077D01*
X6878980Y758444D01*
X6871208Y758444D01*
X6851954Y781913D01*
X6808266Y781913D01*
X6808266Y781354D01*
X6785406Y763625D01*
X6779259Y763625D01*
X6751116Y778510D01*
X6714286Y798525D01*
X6631330Y842518D01*
X6626961Y845108D01*
X6532524Y895959D01*
X6482191Y895959D01*
X6492951Y890168D01*
X6485585Y876147D01*
X6442252Y803706D01*
X6423152Y772668D01*
X6406997Y744169D01*
X6363563Y671728D01*
X6344513Y640689D01*
X6328206Y612241D01*
X6292189Y552704D01*
X6276187Y524256D01*
X6230924Y449173D01*
X6208826Y410362D01*
X6196736Y394868D01*
X6196634Y402590D01*
X6162565Y402590D01*
X6148476Y351891D01*
X6148476Y346659D01*
X6139738Y349859D01*
X6139738Y371906D01*
X6131763Y399999D01*
X6121908Y449173D01*
X6113780Y485393D01*
X6074206Y671728D01*
X6069431Y695045D01*
X6061456Y728675D01*
X6052108Y775258D01*
X6034582Y858062D01*
X6026150Y894283D01*
X5987440Y1078026D01*
X5978042Y1120698D01*
X5969406Y1163421D01*
X5969304Y1167282D01*
X5934359Y1167282D01*
X5943447Y1127150D01*
X5951474Y1088339D01*
X5960719Y1046937D01*
X5969000Y1005535D01*
X5987135Y922731D01*
X6004306Y841248D01*
X6021476Y762304D01*
X6043726Y656844D01*
X6060795Y577291D01*
X6073851Y513892D01*
X6083300Y472490D01*
X6099606Y397459D01*
X6109360Y348843D01*
X6104890Y346202D01*
X6090970Y366369D01*
X6057595Y410362D01*
X6011926Y472490D01*
X5979109Y516483D01*
X5950813Y555294D01*
X5933440Y578561D01*
X5907278Y612241D01*
X5891631Y635508D01*
X5842609Y699160D01*
X5842609Y701344D01*
X5798921Y758596D01*
X5798921Y760882D01*
X5771692Y795934D01*
X5729833Y852881D01*
X5702808Y887476D01*
X5702808Y890269D01*
X5681929Y917549D01*
X5633872Y982268D01*
X5612079Y1010716D01*
X5522569Y1132332D01*
X5501792Y1159662D01*
X5501792Y1161643D01*
X5472125Y1199642D01*
X5443982Y1238453D01*
X5422138Y1266901D01*
X5384596Y1318666D01*
X5353202Y1358798D01*
X5353202Y1361236D01*
X5326989Y1395120D01*
X5326989Y1397152D01*
X5297322Y1435100D01*
X5269179Y1473911D01*
X5240070Y1512722D01*
X5187188Y1584045D01*
X5187188Y1586484D01*
X5149699Y1586484D01*
X5175097Y1551584D01*
X5207965Y1507591D01*
X5332425Y1339392D01*
X5353202Y1312062D01*
X5353202Y1310081D01*
X5382818Y1272082D01*
X5533390Y1068933D01*
X5562955Y1029969D01*
X5562955Y1027684D01*
X5583834Y1000353D01*
X5672734Y880719D01*
X5699404Y845108D01*
X5720283Y817778D01*
X5720283Y815238D01*
X5755233Y770839D01*
X5755233Y768908D01*
X5776061Y741629D01*
X5793536Y718312D01*
X5821781Y679500D01*
X5863894Y623214D01*
X6004814Y433019D01*
X6052362Y370128D01*
X6052362Y367842D01*
X6080622Y330606D01*
X6196482Y330606D01*
X6213449Y361188D01*
X6232499Y392277D01*
X6275933Y464718D01*
X6292088Y493166D01*
X6328206Y552704D01*
X6344564Y581152D01*
X6380632Y640689D01*
X6396786Y669137D01*
X6433159Y728675D01*
X6440474Y741629D01*
X6485280Y816660D01*
X6516624Y871016D01*
X6522872Y875080D01*
X6596938Y834745D01*
X6631381Y816660D01*
X6722973Y767486D01*
X6755647Y749401D01*
X6808419Y749401D01*
X6828536Y764336D01*
X6847636Y745185D01*
X6847636Y742899D01*
X6900265Y742899D01*
X6908800Y729640D01*
X6908800Y724763D01*
X6903212Y724763D01*
X6891578Y733856D01*
X6891324Y742899D01*
X6847636Y742899D01*
X6847636Y737565D01*
X6833717Y734415D01*
X6808419Y749401D01*
X6755647Y749401D01*
X6761530Y746150D01*
X6645909Y660552D01*
X6602018Y627735D01*
X6587642Y617372D01*
X6557264Y594106D01*
X6552285Y591515D01*
X6434197Y503529D01*
X6479336Y503529D01*
X6488125Y511301D01*
X6520383Y536651D01*
X6552692Y560476D01*
X6557568Y563067D01*
X6682282Y656234D01*
X6696862Y666648D01*
X6720738Y685546D01*
X6731812Y692454D01*
X6768541Y721055D01*
X6788607Y732180D01*
X6808170Y722172D01*
X6868922Y722172D01*
X6874357Y717042D01*
X6865112Y717042D01*
X6865112Y722172D01*
X6808170Y722172D01*
X6813346Y719531D01*
X6810451Y714959D01*
X6799715Y708152D01*
X6956856Y708152D01*
X6956856Y779627D01*
X6973976Y792480D01*
X7072630Y855319D01*
X7122261Y887831D01*
X7127290Y887831D01*
X7127290Y885393D01*
X7108545Y865835D01*
X7043166Y795934D01*
X7027824Y780440D01*
X6968845Y715721D01*
X6956856Y708152D01*
X6799715Y708152D01*
X6713829Y653643D01*
X6670649Y625195D01*
X6657543Y617372D01*
X6529578Y534568D01*
X6479336Y503529D01*
X6434197Y503529D01*
X6279337Y388366D01*
X6348984Y388366D01*
X6361480Y398932D01*
X6425946Y439013D01*
X6468973Y467309D01*
X6522161Y500938D01*
X6613855Y560476D01*
X6618224Y563067D01*
X6709918Y622554D01*
X6762953Y656234D01*
X6811264Y687273D01*
X6835952Y704088D01*
X6841083Y703935D01*
X6862927Y693166D01*
X6908800Y668121D01*
X6908495Y661365D01*
X6871665Y644906D01*
X6854190Y635457D01*
X6760972Y590296D01*
X6749288Y583742D01*
X6701231Y560527D01*
X6696862Y557784D01*
X6648805Y534670D01*
X6644436Y531825D01*
X6456527Y439521D01*
X6354572Y388366D01*
X6279337Y388366D01*
X6199378Y328879D01*
X6196482Y330606D01*
X6080622Y330606D01*
X6130493Y264109D01*
X6144158Y261010D01*
X6164732Y268986D01*
X6176873Y275844D01*
X6224930Y299008D01*
X6229299Y301752D01*
X6277356Y324916D01*
X6281775Y327761D01*
X6469634Y420065D01*
X6491478Y431088D01*
X6596380Y483158D01*
X6766356Y566877D01*
X6774688Y570788D01*
X6806082Y586790D01*
X6950303Y658114D01*
X7144766Y833628D01*
X7144766Y835964D01*
X7321092Y995222D01*
X7396429Y1065072D01*
X7563358Y1312164D01*
X7545019Y1326438D01*
X7483398Y1367840D01*
X7478877Y1370431D01*
X7422235Y1409141D01*
X7386015Y1432509D01*
X7361174Y1450644D01*
X7356652Y1453235D01*
X7317333Y1479194D01*
X7260539Y1517802D01*
X7221220Y1543812D01*
X7216698Y1546402D01*
X7191705Y1564487D01*
X7138212Y1600606D01*
X7071664Y1644700D01*
X6993991Y1696872D01*
X6968439Y1714601D01*
X6906615Y1756003D01*
X6902246Y1758594D01*
X6845452Y1797405D01*
X6840524Y1799996D01*
X6714693Y1885391D01*
X6709714Y1887982D01*
X6619494Y1948789D01*
G37*
G36*
X2499918Y1889252D02*
G01*
X2423414Y1871573D01*
X2283561Y1839772D01*
X2244242Y1830222D01*
X2152497Y1809546D01*
X1719884Y1710385D01*
X1702409Y1705965D01*
X1593189Y1681276D01*
X1579270Y1673199D01*
X1572721Y1661515D01*
X1620621Y1661515D01*
X1625041Y1668018D01*
X1702409Y1685239D01*
X1741728Y1694688D01*
X1995170Y1752600D01*
X2012645Y1756816D01*
X2126284Y1782622D01*
X2397201Y1844802D01*
X2434488Y1853031D01*
X2438704Y1853031D01*
X2438704Y1850999D01*
X2401570Y1828139D01*
X2143760Y1665528D01*
X2130653Y1657553D01*
X2073808Y1621434D01*
X1802942Y1451203D01*
X1791512Y1441602D01*
X1783029Y1441602D01*
X1774748Y1454556D01*
X1757934Y1476502D01*
X1718716Y1530858D01*
X1691487Y1565910D01*
X1691487Y1568246D01*
X1670608Y1595577D01*
X1633778Y1644700D01*
X1620621Y1661515D01*
X1572721Y1661515D01*
X1332636Y1233271D01*
X1307896Y1191869D01*
X1285372Y1150772D01*
X1320292Y1150772D01*
X1577898Y1607108D01*
X1577898Y1614982D01*
X1585976Y1614982D01*
X1587484Y1607210D01*
X1630324Y1607210D01*
X1630324Y1599387D01*
X1638960Y1590395D01*
X1691487Y1519072D01*
X1691487Y1516278D01*
X1716633Y1484274D01*
X1740509Y1453235D01*
X1754073Y1432509D01*
X1762455Y1426057D01*
X1752237Y1418437D01*
X1800758Y1418437D01*
X1800758Y1420520D01*
X1920900Y1496822D01*
X1951482Y1515516D01*
X2003602Y1548993D01*
X2135022Y1631696D01*
X2191816Y1667814D01*
X2213660Y1681124D01*
X2270455Y1717192D01*
X2394356Y1794916D01*
X2413101Y1809038D01*
X2421229Y1809038D01*
X2421229Y1805025D01*
X2409494Y1794814D01*
X2352446Y1732686D01*
X2284526Y1657654D01*
X2278278Y1652473D01*
X2223312Y1590395D01*
X2217115Y1585214D01*
X2155748Y1517904D01*
X2074925Y1429918D01*
X2044293Y1396288D01*
X1960676Y1305712D01*
X1923694Y1264462D01*
X1915566Y1262837D01*
X1895906Y1290218D01*
X1880412Y1310894D01*
X1852117Y1349705D01*
X1834743Y1373022D01*
X1823618Y1388516D01*
X1800758Y1418437D01*
X1752237Y1418437D01*
X1750466Y1417116D01*
X1724253Y1401064D01*
X1656791Y1359001D01*
X1652828Y1362811D01*
X1642973Y1442872D01*
X1635048Y1502410D01*
X1626158Y1572260D01*
X1620469Y1607210D01*
X1587484Y1607210D01*
X1591208Y1587804D01*
X1608226Y1453235D01*
X1617522Y1388516D01*
X1622602Y1336802D01*
X1610358Y1329029D01*
X1656130Y1329029D01*
X1676196Y1342491D01*
X1771294Y1402740D01*
X1777441Y1402740D01*
X1832762Y1326438D01*
X1869643Y1277264D01*
X1896872Y1240180D01*
X1896872Y1235862D01*
X1935175Y1235862D01*
X1964232Y1269492D01*
X1991715Y1297990D01*
X2022246Y1331620D01*
X2044141Y1354886D01*
X2090572Y1406652D01*
X2157831Y1479092D01*
X2221585Y1548993D01*
X2243378Y1572260D01*
X2273655Y1605889D01*
X2293061Y1626616D01*
X2335174Y1673199D01*
X2376322Y1717192D01*
X2474569Y1824583D01*
X2479243Y1824583D01*
X2460853Y1732686D01*
X2438603Y1624025D01*
X2429510Y1574850D01*
X2420975Y1530858D01*
X2413000Y1492046D01*
X2390648Y1379474D01*
X2372969Y1292148D01*
X2334158Y1096111D01*
X2325014Y1052118D01*
X2316683Y1008126D01*
X2307285Y964133D01*
X2280513Y827024D01*
X2274620Y789787D01*
X2268677Y786231D01*
X2247442Y814069D01*
X2219198Y852881D01*
X2194052Y886510D01*
X2041042Y1093520D01*
X1966772Y1194460D01*
X1935175Y1235862D01*
X1896872Y1235760D01*
X1878330Y1215136D01*
X1856232Y1191869D01*
X1817014Y1147876D01*
X1784451Y1114247D01*
X1736089Y1059891D01*
X1705254Y1026363D01*
X1695856Y1024534D01*
X1695653Y1034034D01*
X1687169Y1106474D01*
X1669491Y1238453D01*
X1660956Y1308303D01*
X1656130Y1329029D01*
X1610358Y1329029D01*
X1536801Y1282446D01*
X1457706Y1233220D01*
X1348486Y1163421D01*
X1323238Y1148994D01*
X1320292Y1150772D01*
X1285372Y1150772D01*
X1263294Y1110488D01*
X1263294Y1109065D01*
X1306982Y1109065D01*
X1335379Y1127861D01*
X1586941Y1285748D01*
X1625396Y1310894D01*
X1629613Y1303121D01*
X1634693Y1251407D01*
X1660753Y1054709D01*
X1666544Y1002080D01*
X1370330Y1088694D01*
X1307185Y1106474D01*
X1306982Y1109065D01*
X1263294Y1109065D01*
X1263294Y1100378D01*
X1287678Y1090066D01*
X1405280Y1047546D01*
X1562457Y991565D01*
X1708200Y991565D01*
X1716481Y997762D01*
X1789125Y1078026D01*
X1806397Y1096111D01*
X1836724Y1129741D01*
X1863140Y1158240D01*
X1911350Y1211275D01*
X1917750Y1211275D01*
X1936191Y1188059D01*
X1936191Y1185265D01*
X1971141Y1140917D01*
X1971141Y1138936D01*
X1997354Y1105052D01*
X1997354Y1102766D01*
X2018233Y1075436D01*
X2076043Y997762D01*
X2142591Y907237D01*
X2164384Y878738D01*
X2222398Y798576D01*
X2240788Y776630D01*
X2236419Y774039D01*
X2165604Y803503D01*
X1713839Y986180D01*
X1708200Y991565D01*
X1562457Y991565D01*
X1577654Y986129D01*
X1649984Y985977D01*
X1685798Y974496D01*
X1702358Y968400D01*
X1697358Y965453D01*
X1708454Y965453D01*
X1713849Y960272D01*
X1722069Y960272D01*
X1722069Y957681D01*
X1717700Y957681D01*
X1717700Y960272D01*
X1713849Y960272D01*
X1714703Y959459D01*
X1704593Y963168D01*
X1704593Y965453D01*
X1697358Y965453D01*
X1696669Y965047D01*
X1647799Y984300D01*
X1647799Y986129D01*
X1577654Y986129D01*
X1649984Y959561D01*
X1676196Y950468D01*
X2108809Y795324D01*
X2183079Y768096D01*
X2213660Y757834D01*
X2236876Y748080D01*
X2242261Y748080D01*
X2276449Y734669D01*
X2293874Y737971D01*
X2298801Y751941D01*
X2316022Y839927D01*
X2325116Y883919D01*
X2334361Y930503D01*
X2342794Y974496D01*
X2351328Y1015898D01*
X2364130Y1081887D01*
X2386228Y1191869D01*
X2395372Y1235862D01*
X2403043Y1279855D01*
X2407869Y1300530D01*
X2417114Y1347114D01*
X2425395Y1387246D01*
X2434539Y1429918D01*
X2447798Y1499819D01*
X2455875Y1541221D01*
X2464968Y1585214D01*
X2473858Y1631797D01*
X2508300Y1805178D01*
X2517648Y1849170D01*
X2523032Y1884578D01*
X2510790Y1889201D01*
G37*
G36*
X3072282Y1568399D02*
G01*
X3072282Y1565808D01*
X3076651Y1565808D01*
X3076651Y1568399D01*
G37*
G36*
X5016754Y1294079D02*
G01*
X5016754Y1291488D01*
X5021122Y1291488D01*
X5021122Y1294079D01*
G37*
G36*
X3609746Y1261313D02*
G01*
X3603904Y1257858D01*
X3609746Y1254404D01*
G37*
G36*
X3684015Y1200912D02*
G01*
X3684015Y1198321D01*
X3688384Y1198321D01*
X3688384Y1200912D01*
G37*
G36*
X4850688Y1175054D02*
G01*
X4850688Y1172464D01*
X4855057Y1172464D01*
X4855057Y1175054D01*
G37*
G36*
X4807000Y1146606D02*
G01*
X4807000Y1144016D01*
X4811369Y1144016D01*
X4811369Y1146606D01*
G37*
G36*
X4636617Y1032713D02*
G01*
X4636617Y1030122D01*
X4640986Y1030122D01*
X4640986Y1032713D01*
G37*
G36*
X4623511Y1023213D02*
G01*
X4617669Y1019759D01*
X4623511Y1016355D01*
G37*
G36*
X4566666Y988720D02*
G01*
X4566666Y986129D01*
X4571034Y986129D01*
X4571034Y988720D01*
G37*
G36*
X4549190Y980948D02*
G01*
X4549190Y978357D01*
X4553559Y978357D01*
X4553559Y980948D01*
G37*
G36*
X4007358Y968044D02*
G01*
X4007358Y965453D01*
X4011726Y965453D01*
X4011726Y968044D01*
G37*
G36*
X4125366Y931773D02*
G01*
X4125366Y929233D01*
X4129735Y929233D01*
X4129735Y931773D01*
G37*
G36*
X4103522Y895553D02*
G01*
X4103522Y892962D01*
X4107891Y892962D01*
X4107891Y895553D01*
G37*
G36*
X4107891Y882650D02*
G01*
X4107891Y880059D01*
X4112260Y880059D01*
X4112260Y882650D01*
G37*
G36*
X4361332Y880059D02*
G01*
X4361332Y877468D01*
X4365701Y877468D01*
X4365701Y880059D01*
G37*
G36*
X3836974Y812749D02*
G01*
X3836974Y810158D01*
X3841343Y810158D01*
X3841343Y812749D01*
G37*
G36*
X4269536Y810158D02*
G01*
X4269536Y807618D01*
X4273905Y807618D01*
X4273905Y810158D01*
G37*
G36*
X1921408Y732891D02*
G01*
X1903425Y729792D01*
X1816049Y720242D01*
X1488287Y681278D01*
X1466443Y678840D01*
X1221740Y649528D01*
X1153257Y635101D01*
X1280769Y635101D01*
X1280769Y638708D01*
X1313535Y641959D01*
X1352854Y646582D01*
X1400911Y652627D01*
X1444599Y657453D01*
X1527657Y668121D01*
X1570431Y671169D01*
X1564284Y665276D01*
X1547723Y665276D01*
X1527657Y660400D01*
X1462074Y649224D01*
X1440230Y644956D01*
X1323035Y623366D01*
X1280769Y635101D01*
X1153257Y635101D01*
X1147470Y633882D01*
X1129995Y629361D01*
X955192Y592480D01*
X911504Y582828D01*
X832866Y566572D01*
X688695Y535432D01*
X668985Y530809D01*
X668985Y512978D01*
X693064Y517245D01*
X937717Y569874D01*
X977087Y577545D01*
X994562Y581964D01*
X1033881Y590753D01*
X1081938Y600202D01*
X1199896Y625906D01*
X1214780Y629513D01*
X1218757Y623874D01*
X1256741Y623722D01*
X1272032Y616813D01*
X1272032Y613511D01*
X1254556Y613511D01*
X1254556Y623874D01*
X1218757Y623874D01*
X1226280Y613206D01*
X1368145Y613206D01*
X1571345Y650240D01*
X1636877Y662533D01*
X1741728Y681126D01*
X1763572Y685647D01*
X1855368Y702005D01*
X1892807Y709269D01*
X1901494Y709269D01*
X1905355Y702767D01*
X1906159Y696315D01*
X1942744Y696214D01*
X2222398Y539953D01*
X2379319Y451764D01*
X2401874Y438861D01*
X2471470Y400304D01*
X2628747Y312064D01*
X2781503Y226669D01*
X2851607Y187096D01*
X2881223Y170840D01*
X2876550Y168097D01*
X1973325Y432816D01*
X1971293Y433984D01*
X1966722Y454355D01*
X1958136Y526846D01*
X1941017Y656234D01*
X1934921Y696315D01*
X1906159Y696315D01*
X1923288Y560476D01*
X1932178Y493166D01*
X1937410Y444754D01*
X1919833Y448056D01*
X1368348Y609650D01*
X1368145Y613206D01*
X1226280Y613206D01*
X1228394Y610209D01*
X1220266Y604418D01*
X1178052Y597458D01*
X1147564Y591515D01*
X1268069Y591515D01*
X1276096Y596290D01*
X1309166Y603097D01*
X1326642Y602640D01*
X1501394Y550976D01*
X1934006Y424129D01*
X1941474Y419912D01*
X1943140Y407720D01*
X1971954Y407720D01*
X1976018Y411683D01*
X1982063Y411022D01*
X2169972Y355193D01*
X2880004Y147066D01*
X2880004Y141935D01*
X2860344Y145237D01*
X2772968Y150063D01*
X2620010Y160731D01*
X2537002Y166014D01*
X2453995Y170992D01*
X2056333Y197154D01*
X2001621Y200202D01*
X1997964Y211124D01*
X1979168Y363778D01*
X1971954Y407720D01*
X1943140Y407720D01*
X1949450Y361188D01*
X1966975Y213715D01*
X1972157Y203911D01*
X1894687Y207162D01*
X1820418Y212445D01*
X1658721Y222758D01*
X1584452Y227787D01*
X1440535Y236982D01*
X1429867Y249936D01*
X1390599Y332740D01*
X1373225Y371551D01*
X1332788Y454355D01*
X1315415Y490575D01*
X1305712Y511301D01*
X1294028Y533146D01*
X1275588Y573379D01*
X1268069Y591515D01*
X1147564Y591515D01*
X1129995Y588060D01*
X1064463Y576630D01*
X1016406Y567385D01*
X924610Y551078D01*
X902766Y546557D01*
X811022Y530352D01*
X789178Y525932D01*
X668985Y503783D01*
X668985Y486714D01*
X677418Y486714D01*
X714908Y493979D01*
X780440Y505459D01*
X828497Y514705D01*
X894029Y526186D01*
X942086Y535432D01*
X1033881Y551840D01*
X1081938Y561136D01*
X1147470Y572668D01*
X1225092Y587654D01*
X1236675Y587654D01*
X1255166Y550113D01*
X1263396Y534568D01*
X1368044Y314655D01*
X1384706Y280974D01*
X1403096Y244602D01*
X1403096Y240131D01*
X1335379Y243484D01*
X946454Y269087D01*
X706170Y284530D01*
X668985Y288137D01*
X668985Y269595D01*
X697433Y267004D01*
X749858Y264007D01*
X828497Y258978D01*
X902766Y253949D01*
X981456Y249021D01*
X1064463Y243230D01*
X1226108Y233222D01*
X1335379Y225755D01*
X1402791Y222199D01*
X1416710Y216154D01*
X1442415Y160680D01*
X1468932Y105003D01*
X1482039Y76555D01*
X1499108Y42926D01*
X1560525Y-86461D01*
X1573580Y-112318D01*
X1602181Y-171856D01*
X1634591Y-173482D01*
X1630680Y-166674D01*
X1576628Y-52832D01*
X1564944Y-30937D01*
X1547571Y6705D01*
X1473250Y161290D01*
X1445768Y217576D01*
X1462074Y217525D01*
X1540764Y212394D01*
X1623771Y207264D01*
X1702409Y201879D01*
X1942744Y186486D01*
X1970125Y183489D01*
X1975510Y159359D01*
X1984044Y86918D01*
X1993392Y17068D01*
X2011121Y-120091D01*
X2017014Y-171856D01*
X2050643Y-173482D01*
X2045309Y-158902D01*
X2037029Y-89052D01*
X2027986Y-16611D01*
X2009902Y123139D01*
X2003196Y177495D01*
X2008886Y181457D01*
X2104440Y176072D01*
X2178710Y170942D01*
X2266086Y165963D01*
X2344724Y160324D01*
X2410307Y155905D01*
X2580690Y145135D01*
X2735834Y134772D01*
X2854909Y127050D01*
X2954578Y121107D01*
X2959506Y116382D01*
X2949041Y99872D01*
X2942082Y89509D01*
X2914040Y35153D01*
X2872079Y-42468D01*
X2826664Y-127863D01*
X2813608Y-151180D01*
X2802229Y-173177D01*
X2834436Y-173177D01*
X2846374Y-148590D01*
X2887573Y-73507D01*
X2924810Y-3657D01*
X2940507Y24790D01*
X2985465Y110185D01*
X2993644Y122072D01*
X2993644Y131724D01*
X2922625Y172313D01*
X2816656Y231800D01*
X2681478Y306882D01*
X2590342Y358648D01*
X2436571Y444042D01*
X2335987Y501192D01*
X2270810Y537159D01*
X2239568Y555294D01*
X2183079Y586130D01*
X2017014Y679653D01*
G37*
G36*
X7484109Y685952D02*
G01*
X7489952Y682498D01*
X7495794Y685952D01*
G37*
G36*
X7433157Y675640D02*
G01*
X7433157Y670458D01*
X7442403Y670458D01*
X7437018Y675640D01*
G37*
G36*
X7350099Y666140D02*
G01*
X7344816Y662990D01*
X7349439Y656234D01*
G37*
G36*
X3994251Y644550D02*
G01*
X3994251Y641959D01*
X3998620Y641959D01*
X3998620Y644550D01*
G37*
G36*
X4453077Y634238D02*
G01*
X4453077Y629056D01*
X4462322Y629056D01*
X4456938Y634238D01*
G37*
G36*
X3872433Y582472D02*
G01*
X3867048Y577291D01*
X3871417Y577291D01*
X3876801Y582472D01*
G37*
G36*
X8228431Y541070D02*
G01*
X8228431Y538480D01*
X8232800Y538480D01*
X8232800Y541070D01*
G37*
G36*
X3168396Y538480D02*
G01*
X3168396Y535889D01*
X3172764Y535889D01*
X3172764Y538480D01*
G37*
G36*
X9617913Y531266D02*
G01*
X9602622Y527659D01*
X9554565Y518312D01*
X9515246Y509524D01*
X9467189Y499160D01*
X9449714Y494741D01*
X9410395Y487070D01*
X9336074Y470712D01*
X9314230Y466394D01*
X9218117Y445719D01*
X9152585Y431952D01*
X9108897Y422401D01*
X9030208Y406146D01*
X8982151Y395630D01*
X8964676Y391515D01*
X8934094Y385267D01*
X8916619Y380898D01*
X8877300Y373126D01*
X8776766Y351739D01*
X8737447Y343966D01*
X8726525Y335635D01*
X8726525Y332435D01*
X8929725Y189890D01*
X9003995Y136448D01*
X9012834Y130911D01*
X9081465Y81737D01*
X9126220Y51155D01*
X9168638Y19608D01*
X9196273Y1524D01*
X9235490Y-26974D01*
X9240113Y-29514D01*
X9279280Y-57962D01*
X9298178Y-70916D01*
X9401657Y-143764D01*
X9440976Y-172923D01*
X9478111Y-173177D01*
X9478111Y-170078D01*
X9337649Y-70916D01*
X9257436Y-14579D01*
X9228632Y6400D01*
X9191904Y32258D01*
X9135110Y71628D01*
X9100159Y96977D01*
X9072930Y115366D01*
X8957157Y198170D01*
X8938209Y211124D01*
X8846718Y275793D01*
X8836202Y282397D01*
X8803030Y306832D01*
X8783523Y319633D01*
X8790076Y323545D01*
X8846718Y318973D01*
X8938463Y313334D01*
X9060840Y305206D01*
X9183166Y297586D01*
X9248698Y292811D01*
X9340443Y287274D01*
X9617913Y268986D01*
X9617913Y286613D01*
X9532721Y292811D01*
X9410395Y300380D01*
X9336074Y305612D01*
X9012732Y326440D01*
X8934094Y331114D01*
X8837980Y337210D01*
X8829954Y341630D01*
X8934094Y360375D01*
X9012732Y374904D01*
X9104528Y391414D01*
X9152585Y400710D01*
X9218117Y412140D01*
X9266174Y421385D01*
X9497771Y463296D01*
X9550196Y473201D01*
X9617913Y485089D01*
X9617913Y504291D01*
X9550196Y491134D01*
X9526066Y488696D01*
X9521291Y484124D01*
X9500463Y484124D01*
X9495078Y478942D01*
X9472269Y478942D01*
X9478060Y482396D01*
X9523984Y492404D01*
X9591852Y506628D01*
X9597542Y509981D01*
X9617913Y509981D01*
G37*
G36*
X8175955Y478942D02*
G01*
X8175955Y476351D01*
X8180324Y476351D01*
X8180324Y478942D01*
G37*
G36*
X7851140Y421995D02*
G01*
X7856981Y418592D01*
X7862824Y421995D01*
G37*
G36*
X7808925Y401320D02*
G01*
X7808925Y398729D01*
X7813294Y398729D01*
X7813294Y401320D01*
G37*
G36*
X7034072Y398729D02*
G01*
X7039864Y395274D01*
X7045706Y398729D01*
G37*
G36*
X6793738Y398729D02*
G01*
X6799529Y395274D01*
X6805371Y398729D01*
G37*
G36*
X5565140Y396189D02*
G01*
X5381599Y390956D01*
X4848504Y378409D01*
X4831029Y374548D01*
X4826660Y371348D01*
X4795169Y357174D01*
X4887976Y357174D01*
X4896612Y362254D01*
X5154422Y367842D01*
X5359755Y372668D01*
X5534558Y376123D01*
X5525820Y371094D01*
X5473395Y359308D01*
X5364124Y331825D01*
X5250535Y305155D01*
X5224322Y298348D01*
X5145633Y279095D01*
X5115052Y271424D01*
X5097576Y267258D01*
X5060289Y258978D01*
X5056581Y258978D01*
X4887976Y357174D01*
X4795169Y357174D01*
X4752390Y337921D01*
X4748022Y335229D01*
X4630877Y281533D01*
X4616958Y274726D01*
X4407204Y178460D01*
X4389729Y169672D01*
X4359148Y157022D01*
X4354779Y154076D01*
X4248658Y105003D01*
X4158132Y63754D01*
X4153763Y60807D01*
X4123182Y48361D01*
X4118813Y45415D01*
X4110830Y41605D01*
X4158843Y41605D01*
X4271721Y93065D01*
X4564481Y228142D01*
X4577588Y234391D01*
X4634433Y259588D01*
X4669383Y276555D01*
X4756810Y317195D01*
X4809185Y340512D01*
X4813554Y343103D01*
X4827828Y349707D01*
X4831844Y342950D01*
X4863185Y342950D01*
X4870348Y343814D01*
X5021884Y253593D01*
X5017871Y247345D01*
X4991721Y241808D01*
X5086654Y241808D01*
X5086654Y245465D01*
X5158790Y262432D01*
X5167528Y265938D01*
X5285486Y293420D01*
X5293766Y297789D01*
X5304891Y297789D01*
X5351018Y310286D01*
X5442813Y331876D01*
X5499608Y346557D01*
X5582615Y365861D01*
X5590895Y370281D01*
X5602986Y370281D01*
X5596788Y353618D01*
X5589727Y345694D01*
X5528665Y244754D01*
X5515457Y221488D01*
X5488076Y177495D01*
X5475122Y154178D01*
X5467705Y143865D01*
X5457190Y125730D01*
X5449874Y115366D01*
X5417820Y61010D01*
X5413298Y51765D01*
X5405882Y53289D01*
X5086654Y241808D01*
X4991721Y241808D01*
X4983988Y240182D01*
X4949037Y231292D01*
X4883505Y215392D01*
X4863795Y212090D01*
X4863795Y339191D01*
X4863185Y342950D01*
X4831844Y342950D01*
X4833924Y205638D01*
X4822291Y200304D01*
X4782972Y191312D01*
X4715357Y173583D01*
X4710785Y173583D01*
X4673752Y163931D01*
X4577588Y140309D01*
X4485843Y118770D01*
X4450892Y109372D01*
X4337304Y82550D01*
X4291126Y70104D01*
X4280052Y70104D01*
X4271721Y65735D01*
X4219295Y53695D01*
X4163618Y38811D01*
X4158843Y41605D01*
X4110830Y41605D01*
X4091940Y32562D01*
X4062628Y19608D01*
X4037990Y7518D01*
X4037990Y-1270D01*
X4069384Y-37287D01*
X4111142Y-83870D01*
X4189120Y-171856D01*
X4222242Y-173482D01*
X4216044Y-161493D01*
X4209592Y-156311D01*
X4150360Y-89052D01*
X4122013Y-58013D01*
X4086402Y-17881D01*
X4099255Y-17881D01*
X4140657Y-28651D01*
X4155846Y-33426D01*
X4164431Y-33426D01*
X4249877Y-54660D01*
X4276090Y-61467D01*
X4315460Y-70205D01*
X4341672Y-76962D01*
X4433417Y-98552D01*
X4490212Y-113233D01*
X4529531Y-121970D01*
X4555744Y-128727D01*
X4595063Y-137515D01*
X4621326Y-144272D01*
X4726178Y-168757D01*
X4734458Y-173177D01*
X4813147Y-173177D01*
X4804816Y-169011D01*
X4756759Y-156972D01*
X4739284Y-152958D01*
X4697882Y-142087D01*
X4688941Y-142087D01*
X4673752Y-137363D01*
X4643170Y-129590D01*
X4573219Y-113233D01*
X4547006Y-106476D01*
X4420311Y-76809D01*
X4383633Y-67056D01*
X4377944Y-67056D01*
X4319828Y-51968D01*
X4206189Y-25298D01*
X4180840Y-17881D01*
X4173321Y-17881D01*
X4131919Y-7112D01*
X4116730Y-2387D01*
X4104436Y-2387D01*
X4099306Y5588D01*
X4114444Y8534D01*
X4140657Y15341D01*
X4232402Y36880D01*
X4289196Y51562D01*
X4337304Y62738D01*
X4363516Y69291D01*
X4443222Y88442D01*
X4568850Y119481D01*
X4678121Y145542D01*
X4756759Y165455D01*
X4825796Y181610D01*
X4833061Y177342D01*
X4833670Y-173177D01*
X4863744Y-173177D01*
X4865979Y190195D01*
X4896612Y198983D01*
X4927193Y206806D01*
X4997094Y223164D01*
X5027676Y231038D01*
X5046472Y236321D01*
X5055870Y234391D01*
X5396890Y32816D01*
X5396890Y21234D01*
X5389219Y18389D01*
X5384800Y6705D01*
X5349341Y-52832D01*
X5278932Y-169113D01*
X5278932Y-173177D01*
X5308447Y-173177D01*
X5317642Y-158902D01*
X5343702Y-114909D01*
X5388762Y-39878D01*
X5405018Y-14020D01*
X5416296Y6705D01*
X5427167Y16611D01*
X5746902Y-171856D01*
X5792368Y-173126D01*
X5435955Y35864D01*
X5458460Y76555D01*
X5466384Y86918D01*
X5479338Y110185D01*
X5506821Y154178D01*
X5522925Y182676D01*
X5550357Y226669D01*
X5576824Y270662D01*
X5584037Y283565D01*
X5611672Y327558D01*
X5630214Y359918D01*
X5639409Y359816D01*
X5692648Y296519D01*
X5876442Y81737D01*
X6036716Y-104597D01*
X6093866Y-173024D01*
X6126632Y-173177D01*
X6126632Y-170078D01*
X6092901Y-130454D01*
X5830519Y174904D01*
X5645099Y392277D01*
X5641086Y396138D01*
G37*
G36*
X8420658Y381457D02*
G01*
X8414816Y378053D01*
X8420658Y374599D01*
G37*
G36*
X7048601Y368554D02*
G01*
X7042810Y365099D01*
X7048601Y361645D01*
G37*
G36*
X7922514Y336651D02*
G01*
X7922514Y334060D01*
X7926882Y334060D01*
X7926882Y336651D01*
G37*
G36*
X6863638Y277114D02*
G01*
X6869480Y273659D01*
X6875272Y277114D01*
G37*
G36*
X6898589Y274523D02*
G01*
X6904431Y271068D01*
X6910222Y274523D01*
G37*
G36*
X7979359Y264160D02*
G01*
X7979359Y261569D01*
X7983728Y261569D01*
X7983728Y264160D01*
G37*
G36*
X6978700Y248666D02*
G01*
X6978700Y246075D01*
X6983069Y246075D01*
X6983069Y248666D01*
G37*
G36*
X7048601Y220167D02*
G01*
X7048601Y217576D01*
X7052970Y217576D01*
X7052970Y220167D01*
G37*
G36*
X6860743Y176174D02*
G01*
X6860743Y173583D01*
X6865112Y173583D01*
X6865112Y176174D01*
G37*
G36*
X8197799Y127000D02*
G01*
X8197799Y124409D01*
X8202168Y124409D01*
X8202168Y127000D01*
G37*
G36*
X8608568Y106324D02*
G01*
X8608568Y103733D01*
X8612936Y103733D01*
X8612936Y106324D01*
G37*
G36*
X6786422Y85598D02*
G01*
X6786422Y83007D01*
X6790791Y83007D01*
X6790791Y85598D01*
G37*
G36*
X6926275Y49377D02*
G01*
X6926275Y46786D01*
X6930644Y46786D01*
X6930644Y49377D01*
G37*
G36*
X6898589Y28702D02*
G01*
X6904431Y25247D01*
X6910222Y28702D01*
G37*
G36*
X8355126Y26111D02*
G01*
X8355126Y23520D01*
X8359495Y23520D01*
X8359495Y26111D01*
G37*
G36*
X6712153Y23520D02*
G01*
X6712153Y20929D01*
X6716522Y20929D01*
X6716522Y23520D01*
G37*
G36*
X8372602Y13157D02*
G01*
X8372602Y10566D01*
X8376970Y10566D01*
X8376970Y13157D01*
G37*
G36*
X6707784Y5384D02*
G01*
X6707784Y2794D01*
X6712153Y2794D01*
X6712153Y5384D01*
G37*
G36*
X7730286Y2794D02*
G01*
X7730286Y203D01*
X7734655Y203D01*
X7734655Y2794D01*
G37*
G36*
X7848244Y-25654D02*
G01*
X7848244Y-28244D01*
X7852613Y-28244D01*
X7852613Y-25654D01*
G37*
G36*
X6978700Y-35153D02*
G01*
X6972858Y-38608D01*
X6978700Y-42062D01*
G37*
G36*
X7773974Y-45516D02*
G01*
X7768132Y-48971D01*
X7773974Y-52374D01*
G37*
G36*
X7253986Y-69646D02*
G01*
X7253986Y-72237D01*
X7258354Y-72237D01*
X7258354Y-69646D01*
G37*
G36*
X7350099Y-100685D02*
G01*
X7350099Y-103276D01*
X7354468Y-103276D01*
X7354468Y-100685D01*
G37*
G36*
X8162848Y-149860D02*
G01*
X8162848Y-152450D01*
X8167217Y-152450D01*
X8167217Y-149860D01*
G37*
G36*
X8237118Y-157632D02*
G01*
X8237118Y-160223D01*
X8241538Y-160223D01*
X8241538Y-157632D01*
G37*
G36*
X8171586Y-161950D02*
G01*
X8165795Y-165404D01*
X8171586Y-168859D01*
G37*
G36*
X6732524Y-162814D02*
G01*
X6738366Y-166268D01*
X6744208Y-162814D01*
G37*
D10*
G01*
X6534452Y1364114D03*
D11*
G01*
X5181600Y2717800D03*
D12*
G01*
X5054600Y3098800D03*
M02*
