G04 Layer: BottomSilkscreenLayer*
G04 EasyEDA v6.5.50, 2025-06-19 10:13:18*
G04 a84239dc67104c4f9253a13bb71c2901,cfac02f6325b4f3d8a51e7031594ce25,10*
G04 Gerber Generator version 0.2*
G04 Scale: 100 percent, Rotated: No, Reflected: No *
G04 Dimensions in millimeters *
G04 leading zeros omitted , absolute positions ,4 integer and 5 decimal *
%FSLAX45Y45*%
%MOMM*%

%ADD10C,0.2032*%
%ADD11C,0.0169*%

%LPD*%
D10*
X8674100Y4225645D02*
G01*
X8674100Y3748371D01*
X8674100Y4225645D02*
G01*
X8469553Y4225645D01*
X8401372Y4202917D01*
X8378647Y4180189D01*
X8355919Y4134736D01*
X8355919Y4089280D01*
X8378647Y4043827D01*
X8401372Y4021099D01*
X8469553Y3998371D01*
X8674100Y3998371D01*
X8515009Y3998371D02*
G01*
X8355919Y3748371D01*
X8205919Y3930190D02*
G01*
X7933192Y3930190D01*
X7933192Y3975646D01*
X7955920Y4021099D01*
X7978647Y4043827D01*
X8024101Y4066552D01*
X8092282Y4066552D01*
X8137738Y4043827D01*
X8183191Y3998371D01*
X8205919Y3930190D01*
X8205919Y3884736D01*
X8183191Y3816553D01*
X8137738Y3771099D01*
X8092282Y3748371D01*
X8024101Y3748371D01*
X7978647Y3771099D01*
X7933192Y3816553D01*
X7783192Y3930190D02*
G01*
X7510465Y3930190D01*
X7510465Y3975646D01*
X7533192Y4021099D01*
X7555920Y4043827D01*
X7601374Y4066552D01*
X7669555Y4066552D01*
X7715011Y4043827D01*
X7760464Y3998371D01*
X7783192Y3930190D01*
X7783192Y3884736D01*
X7760464Y3816553D01*
X7715011Y3771099D01*
X7669555Y3748371D01*
X7601374Y3748371D01*
X7555920Y3771099D01*
X7510465Y3816553D01*
X7360465Y4066552D02*
G01*
X7360465Y3748371D01*
X7360465Y3975646D02*
G01*
X7292284Y4043827D01*
X7246830Y4066552D01*
X7178649Y4066552D01*
X7133193Y4043827D01*
X7110465Y3975646D01*
X7110465Y3748371D01*
X7110465Y3975646D02*
G01*
X7042284Y4043827D01*
X6996831Y4066552D01*
X6928650Y4066552D01*
X6883194Y4043827D01*
X6860466Y3975646D01*
X6860466Y3748371D01*
X6178651Y4225645D02*
G01*
X6360467Y3748371D01*
X6178651Y4225645D02*
G01*
X5996833Y3748371D01*
X6292286Y3907462D02*
G01*
X6065014Y3907462D01*
X5846833Y4225645D02*
G01*
X5846833Y3748371D01*
X5846833Y3975646D02*
G01*
X5778652Y4043827D01*
X5733196Y4066552D01*
X5665015Y4066552D01*
X5619559Y4043827D01*
X5596834Y3975646D01*
X5596834Y3748371D01*
X5446834Y4066552D02*
G01*
X5446834Y3748371D01*
X5446834Y3930190D02*
G01*
X5424106Y3998371D01*
X5378653Y4043827D01*
X5333197Y4066552D01*
X5265016Y4066552D01*
X4842289Y4066552D02*
G01*
X4842289Y3748371D01*
X4842289Y3998371D02*
G01*
X4887744Y4043827D01*
X4933198Y4066552D01*
X5001379Y4066552D01*
X5046835Y4043827D01*
X5092288Y3998371D01*
X5115016Y3930190D01*
X5115016Y3884736D01*
X5092288Y3816553D01*
X5046835Y3771099D01*
X5001379Y3748371D01*
X4933198Y3748371D01*
X4887744Y3771099D01*
X4842289Y3816553D01*
X4692289Y4225645D02*
G01*
X4692289Y3748371D01*
X4692289Y3998371D02*
G01*
X4646836Y4043827D01*
X4601380Y4066552D01*
X4533198Y4066552D01*
X4487745Y4043827D01*
X4442289Y3998371D01*
X4419561Y3930190D01*
X4419561Y3884736D01*
X4442289Y3816553D01*
X4487745Y3771099D01*
X4533198Y3748371D01*
X4601380Y3748371D01*
X4646836Y3771099D01*
X4692289Y3816553D01*
X3996837Y4066552D02*
G01*
X3996837Y3748371D01*
X3996837Y3998371D02*
G01*
X4042290Y4043827D01*
X4087746Y4066552D01*
X4155927Y4066552D01*
X4201380Y4043827D01*
X4246836Y3998371D01*
X4269562Y3930190D01*
X4269562Y3884736D01*
X4246836Y3816553D01*
X4201380Y3771099D01*
X4155927Y3748371D01*
X4087746Y3748371D01*
X4042290Y3771099D01*
X3996837Y3816553D01*
X3846837Y4066552D02*
G01*
X3846837Y3748371D01*
X3846837Y3930190D02*
G01*
X3824109Y3998371D01*
X3778656Y4043827D01*
X3733200Y4066552D01*
X3665019Y4066552D01*
X8510155Y1974964D02*
G01*
X8519391Y1993437D01*
X8537864Y2011911D01*
X8556335Y2021146D01*
X8593282Y2021146D01*
X8611755Y2011911D01*
X8630226Y1993437D01*
X8639464Y1974964D01*
X8648700Y1947255D01*
X8648700Y1901075D01*
X8639464Y1873364D01*
X8630226Y1854893D01*
X8611755Y1836420D01*
X8593282Y1827184D01*
X8556335Y1827184D01*
X8537864Y1836420D01*
X8519391Y1854893D01*
X8510155Y1873364D01*
X8510155Y1901075D01*
X8556335Y1901075D02*
G01*
X8510155Y1901075D01*
X8449195Y2021146D02*
G01*
X8439957Y2011911D01*
X8430722Y2021146D01*
X8439957Y2030384D01*
X8449195Y2021146D01*
X8439957Y1956493D02*
G01*
X8439957Y1827184D01*
X8342053Y2021146D02*
G01*
X8342053Y1864128D01*
X8332815Y1836420D01*
X8314344Y1827184D01*
X8295871Y1827184D01*
X8369762Y1956493D02*
G01*
X8305106Y1956493D01*
X8234911Y2021146D02*
G01*
X8234911Y1827184D01*
X8105602Y2021146D02*
G01*
X8105602Y1827184D01*
X8234911Y1928784D02*
G01*
X8105602Y1928784D01*
X8044642Y1956493D02*
G01*
X8044642Y1864128D01*
X8035404Y1836420D01*
X8016933Y1827184D01*
X7989224Y1827184D01*
X7970751Y1836420D01*
X7943042Y1864128D01*
X7943042Y1956493D02*
G01*
X7943042Y1827184D01*
X7882082Y2021146D02*
G01*
X7882082Y1827184D01*
X7882082Y1928784D02*
G01*
X7863608Y1947255D01*
X7845135Y1956493D01*
X7817426Y1956493D01*
X7798955Y1947255D01*
X7780482Y1928784D01*
X7771244Y1901075D01*
X7771244Y1882602D01*
X7780482Y1854893D01*
X7798955Y1836420D01*
X7817426Y1827184D01*
X7845135Y1827184D01*
X7863608Y1836420D01*
X7882082Y1854893D01*
X7701048Y1938020D02*
G01*
X7710284Y1928784D01*
X7701048Y1919546D01*
X7691813Y1928784D01*
X7701048Y1938020D01*
X7701048Y1873364D02*
G01*
X7710284Y1864128D01*
X7701048Y1854893D01*
X7691813Y1864128D01*
X7701048Y1873364D01*
X7350066Y1947255D02*
G01*
X7359304Y1965728D01*
X7377775Y1974964D01*
X7405484Y1974964D01*
X7423957Y1965728D01*
X7433195Y1956493D01*
X7442431Y1928784D01*
X7442431Y1901075D01*
X7433195Y1882602D01*
X7414722Y1873364D01*
X7387013Y1873364D01*
X7368540Y1882602D01*
X7359304Y1901075D01*
X7405484Y1974964D02*
G01*
X7423957Y1956493D01*
X7433195Y1928784D01*
X7433195Y1901075D01*
X7423957Y1882602D01*
X7414722Y1873364D01*
X7350066Y1974964D02*
G01*
X7359304Y1901075D01*
X7359304Y1882602D01*
X7340831Y1873364D01*
X7322357Y1873364D01*
X7303884Y1891837D01*
X7294648Y1919546D01*
X7294648Y1938020D01*
X7303884Y1965728D01*
X7313122Y1984202D01*
X7331595Y2002675D01*
X7350066Y2011911D01*
X7377775Y2021146D01*
X7405484Y2021146D01*
X7433195Y2011911D01*
X7451666Y2002675D01*
X7470140Y1984202D01*
X7479375Y1965728D01*
X7488613Y1938020D01*
X7488613Y1910311D01*
X7479375Y1882602D01*
X7470140Y1864128D01*
X7451666Y1845655D01*
X7433195Y1836420D01*
X7405484Y1827184D01*
X7377775Y1827184D01*
X7350066Y1836420D01*
X7331595Y1845655D01*
X7322357Y1854893D01*
X7340831Y1974964D02*
G01*
X7350066Y1901075D01*
X7350066Y1882602D01*
X7340831Y1873364D01*
X7122853Y1928784D02*
G01*
X7141324Y1947255D01*
X7159797Y1956493D01*
X7187506Y1956493D01*
X7205979Y1947255D01*
X7224453Y1928784D01*
X7233688Y1901075D01*
X7233688Y1882602D01*
X7224453Y1854893D01*
X7205979Y1836420D01*
X7187506Y1827184D01*
X7159797Y1827184D01*
X7141324Y1836420D01*
X7122853Y1854893D01*
X7061893Y2021146D02*
G01*
X7061893Y1827184D01*
X6954751Y1956493D02*
G01*
X6973224Y1947255D01*
X6991695Y1928784D01*
X7000933Y1901075D01*
X7000933Y1882602D01*
X6991695Y1854893D01*
X6973224Y1836420D01*
X6954751Y1827184D01*
X6927042Y1827184D01*
X6908568Y1836420D01*
X6890095Y1854893D01*
X6880859Y1882602D01*
X6880859Y1901075D01*
X6890095Y1928784D01*
X6908568Y1947255D01*
X6927042Y1956493D01*
X6954751Y1956493D01*
X6819900Y1956493D02*
G01*
X6819900Y1864128D01*
X6810664Y1836420D01*
X6792191Y1827184D01*
X6764482Y1827184D01*
X6746008Y1836420D01*
X6718300Y1864128D01*
X6718300Y1956493D02*
G01*
X6718300Y1827184D01*
X6546504Y2021146D02*
G01*
X6546504Y1827184D01*
X6546504Y1928784D02*
G01*
X6564975Y1947255D01*
X6583448Y1956493D01*
X6611157Y1956493D01*
X6629631Y1947255D01*
X6648104Y1928784D01*
X6657340Y1901075D01*
X6657340Y1882602D01*
X6648104Y1854893D01*
X6629631Y1836420D01*
X6611157Y1827184D01*
X6583448Y1827184D01*
X6564975Y1836420D01*
X6546504Y1854893D01*
X6420888Y2021146D02*
G01*
X6420888Y1827184D01*
X6485544Y2021146D02*
G01*
X6356235Y2021146D01*
X6295275Y1956493D02*
G01*
X6258328Y1827184D01*
X6221384Y1956493D02*
G01*
X6258328Y1827184D01*
X6221384Y1956493D02*
G01*
X6184437Y1827184D01*
X6147493Y1956493D02*
G01*
X6184437Y1827184D01*
X6086533Y1901075D02*
G01*
X5975695Y1901075D01*
X5975695Y1919546D01*
X5984933Y1938020D01*
X5994168Y1947255D01*
X6012642Y1956493D01*
X6040351Y1956493D01*
X6058824Y1947255D01*
X6077295Y1928784D01*
X6086533Y1901075D01*
X6086533Y1882602D01*
X6077295Y1854893D01*
X6058824Y1836420D01*
X6040351Y1827184D01*
X6012642Y1827184D01*
X5994168Y1836420D01*
X5975695Y1854893D01*
X5914735Y2021146D02*
G01*
X5914735Y1827184D01*
X5853775Y1956493D02*
G01*
X5798357Y1827184D01*
X5742940Y1956493D02*
G01*
X5798357Y1827184D01*
X5681979Y1901075D02*
G01*
X5571144Y1901075D01*
X5571144Y1919546D01*
X5580379Y1938020D01*
X5589615Y1947255D01*
X5608088Y1956493D01*
X5635797Y1956493D01*
X5654271Y1947255D01*
X5672744Y1928784D01*
X5681979Y1901075D01*
X5681979Y1882602D01*
X5672744Y1854893D01*
X5654271Y1836420D01*
X5635797Y1827184D01*
X5608088Y1827184D01*
X5589615Y1836420D01*
X5571144Y1854893D01*
X7238591Y914918D02*
G01*
X7238591Y692190D01*
X7238591Y867191D02*
G01*
X7270409Y899007D01*
X7302228Y914918D01*
X7349954Y914918D01*
X7381773Y899007D01*
X7413591Y867191D01*
X7429500Y819462D01*
X7429500Y787646D01*
X7413591Y739917D01*
X7381773Y708098D01*
X7349954Y692190D01*
X7302228Y692190D01*
X7270409Y708098D01*
X7238591Y739917D01*
X7133592Y1026281D02*
G01*
X7133592Y692190D01*
X7028591Y914918D02*
G01*
X6964954Y692190D01*
X6901319Y914918D02*
G01*
X6964954Y692190D01*
X6901319Y914918D02*
G01*
X6837682Y692190D01*
X6774047Y914918D02*
G01*
X6837682Y692190D01*
X6478137Y914918D02*
G01*
X6478137Y692190D01*
X6478137Y867191D02*
G01*
X6509956Y899007D01*
X6541775Y914918D01*
X6589501Y914918D01*
X6621320Y899007D01*
X6653138Y867191D01*
X6669046Y819462D01*
X6669046Y787646D01*
X6653138Y739917D01*
X6621320Y708098D01*
X6589501Y692190D01*
X6541775Y692190D01*
X6509956Y708098D01*
X6478137Y739917D01*
X6357228Y914918D02*
G01*
X6261775Y692190D01*
X6166319Y914918D02*
G01*
X6261775Y692190D01*
X6293594Y628553D01*
X6325410Y596737D01*
X6357228Y580826D01*
X6373139Y580826D01*
X5886320Y867191D02*
G01*
X5902231Y899007D01*
X5949957Y914918D01*
X5997684Y914918D01*
X6045410Y899007D01*
X6061321Y867191D01*
X6045410Y835372D01*
X6013594Y819462D01*
X5934049Y803554D01*
X5902231Y787646D01*
X5886320Y755827D01*
X5886320Y739917D01*
X5902231Y708098D01*
X5949957Y692190D01*
X5997684Y692190D01*
X6045410Y708098D01*
X6061321Y739917D01*
X5536321Y1026281D02*
G01*
X5536321Y692190D01*
X5536321Y851280D02*
G01*
X5488594Y899007D01*
X5456775Y914918D01*
X5409049Y914918D01*
X5377230Y899007D01*
X5361322Y851280D01*
X5361322Y692190D01*
X5065412Y914918D02*
G01*
X5065412Y692190D01*
X5065412Y867191D02*
G01*
X5097231Y899007D01*
X5129049Y914918D01*
X5176776Y914918D01*
X5208595Y899007D01*
X5240413Y867191D01*
X5256321Y819462D01*
X5256321Y787646D01*
X5240413Y739917D01*
X5208595Y708098D01*
X5176776Y692190D01*
X5129049Y692190D01*
X5097231Y708098D01*
X5065412Y739917D01*
X4960414Y914918D02*
G01*
X4864958Y692190D01*
X4769505Y914918D02*
G01*
X4864958Y692190D01*
X4664504Y819462D02*
G01*
X4473597Y819462D01*
X4473597Y851280D01*
X4489505Y883099D01*
X4505413Y899007D01*
X4537232Y914918D01*
X4584959Y914918D01*
X4616777Y899007D01*
X4648596Y867191D01*
X4664504Y819462D01*
X4664504Y787646D01*
X4648596Y739917D01*
X4616777Y708098D01*
X4584959Y692190D01*
X4537232Y692190D01*
X4505413Y708098D01*
X4473597Y739917D01*
X4075869Y1026281D02*
G01*
X4075869Y755827D01*
X4059961Y708098D01*
X4028142Y692190D01*
X3996324Y692190D01*
X4123598Y914918D02*
G01*
X4012234Y914918D01*
X3700416Y914918D02*
G01*
X3700416Y692190D01*
X3700416Y867191D02*
G01*
X3732235Y899007D01*
X3764053Y914918D01*
X3811780Y914918D01*
X3843599Y899007D01*
X3875415Y867191D01*
X3891325Y819462D01*
X3891325Y787646D01*
X3875415Y739917D01*
X3843599Y708098D01*
X3811780Y692190D01*
X3764053Y692190D01*
X3732235Y708098D01*
X3700416Y739917D01*
X3404506Y914918D02*
G01*
X3404506Y580826D01*
X3404506Y867191D02*
G01*
X3436325Y899007D01*
X3468143Y914918D01*
X3515870Y914918D01*
X3547689Y899007D01*
X3579507Y867191D01*
X3595415Y819462D01*
X3595415Y787646D01*
X3579507Y739917D01*
X3547689Y708098D01*
X3515870Y692190D01*
X3468143Y692190D01*
X3436325Y708098D01*
X3404506Y739917D01*
X3299508Y914918D02*
G01*
X3235871Y692190D01*
X3172236Y914918D02*
G01*
X3235871Y692190D01*
X3172236Y914918D02*
G01*
X3108599Y692190D01*
X3044962Y914918D02*
G01*
X3108599Y692190D01*
X2749054Y914918D02*
G01*
X2749054Y692190D01*
X2749054Y867191D02*
G01*
X2780873Y899007D01*
X2812691Y914918D01*
X2860418Y914918D01*
X2892237Y899007D01*
X2924055Y867191D01*
X2939963Y819462D01*
X2939963Y787646D01*
X2924055Y739917D01*
X2892237Y708098D01*
X2860418Y692190D01*
X2812691Y692190D01*
X2780873Y708098D01*
X2749054Y739917D01*
X2628145Y1026281D02*
G01*
X2628145Y803554D01*
X2628145Y724009D02*
G01*
X2644056Y708098D01*
X2628145Y692190D01*
X2612237Y708098D01*
X2628145Y724009D01*
X8547100Y1598584D02*
G01*
X8556335Y1617055D01*
X8584044Y1626293D01*
X8611755Y1626293D01*
X8639464Y1617055D01*
X8648700Y1598584D01*
X8639464Y1580111D01*
X8620991Y1570875D01*
X8574808Y1561637D01*
X8556335Y1552402D01*
X8547100Y1533928D01*
X8547100Y1524693D01*
X8556335Y1506220D01*
X8584044Y1496984D01*
X8611755Y1496984D01*
X8639464Y1506220D01*
X8648700Y1524693D01*
X8486140Y1690946D02*
G01*
X8476904Y1681711D01*
X8467666Y1690946D01*
X8476904Y1700184D01*
X8486140Y1690946D01*
X8476904Y1626293D02*
G01*
X8476904Y1496984D01*
X8378997Y1690946D02*
G01*
X8378997Y1533928D01*
X8369762Y1506220D01*
X8351288Y1496984D01*
X8332815Y1496984D01*
X8406706Y1626293D02*
G01*
X8342053Y1626293D01*
X8271855Y1570875D02*
G01*
X8161020Y1570875D01*
X8161020Y1589346D01*
X8170255Y1607820D01*
X8179493Y1617055D01*
X8197964Y1626293D01*
X8225675Y1626293D01*
X8244146Y1617055D01*
X8262620Y1598584D01*
X8271855Y1570875D01*
X8271855Y1552402D01*
X8262620Y1524693D01*
X8244146Y1506220D01*
X8225675Y1496984D01*
X8197964Y1496984D01*
X8179493Y1506220D01*
X8161020Y1524693D01*
X8090824Y1607820D02*
G01*
X8100059Y1598584D01*
X8090824Y1589346D01*
X8081586Y1598584D01*
X8090824Y1607820D01*
X8090824Y1543164D02*
G01*
X8100059Y1533928D01*
X8090824Y1524693D01*
X8081586Y1533928D01*
X8090824Y1543164D01*
X7878386Y1644764D02*
G01*
X7878386Y1654002D01*
X7869151Y1672475D01*
X7859915Y1681711D01*
X7841442Y1690946D01*
X7804495Y1690946D01*
X7786024Y1681711D01*
X7776786Y1672475D01*
X7767551Y1654002D01*
X7767551Y1635528D01*
X7776786Y1617055D01*
X7786024Y1607820D01*
X7822968Y1589346D01*
X7822968Y1561637D01*
X7822968Y1515455D02*
G01*
X7832204Y1506220D01*
X7822968Y1496984D01*
X7813733Y1506220D01*
X7822968Y1515455D01*
X7706591Y1644764D02*
G01*
X7706591Y1654002D01*
X7697355Y1672475D01*
X7688117Y1681711D01*
X7669644Y1690946D01*
X7632700Y1690946D01*
X7614226Y1681711D01*
X7604991Y1672475D01*
X7595755Y1654002D01*
X7595755Y1635528D01*
X7604991Y1617055D01*
X7614226Y1607820D01*
X7651173Y1589346D01*
X7651173Y1561637D01*
X7651173Y1515455D02*
G01*
X7660408Y1506220D01*
X7651173Y1496984D01*
X7641935Y1506220D01*
X7651173Y1515455D01*
X7534795Y1644764D02*
G01*
X7534795Y1654002D01*
X7525557Y1672475D01*
X7516322Y1681711D01*
X7497848Y1690946D01*
X7460904Y1690946D01*
X7442431Y1681711D01*
X7433195Y1672475D01*
X7423957Y1654002D01*
X7423957Y1635528D01*
X7433195Y1617055D01*
X7442431Y1607820D01*
X7479375Y1589346D01*
X7479375Y1561637D01*
X7479375Y1515455D02*
G01*
X7488613Y1506220D01*
X7479375Y1496984D01*
X7470140Y1506220D01*
X7479375Y1515455D01*
M02*
