G04 Layer: TopSilkscreenLayer*
G04 EasyEDA v6.5.50, 2025-06-19 10:13:18*
G04 a84239dc67104c4f9253a13bb71c2901,cfac02f6325b4f3d8a51e7031594ce25,10*
G04 Gerber Generator version 0.2*
G04 Scale: 100 percent, Rotated: No, Reflected: No *
G04 Dimensions in millimeters *
G04 leading zeros omitted , absolute positions ,4 integer and 5 decimal *
%FSLAX45Y45*%
%MOMM*%

%ADD10C,0.1524*%
%ADD11C,0.2540*%
%ADD12C,0.0163*%

%LPD*%
D10*
X5602076Y1524507D02*
G01*
X5596742Y1534921D01*
X5586328Y1545336D01*
X5576168Y1550415D01*
X5555340Y1550415D01*
X5544926Y1545336D01*
X5534512Y1534921D01*
X5529178Y1524507D01*
X5524098Y1508760D01*
X5524098Y1482852D01*
X5529178Y1467357D01*
X5534512Y1456944D01*
X5544926Y1446529D01*
X5555340Y1441450D01*
X5576168Y1441450D01*
X5586328Y1446529D01*
X5596742Y1456944D01*
X5602076Y1467357D01*
X5636366Y1529587D02*
G01*
X5646780Y1534921D01*
X5662274Y1550415D01*
X5662274Y1441450D01*
X3760850Y2083688D02*
G01*
X3760850Y1974722D01*
X3760850Y1974722D02*
G01*
X3823081Y1974722D01*
X3857370Y2083688D02*
G01*
X3857370Y1974722D01*
X3857370Y2083688D02*
G01*
X3924934Y2083688D01*
X3857370Y2031872D02*
G01*
X3899027Y2031872D01*
X3857370Y1974722D02*
G01*
X3924934Y1974722D01*
X3959225Y2083688D02*
G01*
X3959225Y1974722D01*
X3959225Y2083688D02*
G01*
X3995800Y2083688D01*
X4011295Y2078609D01*
X4021709Y2068195D01*
X4026788Y2057780D01*
X4032122Y2042032D01*
X4032122Y2016125D01*
X4026788Y2000630D01*
X4021709Y1990217D01*
X4011295Y1979803D01*
X3995800Y1974722D01*
X3959225Y1974722D01*
X4066413Y2062861D02*
G01*
X4076827Y2068195D01*
X4092320Y2083688D01*
X4092320Y1974722D01*
X3722750Y2515488D02*
G01*
X3722750Y2406522D01*
X3722750Y2406522D02*
G01*
X3784981Y2406522D01*
X3819270Y2515488D02*
G01*
X3819270Y2406522D01*
X3819270Y2515488D02*
G01*
X3886834Y2515488D01*
X3819270Y2463672D02*
G01*
X3860927Y2463672D01*
X3819270Y2406522D02*
G01*
X3886834Y2406522D01*
X3921125Y2515488D02*
G01*
X3921125Y2406522D01*
X3921125Y2515488D02*
G01*
X3957700Y2515488D01*
X3973195Y2510409D01*
X3983609Y2499995D01*
X3988688Y2489580D01*
X3994022Y2473832D01*
X3994022Y2447925D01*
X3988688Y2432430D01*
X3983609Y2422017D01*
X3973195Y2411603D01*
X3957700Y2406522D01*
X3921125Y2406522D01*
X4033393Y2489580D02*
G01*
X4033393Y2494661D01*
X4038727Y2505075D01*
X4043806Y2510409D01*
X4054220Y2515488D01*
X4075049Y2515488D01*
X4085463Y2510409D01*
X4090543Y2505075D01*
X4095877Y2494661D01*
X4095877Y2484246D01*
X4090543Y2473832D01*
X4080129Y2458338D01*
X4028313Y2406522D01*
X4100956Y2406522D01*
X3506850Y3658488D02*
G01*
X3506850Y3549522D01*
X3506850Y3549522D02*
G01*
X3569081Y3549522D01*
X3603370Y3658488D02*
G01*
X3603370Y3549522D01*
X3603370Y3658488D02*
G01*
X3670934Y3658488D01*
X3603370Y3606672D02*
G01*
X3645027Y3606672D01*
X3603370Y3549522D02*
G01*
X3670934Y3549522D01*
X3705225Y3658488D02*
G01*
X3705225Y3549522D01*
X3705225Y3658488D02*
G01*
X3741800Y3658488D01*
X3757295Y3653409D01*
X3767709Y3642995D01*
X3772788Y3632580D01*
X3778122Y3616832D01*
X3778122Y3590925D01*
X3772788Y3575430D01*
X3767709Y3565017D01*
X3757295Y3554603D01*
X3741800Y3549522D01*
X3705225Y3549522D01*
X3822827Y3658488D02*
G01*
X3879977Y3658488D01*
X3848734Y3616832D01*
X3864229Y3616832D01*
X3874643Y3611753D01*
X3879977Y3606672D01*
X3885056Y3590925D01*
X3885056Y3580511D01*
X3879977Y3565017D01*
X3869563Y3554603D01*
X3853815Y3549522D01*
X3838320Y3549522D01*
X3822827Y3554603D01*
X3817493Y3559682D01*
X3812413Y3570096D01*
X6031613Y1550415D02*
G01*
X6031613Y1441450D01*
X6031613Y1550415D02*
G01*
X6078349Y1550415D01*
X6093843Y1545336D01*
X6099177Y1540002D01*
X6104257Y1529587D01*
X6104257Y1519173D01*
X6099177Y1508760D01*
X6093843Y1503679D01*
X6078349Y1498600D01*
X6031613Y1498600D01*
X6067935Y1498600D02*
G01*
X6104257Y1441450D01*
X6138547Y1529587D02*
G01*
X6148961Y1534921D01*
X6164709Y1550415D01*
X6164709Y1441450D01*
X6492392Y1550415D02*
G01*
X6492392Y1472437D01*
X6497472Y1456944D01*
X6507886Y1446529D01*
X6523634Y1441450D01*
X6534048Y1441450D01*
X6549542Y1446529D01*
X6559956Y1456944D01*
X6565036Y1472437D01*
X6565036Y1550415D01*
X6599326Y1529587D02*
G01*
X6609740Y1534921D01*
X6625488Y1550415D01*
X6625488Y1441450D01*
X5118100Y3277615D02*
G01*
X5118100Y3199637D01*
X5123179Y3184144D01*
X5133593Y3173729D01*
X5149341Y3168650D01*
X5159756Y3168650D01*
X5175250Y3173729D01*
X5185663Y3184144D01*
X5190743Y3199637D01*
X5190743Y3277615D01*
X5230368Y3251707D02*
G01*
X5230368Y3256787D01*
X5235447Y3267202D01*
X5240781Y3272536D01*
X5251195Y3277615D01*
X5271770Y3277615D01*
X5282184Y3272536D01*
X5287518Y3267202D01*
X5292597Y3256787D01*
X5292597Y3246373D01*
X5287518Y3235960D01*
X5277104Y3220465D01*
X5225034Y3168650D01*
X5297931Y3168650D01*
D11*
X5496079Y1262542D02*
G01*
X5416082Y1262542D01*
X5552125Y1262496D02*
G01*
X5632122Y1262496D01*
X5496079Y1404510D02*
G01*
X5416082Y1404510D01*
X5552125Y1404462D02*
G01*
X5632122Y1404462D01*
X5385107Y1293525D02*
G01*
X5385107Y1373530D01*
X5663100Y1373477D02*
G01*
X5663100Y1293474D01*
X3804599Y1891499D02*
G01*
X3764600Y1851499D01*
X3754600Y1841500D01*
X3764600Y1831474D01*
X3804599Y1791474D01*
X3804599Y1891499D02*
G01*
X3804599Y1791474D01*
X3828922Y1739772D02*
G01*
X3983863Y1739772D01*
X3983863Y1942972D01*
X3828922Y1942972D01*
X3750183Y1737232D02*
G01*
X3602863Y1737232D01*
X3562222Y1777872D01*
X3562222Y1904872D01*
X3600322Y1942972D01*
X3752722Y1942972D01*
X3766499Y2323299D02*
G01*
X3726500Y2283299D01*
X3716500Y2273300D01*
X3726500Y2263274D01*
X3766499Y2223274D01*
X3766499Y2323299D02*
G01*
X3766499Y2223274D01*
X3790822Y2171572D02*
G01*
X3945763Y2171572D01*
X3945763Y2374772D01*
X3790822Y2374772D01*
X3712083Y2169032D02*
G01*
X3564763Y2169032D01*
X3524122Y2209672D01*
X3524122Y2336672D01*
X3562222Y2374772D01*
X3714622Y2374772D01*
X3550599Y3466299D02*
G01*
X3510600Y3426299D01*
X3500600Y3416300D01*
X3510600Y3406274D01*
X3550599Y3366274D01*
X3550599Y3466299D02*
G01*
X3550599Y3366274D01*
X3574922Y3314572D02*
G01*
X3729863Y3314572D01*
X3729863Y3517772D01*
X3574922Y3517772D01*
X3496183Y3312032D02*
G01*
X3348863Y3312032D01*
X3308222Y3352672D01*
X3308222Y3479672D01*
X3346322Y3517772D01*
X3498722Y3517772D01*
D10*
X6074234Y1267439D02*
G01*
X6170122Y1267439D01*
X6170122Y1399560D01*
X6074234Y1399560D01*
X5988992Y1267439D02*
G01*
X5893104Y1267439D01*
X5893104Y1399560D01*
X5988992Y1399560D01*
D11*
X6634464Y1218313D02*
G01*
X6634464Y1204125D01*
X6566971Y1404127D02*
G01*
X6634464Y1404127D01*
X6634464Y1389931D01*
X6434465Y1389931D02*
G01*
X6434465Y1404127D01*
X6501963Y1404127D01*
X6434465Y1204125D02*
G01*
X6434465Y1218313D01*
X6501963Y1204125D02*
G01*
X6434465Y1204125D01*
X6634464Y1204125D02*
G01*
X6566971Y1204125D01*
G75*
G01*
X5632117Y1404463D02*
G02*
X5663100Y1373477I0J-30983D01*
G75*
G01*
X5663100Y1293480D02*
G02*
X5632117Y1262497I-30983J0D01*
G75*
G01*
X5416088Y1262543D02*
G02*
X5385107Y1293525I2J30982D01*
G75*
G01*
X5385107Y1373523D02*
G02*
X5416088Y1404511I30983J5D01*
G75*
G01
X6413805Y1354887D02*
G03X6413805Y1354887I-6350J0D01*
M02*
